<svg xmlns="http://www.w3.org/2000/svg" version="1.1" viewBox="499.35 764 2261.68 1253.97"><path d="M 1570.393 769.150 C 1566.602 771.983, 1561.700 775.805, 1559.500 777.643 C 1557.300 779.481, 1550.100 785.288, 1543.500 790.547 C 1528.055 802.854, 1529.582 801.643, 1521.495 807.989 C 1517.648 811.008, 1510.675 816.661, 1506 820.551 C 1501.325 824.440, 1495.201 829.395, 1492.392 831.561 C 1487.500 835.333, 1459.109 858.155, 1416.635 892.457 C 1405.710 901.281, 1394.235 910.457, 1391.135 912.849 C 1385.802 916.965, 1382.581 919.520, 1373.929 926.500 C 1371.884 928.150, 1368.588 930.757, 1366.605 932.293 C 1362.693 935.323, 1362.156 937.055, 1364.521 939.017 C 1366.626 940.764, 1368.697 940.985, 1392 941.940 C 1403.275 942.402, 1415.875 943.261, 1420 943.848 C 1435.708 946.086, 1448.069 947.132, 1464.500 947.613 C 1473.850 947.887, 1483.300 948.506, 1485.500 948.987 C 1487.700 949.468, 1498.500 950.362, 1509.500 950.972 C 1534.975 952.385, 1540.449 952.951, 1539.344 954.056 C 1538.552 954.848, 1501.114 952.863, 1492 951.545 C 1490.075 951.267, 1478.375 950.349, 1466 949.506 C 1453.625 948.662, 1436.300 947.325, 1427.500 946.535 C 1418.700 945.744, 1404.041 944.856, 1394.925 944.562 L 1378.350 944.026 1372.940 948.644 C 1369.964 951.184, 1366.398 953.980, 1365.015 954.858 C 1363.632 955.736, 1362.266 956.773, 1361.981 957.163 C 1361.298 958.095, 1348.134 968.896, 1335.074 979.241 C 1329.340 983.784, 1322.590 989.176, 1320.074 991.224 C 1317.558 993.272, 1313.250 996.761, 1310.500 998.977 C 1307.750 1001.193, 1302.800 1005.245, 1299.500 1007.981 C 1296.200 1010.716, 1289.675 1015.967, 1285 1019.648 C 1280.325 1023.329, 1272.699 1029.526, 1268.053 1033.420 C 1263.406 1037.314, 1258.403 1041.400, 1256.934 1042.500 C 1255.465 1043.600, 1249.860 1048.100, 1244.479 1052.500 C 1239.098 1056.900, 1231.951 1062.648, 1228.597 1065.273 C 1225.244 1067.897, 1221.087 1071.272, 1219.360 1072.773 C 1217.633 1074.273, 1212.306 1078.650, 1207.523 1082.500 C 1191.048 1095.762, 1183.495 1101.917, 1181.503 1103.703 C 1180.405 1104.688, 1177.480 1107.029, 1175.003 1108.904 C 1172.526 1110.780, 1170.275 1112.592, 1170 1112.931 C 1169.725 1113.270, 1166.350 1116.004, 1162.500 1119.006 C 1158.650 1122.008, 1149.875 1129.134, 1143 1134.840 C 1136.125 1140.546, 1128.884 1146.252, 1126.910 1147.519 C 1124.935 1148.787, 1122.685 1150.442, 1121.910 1151.198 C 1121.134 1151.954, 1117.350 1155.086, 1113.500 1158.158 C 1109.650 1161.230, 1105.263 1164.904, 1103.750 1166.324 C 1100.818 1169.075, 1100.205 1172.114, 1102.250 1173.764 C 1103.954 1175.139, 1138.340 1175.217, 1165.088 1173.907 C 1186.357 1172.866, 1193.533 1172.688, 1258 1171.603 C 1275.875 1171.302, 1296.800 1170.781, 1304.500 1170.446 C 1312.200 1170.111, 1327.500 1169.761, 1338.500 1169.668 C 1360.903 1169.480, 1360.861 1169.491, 1367.788 1162.084 C 1380.230 1148.781, 1418.960 1110.333, 1549.208 981.982 C 1564.121 967.286, 1568 962.922, 1568 960.839 C 1568 957.424, 1566.675 957.007, 1555.668 956.965 C 1549.414 956.940, 1545.705 956.458, 1544 955.447 C 1541.707 954.088, 1542.286 954.010, 1551 954.510 C 1556.225 954.810, 1563.681 955.298, 1567.570 955.596 L 1574.639 956.137 1585.570 945.836 C 1591.581 940.171, 1614.164 917.977, 1635.754 896.518 C 1657.343 875.058, 1675.568 857.346, 1676.254 857.158 C 1676.939 856.970, 1656.491 877.670, 1630.814 903.158 C 1605.137 928.646, 1543.712 989.636, 1494.314 1038.691 C 1444.916 1087.746, 1394.938 1137.276, 1383.250 1148.758 C 1371.563 1160.240, 1362.002 1170.279, 1362.004 1171.067 C 1362.010 1173.092, 1365.729 1178.349, 1379.852 1196.300 C 1391.287 1210.835, 1395.035 1214.228, 1396.167 1211.070 C 1396.350 1210.558, 1410.675 1195.789, 1428 1178.251 C 1466.198 1139.581, 1526.807 1077.734, 1538.197 1065.803 C 1542.764 1061.020, 1553.475 1049.969, 1562 1041.245 C 1594.225 1008.268, 1642.539 958.665, 1643.500 957.570 C 1644.050 956.943, 1655.076 945.646, 1668.003 932.465 C 1730.028 869.220, 1750.080 849.002, 1750.760 849.022 C 1751.167 849.035, 1753.075 851.301, 1755 854.057 C 1756.925 856.814, 1760.300 861.486, 1762.500 864.440 C 1764.700 867.393, 1768.300 872.402, 1770.500 875.570 C 1772.700 878.738, 1775.287 882.156, 1776.250 883.165 C 1777.213 884.174, 1778 885.249, 1778 885.552 C 1778 885.856, 1781.077 890.244, 1784.837 895.302 C 1788.597 900.361, 1793.540 907.200, 1795.821 910.500 C 1801 917.994, 1815.289 937.819, 1817.443 940.500 C 1818.327 941.600, 1823.500 948.800, 1828.939 956.500 C 1840.729 973.191, 1841.817 974.396, 1843.694 972.839 C 1845.490 971.349, 1858.033 953.536, 1861.254 947.902 C 1862.639 945.481, 1863.535 942.825, 1863.247 942 C 1862.637 940.251, 1853.018 925.660, 1850.063 922 C 1848.953 920.625, 1848.044 919.050, 1848.044 918.500 C 1848.044 917.950, 1848.877 918.583, 1849.894 919.906 C 1851.082 921.451, 1852.327 922.089, 1853.372 921.687 C 1854.847 921.122, 1855 916.224, 1855 869.654 C 1855 825.849, 1854.784 818.066, 1853.543 817.036 C 1852.104 815.842, 1841.856 814.392, 1814.500 811.513 C 1794.157 809.372, 1796 808.911, 1796 816.135 C 1796 819.509, 1795.475 825.120, 1794.833 828.605 C 1793.924 833.536, 1793.939 835.855, 1794.902 839.067 C 1795.582 841.337, 1795.995 843.337, 1795.819 843.511 C 1795.507 843.821, 1789.534 835.591, 1772.590 811.500 C 1752.551 783.008, 1753.302 783.877, 1750.352 785.765 C 1749.721 786.169, 1733.380 802.025, 1714.038 821 C 1694.697 839.975, 1678.338 855.663, 1677.686 855.862 C 1675.927 856.399, 1734.884 797.073, 1741.750 791.397 C 1745.142 788.593, 1745.876 785.960, 1743.750 784.225 C 1743.063 783.664, 1739.125 782.706, 1735 782.096 C 1728.048 781.068, 1721.859 780.275, 1691 776.459 C 1669.336 773.779, 1646.997 770.969, 1630.752 768.881 C 1621.813 767.731, 1610.900 766.649, 1606.500 766.476 C 1602.100 766.304, 1594.225 765.683, 1589 765.098 C 1583.775 764.513, 1579.002 764.027, 1578.393 764.017 C 1577.784 764.008, 1574.184 766.318, 1570.393 769.150 M 1658 1483.910 C 1658 1484.507, 1660.250 1489.047, 1663 1494 C 1665.750 1498.953, 1668.014 1503.341, 1668.032 1503.752 C 1668.049 1504.164, 1668.705 1505.347, 1669.489 1506.382 C 1670.724 1508.014, 1672.146 1508.240, 1680.179 1508.077 C 1685.274 1507.974, 1689.642 1507.692, 1689.883 1507.450 C 1690.125 1507.208, 1689.032 1504.645, 1687.455 1501.755 C 1685.877 1498.865, 1683.651 1494.739, 1682.509 1492.587 C 1680.140 1488.126, 1679.539 1487.729, 1672 1485.643 C 1663.695 1483.344, 1658 1482.639, 1658 1483.910 M 1720.677 1502.852 C 1719.225 1505.520, 1718.215 1507.883, 1718.433 1508.102 C 1719.229 1508.902, 1759 1507.894, 1759 1507.073 C 1759 1506.608, 1757.763 1506.001, 1756.250 1505.725 C 1753.333 1505.193, 1740.483 1502.135, 1730.500 1499.597 C 1727.200 1498.758, 1724.234 1498.055, 1723.909 1498.036 C 1723.584 1498.016, 1722.130 1500.183, 1720.677 1502.852 M 1531.250 1504.899 C 1527.813 1505.777, 1525 1506.804, 1525 1507.181 C 1525 1507.558, 1529.501 1508.010, 1535.002 1508.184 C 1540.503 1508.358, 1545.003 1508.133, 1545.002 1507.684 C 1545.001 1507.236, 1544.534 1505.998, 1543.965 1504.934 C 1542.737 1502.641, 1540.118 1502.633, 1531.250 1504.899 M 1523.543 1510.931 C 1522.760 1512.198, 1523.496 1512.501, 1531 1514.001 C 1534.575 1514.715, 1537.950 1515.629, 1538.500 1516.033 C 1539.832 1517.010, 1550.168 1519.165, 1550.747 1518.586 C 1550.997 1518.336, 1550.174 1516.302, 1548.917 1514.066 L 1546.632 1510 1535.375 1510 C 1529.184 1510, 1523.859 1510.419, 1523.543 1510.931 M 1672 1510.463 C 1672 1510.901, 1679.789 1525.552, 1682.919 1531 C 1683.865 1532.647, 1690.425 1532.719, 1692.380 1531.104 C 1692.996 1530.595, 1695.188 1529.864, 1697.250 1529.478 C 1699.313 1529.093, 1700.994 1528.265, 1700.987 1527.639 C 1700.980 1527.012, 1699.011 1522.900, 1696.611 1518.500 L 1692.248 1510.500 1682.124 1510.215 C 1676.556 1510.058, 1672 1510.170, 1672 1510.463 M 1714.993 1513.250 C 1710.905 1519.967, 1708.582 1524.915, 1709.216 1525.550 C 1709.577 1525.911, 1712.939 1525.289, 1716.686 1524.169 C 1720.434 1523.048, 1725.075 1521.825, 1727 1521.450 C 1728.925 1521.076, 1730.950 1520.436, 1731.500 1520.028 C 1732.050 1519.620, 1735.425 1518.728, 1739 1518.046 C 1742.575 1517.363, 1745.950 1516.511, 1746.500 1516.152 C 1747.050 1515.793, 1750.388 1514.825, 1753.918 1514 C 1757.447 1513.175, 1760.522 1511.938, 1760.751 1511.250 C 1761.075 1510.275, 1756.302 1510, 1739.069 1510 L 1716.971 1510 1714.993 1513.250 M 1491.500 1514.590 C 1488.200 1515.383, 1483.025 1516.588, 1480 1517.266 C 1471.673 1519.134, 1472.619 1520.458, 1484.859 1524.065 C 1490.490 1525.725, 1493.659 1526.094, 1498.359 1525.639 C 1502.659 1525.223, 1503.826 1525.328, 1502.250 1525.990 C 1501.013 1526.510, 1500 1527.318, 1500 1527.785 C 1500 1528.735, 1511.459 1532.584, 1517.250 1533.578 C 1519.313 1533.933, 1521 1534.675, 1521 1535.228 C 1521 1535.781, 1520.213 1536.008, 1519.250 1535.733 C 1518.287 1535.458, 1514.575 1534.456, 1511 1533.506 C 1507.425 1532.555, 1503.414 1531.265, 1502.087 1530.639 C 1500.760 1530.013, 1496.035 1529.522, 1491.587 1529.549 C 1487.139 1529.577, 1484.539 1529.352, 1485.809 1529.049 C 1489.146 1528.256, 1488.673 1526.631, 1484.825 1525.665 C 1482.996 1525.206, 1478.619 1523.918, 1475.098 1522.803 C 1468.571 1520.737, 1459.092 1520.844, 1455.136 1523.029 C 1454.236 1523.526, 1450.125 1524.646, 1446 1525.517 C 1438.500 1527.101, 1430.408 1528.962, 1413.500 1532.992 C 1408.550 1534.171, 1402.025 1535.699, 1399 1536.385 C 1395.975 1537.072, 1392.825 1537.915, 1392 1538.258 C 1391.175 1538.602, 1389.637 1539.022, 1388.583 1539.191 C 1385.938 1539.617, 1385.322 1542, 1387.858 1542 C 1388.971 1542, 1390.129 1542.399, 1390.430 1542.887 C 1390.731 1543.374, 1392.670 1544.090, 1394.739 1544.476 C 1396.808 1544.863, 1399.132 1545.701, 1399.904 1546.339 C 1401.749 1547.864, 1414.651 1547.749, 1416.206 1546.194 C 1417.575 1544.825, 1422.398 1544.547, 1421.571 1545.885 C 1421.271 1546.371, 1418.967 1547.078, 1416.452 1547.455 C 1410.507 1548.346, 1411.109 1550.054, 1418.079 1552.062 C 1421.061 1552.921, 1424.625 1554.101, 1426 1554.685 C 1427.375 1555.268, 1429.993 1556.070, 1431.817 1556.467 C 1433.642 1556.864, 1436.342 1557.818, 1437.817 1558.588 C 1439.293 1559.358, 1441.129 1559.990, 1441.897 1559.994 C 1443.230 1560, 1453.268 1563.257, 1457.500 1565.057 C 1458.600 1565.525, 1461.525 1566.435, 1464 1567.079 C 1466.475 1567.724, 1470.035 1568.925, 1471.912 1569.750 C 1475.757 1571.438, 1487.392 1571.008, 1489.292 1569.108 C 1489.902 1568.498, 1491.337 1568, 1492.482 1568 C 1493.627 1568, 1497.025 1567.313, 1500.032 1566.473 C 1511.270 1563.334, 1520.637 1560.872, 1525 1559.911 C 1527.475 1559.365, 1530.202 1558.537, 1531.060 1558.070 C 1531.917 1557.603, 1535.292 1556.671, 1538.560 1555.999 C 1541.827 1555.328, 1544.950 1554.490, 1545.500 1554.139 C 1546.050 1553.788, 1549.565 1552.825, 1553.311 1552 C 1564.525 1549.531, 1563.202 1548.543, 1540 1542.056 C 1527.853 1538.660, 1521.963 1536.703, 1522.443 1536.224 C 1522.988 1535.679, 1533.096 1537.978, 1534.500 1538.966 C 1535.050 1539.353, 1538.200 1540.244, 1541.500 1540.946 C 1544.800 1541.648, 1547.950 1542.582, 1548.500 1543.022 C 1549.050 1543.461, 1551.300 1544.145, 1553.500 1544.541 C 1555.700 1544.937, 1557.995 1545.652, 1558.601 1546.129 C 1561.215 1548.191, 1568.807 1548.227, 1575.632 1546.209 C 1579.409 1545.093, 1584.638 1543.591, 1587.250 1542.871 C 1596.826 1540.235, 1591.853 1538.128, 1575.500 1537.893 C 1563.532 1537.721, 1561.547 1537.141, 1558.777 1533.013 C 1557.478 1531.077, 1555.118 1529.135, 1553.469 1528.646 C 1551.836 1528.161, 1549.803 1527.420, 1548.950 1526.999 C 1548.098 1526.578, 1544.723 1525.656, 1541.450 1524.951 C 1538.178 1524.246, 1534.868 1523.181, 1534.096 1522.585 C 1531.942 1520.920, 1519.127 1521.366, 1513.715 1523.295 C 1508.539 1525.139, 1504.552 1525.534, 1505.429 1524.115 C 1505.729 1523.629, 1508.118 1522.909, 1510.738 1522.517 C 1516.001 1521.728, 1519 1520.438, 1519 1518.965 C 1519 1518.434, 1518.159 1518, 1517.130 1518 C 1516.102 1518, 1512.614 1517.158, 1509.380 1516.128 C 1500.301 1513.238, 1497.961 1513.036, 1491.500 1514.590 M 1780 1514.656 C 1775.729 1516.083, 1773.740 1516.644, 1759.500 1520.437 C 1756.200 1521.316, 1752.808 1522.422, 1751.962 1522.894 C 1751.115 1523.366, 1748.415 1524.080, 1745.962 1524.480 C 1743.508 1524.880, 1740.150 1525.786, 1738.500 1526.494 C 1736.850 1527.202, 1732.800 1528.455, 1729.500 1529.277 C 1726.200 1530.100, 1717.650 1532.438, 1710.500 1534.474 C 1703.350 1536.509, 1695.400 1538.698, 1692.833 1539.338 C 1690.266 1539.978, 1687.828 1540.839, 1687.416 1541.251 C 1687.004 1541.663, 1685.638 1542, 1684.380 1542 C 1683.123 1542, 1681.060 1542.428, 1679.797 1542.950 C 1678.534 1543.473, 1674.005 1544.912, 1669.732 1546.147 C 1665.460 1547.383, 1662.122 1548.867, 1662.314 1549.447 C 1662.507 1550.026, 1665.553 1551.175, 1669.082 1552 C 1672.612 1552.825, 1675.950 1553.788, 1676.500 1554.139 C 1677.050 1554.490, 1680.173 1555.328, 1683.440 1555.999 C 1686.708 1556.671, 1690.083 1557.603, 1690.940 1558.070 C 1691.798 1558.537, 1694.525 1559.370, 1697 1559.922 C 1699.475 1560.473, 1704.875 1561.879, 1709 1563.047 C 1713.125 1564.214, 1719.425 1565.921, 1723 1566.840 C 1726.575 1567.759, 1729.950 1568.795, 1730.500 1569.144 C 1731.050 1569.493, 1734.173 1570.328, 1737.440 1570.999 C 1740.708 1571.671, 1744.083 1572.603, 1744.940 1573.070 C 1745.798 1573.537, 1748.525 1574.373, 1751 1574.927 C 1760.424 1577.038, 1768.611 1579.266, 1771.500 1580.506 C 1773.150 1581.214, 1776.508 1582.120, 1778.962 1582.520 C 1781.415 1582.920, 1784.115 1583.638, 1784.962 1584.116 C 1785.808 1584.593, 1789.200 1585.638, 1792.500 1586.436 C 1795.800 1587.235, 1800.975 1588.616, 1804 1589.504 C 1810.103 1591.298, 1817.060 1590.966, 1822.249 1588.633 C 1824.037 1587.830, 1827.300 1586.652, 1829.500 1586.017 C 1831.700 1585.381, 1834.400 1584.459, 1835.500 1583.968 C 1837.997 1582.854, 1857.282 1576.241, 1862 1574.881 C 1863.925 1574.326, 1866.918 1573.226, 1868.651 1572.436 C 1870.384 1571.646, 1872.341 1571, 1873 1571 C 1873.659 1571, 1875.616 1570.394, 1877.349 1569.654 C 1879.082 1568.914, 1885.225 1566.808, 1891 1564.975 C 1896.775 1563.142, 1901.950 1561.325, 1902.500 1560.937 C 1903.050 1560.549, 1905.075 1559.902, 1907 1559.500 C 1908.925 1559.098, 1910.950 1558.415, 1911.500 1557.982 C 1912.050 1557.550, 1914.525 1556.683, 1917 1556.056 C 1919.475 1555.429, 1922.400 1554.480, 1923.500 1553.947 C 1924.600 1553.414, 1927.457 1552.420, 1929.848 1551.739 C 1937.577 1549.537, 1935.629 1548.416, 1916.250 1543.916 C 1904.084 1541.091, 1892.291 1538.304, 1885.500 1536.649 C 1882.200 1535.845, 1875.450 1534.226, 1870.500 1533.052 C 1865.550 1531.877, 1857.900 1530.056, 1853.500 1529.004 C 1849.100 1527.953, 1841.675 1526.197, 1837 1525.103 C 1832.325 1524.008, 1827.600 1522.871, 1826.500 1522.576 C 1825.400 1522.280, 1819.550 1520.892, 1813.500 1519.491 C 1807.450 1518.089, 1800.250 1516.308, 1797.500 1515.532 C 1789.508 1513.276, 1784.834 1513.042, 1780 1514.656 M 1626.721 1539.597 C 1625.716 1540.622, 1634.027 1543.070, 1640.611 1543.689 C 1645.552 1544.153, 1655.300 1541.908, 1653.382 1540.748 C 1651.844 1539.817, 1627.535 1538.768, 1626.721 1539.597 M 1368.500 1544.039 C 1352.138 1547.792, 1350.481 1548.228, 1349.660 1548.995 C 1349.198 1549.427, 1351.223 1550.536, 1354.160 1551.461 C 1357.097 1552.386, 1360.400 1553.545, 1361.500 1554.036 C 1367.518 1556.725, 1376.550 1556.720, 1382.500 1554.025 C 1383.600 1553.527, 1387.763 1552.570, 1391.750 1551.899 C 1396.060 1551.174, 1399 1550.191, 1399 1549.476 C 1399 1548.219, 1394.285 1546.218, 1385.068 1543.564 C 1378.613 1541.705, 1378.682 1541.703, 1368.500 1544.039 M 1591.244 1543.504 C 1580.536 1546.119, 1574 1548.411, 1574 1549.553 C 1574 1550.198, 1576.813 1551.306, 1580.250 1552.013 C 1583.688 1552.721, 1587.132 1553.795, 1587.904 1554.400 C 1589.621 1555.746, 1604.731 1555.864, 1607.500 1554.553 C 1608.600 1554.032, 1612.167 1552.907, 1615.427 1552.053 C 1618.687 1551.199, 1621.522 1549.982, 1621.727 1549.349 C 1622.092 1548.225, 1613.487 1545.169, 1604 1543.053 C 1598.587 1541.845, 1597.947 1541.868, 1591.244 1543.504 M 1394.500 1552.616 C 1391.750 1553.431, 1386.806 1554.641, 1383.513 1555.304 C 1379.217 1556.170, 1377.430 1557.004, 1377.189 1558.256 C 1376.966 1559.414, 1377.483 1560, 1378.727 1560 C 1379.757 1560, 1381.027 1560.396, 1381.550 1560.879 C 1382.072 1561.363, 1384.300 1562.294, 1386.500 1562.949 C 1388.700 1563.604, 1391.400 1564.517, 1392.500 1564.979 C 1393.600 1565.441, 1399 1567.238, 1404.500 1568.972 C 1410 1570.707, 1415.400 1572.528, 1416.500 1573.018 C 1417.600 1573.509, 1422.100 1575.083, 1426.500 1576.517 C 1430.900 1577.951, 1435.400 1579.511, 1436.500 1579.984 C 1440.682 1581.783, 1444.098 1581.986, 1447.343 1580.630 C 1449.192 1579.858, 1452.637 1578.899, 1455 1578.500 C 1457.363 1578.101, 1460.790 1577.150, 1462.616 1576.387 C 1464.442 1575.624, 1467.075 1575, 1468.468 1575 C 1470.219 1575, 1470.995 1574.460, 1470.984 1573.250 C 1470.972 1571.852, 1466.098 1569.914, 1446.734 1563.608 C 1433.406 1559.267, 1419.384 1554.655, 1415.576 1553.358 C 1407.717 1550.682, 1401.740 1550.472, 1394.500 1552.616 M 1558.500 1552.063 C 1543.312 1556.407, 1536.420 1558.284, 1518.750 1562.890 C 1514.763 1563.929, 1507.900 1565.778, 1503.500 1566.999 C 1499.100 1568.220, 1493.362 1569.679, 1490.750 1570.242 C 1487.144 1571.019, 1486 1571.715, 1486 1573.133 C 1486 1574.323, 1486.713 1575, 1487.966 1575 C 1489.047 1575, 1491.410 1575.643, 1493.216 1576.429 C 1495.022 1577.215, 1499.687 1578.847, 1503.581 1580.056 C 1510.133 1582.090, 1510.918 1582.141, 1514.081 1580.736 C 1515.962 1579.901, 1520.425 1578.486, 1524 1577.590 C 1527.575 1576.695, 1532.975 1575.269, 1536 1574.422 C 1539.025 1573.575, 1544.200 1572.217, 1547.500 1571.405 C 1550.800 1570.594, 1554.175 1569.643, 1555 1569.294 C 1555.825 1568.944, 1559.425 1567.873, 1563 1566.914 C 1566.575 1565.954, 1572.875 1564.205, 1577 1563.027 C 1581.125 1561.849, 1585.760 1560.632, 1587.300 1560.322 C 1591.177 1559.542, 1590.411 1556.811, 1585.993 1555.664 C 1584.072 1555.165, 1580.121 1553.912, 1577.212 1552.878 C 1571.726 1550.929, 1563.688 1550.579, 1558.500 1552.063 M 1628.500 1557.633 C 1624.100 1558.970, 1618.475 1560.666, 1616 1561.402 C 1609.723 1563.269, 1610.236 1565.184, 1617.500 1567 C 1620.800 1567.825, 1623.950 1568.788, 1624.500 1569.139 C 1625.050 1569.490, 1628.173 1570.328, 1631.440 1570.999 C 1634.708 1571.671, 1638.083 1572.586, 1638.940 1573.033 C 1639.798 1573.480, 1643.875 1574.822, 1648 1576.016 C 1652.125 1577.209, 1659.015 1579.269, 1663.312 1580.593 C 1667.608 1581.917, 1671.777 1583, 1672.575 1583 C 1673.374 1583, 1674.809 1583.442, 1675.764 1583.982 C 1677.372 1584.892, 1680.353 1585.769, 1695 1589.643 C 1698.025 1590.443, 1701.400 1591.494, 1702.500 1591.978 C 1703.600 1592.463, 1707.875 1593.820, 1712 1594.994 C 1716.125 1596.168, 1721.525 1597.737, 1724 1598.480 C 1726.475 1599.224, 1730.525 1600.339, 1733 1600.958 C 1735.475 1601.577, 1738.400 1602.498, 1739.500 1603.005 C 1741.348 1603.856, 1747.515 1605.634, 1757.562 1608.209 C 1761.048 1609.103, 1762.747 1608.872, 1769.562 1606.573 C 1773.928 1605.100, 1778.175 1603.621, 1779 1603.286 C 1779.825 1602.951, 1782.495 1601.962, 1784.934 1601.089 C 1792.963 1598.212, 1792.437 1597.905, 1767.500 1590.904 C 1755.513 1587.538, 1746.678 1584.967, 1742 1583.482 C 1739.525 1582.696, 1735.700 1581.620, 1733.500 1581.091 C 1731.300 1580.562, 1726.237 1579.200, 1722.250 1578.064 C 1718.263 1576.929, 1711.963 1575.140, 1708.250 1574.090 C 1704.537 1573.039, 1695.875 1570.515, 1689 1568.480 C 1682.125 1566.444, 1673.575 1564.006, 1670 1563.061 C 1666.425 1562.115, 1662.825 1561.062, 1662 1560.720 C 1661.175 1560.378, 1658.475 1559.592, 1656 1558.973 C 1653.525 1558.354, 1649.572 1557.207, 1647.215 1556.424 C 1641.490 1554.521, 1638.004 1554.747, 1628.500 1557.633 M 1600.500 1565.659 C 1594.626 1566.912, 1579.264 1571.231, 1577.764 1572.051 C 1576.809 1572.573, 1575.346 1573, 1574.514 1573 C 1570.373 1573, 1575.485 1576.714, 1582 1578.440 C 1588.946 1580.280, 1598.836 1583.367, 1601.500 1584.528 C 1603.150 1585.246, 1606.300 1586.155, 1608.500 1586.548 C 1610.700 1586.940, 1612.950 1587.593, 1613.500 1587.999 C 1614.050 1588.406, 1616.975 1589.317, 1620 1590.024 C 1623.025 1590.731, 1626.175 1591.666, 1627 1592.102 C 1628.854 1593.082, 1641.342 1596.754, 1645.750 1597.615 C 1647.537 1597.964, 1649 1598.585, 1649 1598.995 C 1649 1599.405, 1651.813 1600.291, 1655.250 1600.964 C 1658.688 1601.637, 1661.950 1602.554, 1662.500 1603.002 C 1663.050 1603.450, 1665.975 1604.502, 1669 1605.340 C 1682.209 1609.001, 1684.702 1609.770, 1686.546 1610.757 C 1687.621 1611.332, 1690.643 1612.124, 1693.262 1612.517 C 1695.882 1612.909, 1698.243 1613.584, 1698.509 1614.015 C 1698.776 1614.446, 1701.358 1615.353, 1704.247 1616.030 C 1707.136 1616.708, 1709.950 1617.594, 1710.500 1618 C 1711.050 1618.406, 1713.912 1619.304, 1716.860 1619.995 C 1722.866 1621.404, 1730.366 1620.839, 1735.249 1618.611 C 1737.037 1617.795, 1740.075 1616.682, 1742 1616.136 C 1748.757 1614.222, 1755.236 1611.490, 1755.367 1610.500 C 1755.440 1609.950, 1753.475 1608.903, 1751 1608.173 C 1748.525 1607.443, 1745.600 1606.452, 1744.500 1605.972 C 1743.400 1605.491, 1740.025 1604.445, 1737 1603.646 C 1733.975 1602.847, 1729.025 1601.445, 1726 1600.529 C 1722.975 1599.613, 1718.025 1598.203, 1715 1597.395 C 1711.975 1596.588, 1708.600 1595.510, 1707.500 1595 C 1706.400 1594.490, 1703.025 1593.411, 1700 1592.602 C 1696.975 1591.793, 1691.800 1590.410, 1688.500 1589.529 C 1685.200 1588.647, 1681.600 1587.501, 1680.500 1586.981 C 1679.400 1586.461, 1676.700 1585.600, 1674.500 1585.068 C 1672.300 1584.536, 1667.350 1583.140, 1663.500 1581.967 C 1659.650 1580.793, 1654.025 1579.179, 1651 1578.380 C 1647.975 1577.581, 1644.600 1576.510, 1643.500 1576 C 1642.400 1575.490, 1639.025 1574.412, 1636 1573.605 C 1632.975 1572.797, 1628.025 1571.395, 1625 1570.490 C 1607.184 1565.160, 1604.927 1564.714, 1600.500 1565.659 M 1471.847 1575.487 C 1471.493 1575.840, 1468.345 1576.792, 1464.852 1577.602 C 1453.603 1580.208, 1448.479 1582.349, 1449.508 1584.013 C 1449.775 1584.445, 1452.358 1585.353, 1455.247 1586.030 C 1458.136 1586.708, 1460.956 1587.620, 1461.513 1588.057 C 1464.401 1590.323, 1472.141 1591.232, 1478.275 1590.027 C 1481.699 1589.355, 1484.950 1588.511, 1485.500 1588.152 C 1486.050 1587.793, 1489.650 1586.802, 1493.500 1585.948 C 1503.992 1583.622, 1502.990 1582.185, 1487.500 1577.344 C 1481.869 1575.585, 1472.822 1574.511, 1471.847 1575.487 M 1563.990 1576.214 C 1562.071 1576.674, 1557.575 1577.917, 1554 1578.975 C 1550.425 1580.034, 1544.912 1581.610, 1541.750 1582.478 C 1538.069 1583.488, 1536 1584.585, 1536 1585.528 C 1536 1586.338, 1536.873 1587, 1537.941 1587 C 1539.009 1587, 1540.113 1587.374, 1540.395 1587.831 C 1540.678 1588.288, 1543.397 1589.218, 1546.437 1589.899 C 1549.478 1590.579, 1552.201 1591.516, 1552.488 1591.981 C 1552.775 1592.446, 1554.903 1593.146, 1557.217 1593.537 C 1559.530 1593.927, 1562.115 1594.641, 1562.962 1595.121 C 1564.789 1596.159, 1579.829 1601, 1581.227 1601 C 1581.761 1601, 1583.616 1601.634, 1585.349 1602.410 C 1587.082 1603.185, 1595.250 1605.923, 1603.500 1608.493 C 1611.750 1611.063, 1619.400 1613.592, 1620.500 1614.112 C 1621.600 1614.633, 1624.862 1615.721, 1627.750 1616.529 C 1630.638 1617.338, 1635.362 1618.662, 1638.250 1619.471 C 1641.138 1620.279, 1644.400 1621.389, 1645.500 1621.936 C 1647.641 1623.001, 1654.096 1625.120, 1668.500 1629.485 C 1673.450 1630.985, 1678.918 1632.839, 1680.651 1633.606 C 1682.384 1634.373, 1684.375 1635, 1685.076 1635 C 1686.394 1635, 1699.975 1630.591, 1703.500 1629.018 C 1704.600 1628.527, 1706.625 1627.846, 1708 1627.505 C 1711.642 1626.601, 1718 1623.795, 1718 1623.092 C 1718 1622.311, 1713.339 1620.303, 1709.500 1619.430 C 1707.850 1619.054, 1702.675 1617.505, 1698 1615.987 C 1693.325 1614.468, 1684.775 1611.788, 1679 1610.030 C 1673.225 1608.272, 1666.700 1606.225, 1664.500 1605.479 C 1662.300 1604.734, 1657.125 1603.140, 1653 1601.936 C 1648.875 1600.733, 1642.125 1598.625, 1638 1597.253 C 1633.875 1595.881, 1627.688 1593.913, 1624.250 1592.879 C 1616.363 1590.508, 1608.549 1588.077, 1594 1583.470 C 1570.278 1575.959, 1567.679 1575.330, 1563.990 1576.214 M 1525.450 1586.865 C 1524.928 1587.341, 1521.575 1588.283, 1518 1588.959 C 1514.425 1589.635, 1511.050 1590.543, 1510.500 1590.977 C 1509.950 1591.411, 1507.025 1592.285, 1504 1592.919 C 1498.109 1594.153, 1493 1596.098, 1493 1597.107 C 1493 1597.448, 1495.588 1598.490, 1498.750 1599.423 C 1501.912 1600.355, 1506.075 1601.818, 1508 1602.672 C 1509.925 1603.527, 1513.525 1604.797, 1516 1605.496 C 1521.631 1607.086, 1538.495 1612.824, 1542.500 1614.513 C 1544.150 1615.208, 1546.625 1616.081, 1548 1616.452 C 1549.375 1616.822, 1551.400 1617.485, 1552.500 1617.924 C 1553.600 1618.364, 1556.300 1619.265, 1558.500 1619.928 C 1560.700 1620.590, 1563.400 1621.511, 1564.500 1621.974 C 1566.880 1622.977, 1574.735 1625.623, 1581 1627.534 C 1586.998 1629.363, 1594.035 1631.838, 1596.500 1632.985 C 1597.600 1633.497, 1600.525 1634.429, 1603 1635.056 C 1605.475 1635.683, 1607.950 1636.533, 1608.500 1636.945 C 1609.050 1637.357, 1613.550 1638.924, 1618.500 1640.427 C 1623.450 1641.930, 1629.525 1643.950, 1632 1644.916 C 1644.168 1649.665, 1643.804 1649.656, 1656.713 1645.504 C 1663.196 1643.419, 1668.928 1641.327, 1669.450 1640.856 C 1669.973 1640.385, 1670.999 1640, 1671.732 1640 C 1672.465 1640, 1674.709 1639.313, 1676.719 1638.473 C 1679.831 1637.173, 1680.161 1636.750, 1678.937 1635.631 C 1678.147 1634.908, 1671.425 1632.378, 1664 1630.008 C 1656.575 1627.638, 1647.927 1624.867, 1644.782 1623.850 C 1641.636 1622.832, 1638.374 1622, 1637.532 1622 C 1636.689 1622, 1636 1621.550, 1636 1621 C 1636 1620.450, 1635.335 1620, 1634.522 1620 C 1633.132 1620, 1606.837 1611.802, 1602.500 1610.016 C 1601.400 1609.563, 1593.750 1607.064, 1585.500 1604.463 C 1567.196 1598.692, 1559.131 1596.053, 1556.500 1594.973 C 1555.400 1594.521, 1550.450 1592.946, 1545.500 1591.472 C 1540.550 1589.998, 1535.022 1588.163, 1533.216 1587.396 C 1529.457 1585.798, 1526.820 1585.618, 1525.450 1586.865 M 499.483 1726.028 C 499.133 1726.594, 499.542 1729.856, 500.391 1733.278 C 505.839 1755.230, 526.857 1840.648, 530.588 1856 C 533.061 1866.175, 535.511 1875.522, 536.031 1876.772 C 536.974 1879.036, 537.039 1879.042, 556.156 1878.772 L 575.335 1878.500 576.046 1876 C 578.125 1868.690, 579.345 1863.894, 583.419 1847 C 593.821 1803.869, 599.119 1782.162, 600.503 1777 C 601.314 1773.975, 604.007 1762.950, 606.489 1752.500 C 608.970 1742.050, 611.440 1732.184, 611.978 1730.577 C 613.695 1725.449, 612.411 1724.998, 596.128 1725.015 C 588.082 1725.024, 580.937 1725.388, 580.248 1725.826 C 579.559 1726.263, 578.148 1730.418, 577.113 1735.060 C 576.077 1739.702, 571.747 1759.025, 567.489 1778 C 563.232 1796.975, 559.124 1815.425, 558.360 1819 C 555.921 1830.419, 555.604 1830.511, 553.565 1820.394 C 552.801 1816.602, 551.229 1809.450, 550.073 1804.500 C 548.916 1799.550, 547.029 1791.225, 545.879 1786 C 535.179 1737.379, 532.862 1727.539, 531.817 1726.280 C 530.476 1724.664, 500.470 1724.431, 499.483 1726.028 M 624.116 1726.360 C 623.295 1727.350, 623.057 1748.247, 623.244 1803.110 L 623.500 1878.500 638.365 1878.777 C 648.475 1878.966, 653.672 1878.687, 654.615 1877.905 C 655.773 1876.944, 656 1864.469, 656 1801.913 C 656 1728.942, 655.952 1727.044, 654.066 1726.035 C 651.033 1724.412, 625.503 1724.689, 624.116 1726.360 M 676.244 1725.828 C 675.250 1726.459, 675.041 1742.475, 675.244 1802.563 L 675.500 1878.500 690.365 1878.777 C 700.475 1878.966, 705.672 1878.687, 706.615 1877.905 C 707.761 1876.954, 708 1868.231, 708 1827.355 L 708 1777.955 729.500 1797.046 L 751 1816.137 751.015 1846.319 C 751.024 1862.918, 751.395 1877.075, 751.841 1877.777 C 752.454 1878.743, 756.406 1878.987, 768.076 1878.777 L 783.500 1878.500 783.756 1802.368 L 784.012 1726.237 781.756 1725.632 C 777.955 1724.613, 754.991 1724.935, 752.934 1726.035 C 751.095 1727.019, 751 1728.400, 751 1754.104 L 751 1781.138 743.250 1774.403 C 733.836 1766.221, 722.599 1756.230, 715.241 1749.500 C 712.235 1746.750, 709.376 1744.350, 708.888 1744.167 C 708.399 1743.983, 708 1740.303, 708 1735.988 C 708 1724.958, 708.059 1724.996, 691.179 1725.015 C 683.655 1725.024, 676.935 1725.390, 676.244 1725.828 M 830.572 1727.201 C 829.707 1728.435, 829 1729.965, 829 1730.600 C 829 1731.236, 822.454 1758.248, 814.453 1790.628 C 806.453 1823.007, 798.579 1854.900, 796.957 1861.500 C 795.334 1868.100, 794.005 1874.737, 794.003 1876.250 L 794 1879 809.831 1879 C 825.247 1879, 825.692 1878.941, 826.793 1876.750 C 827.651 1875.043, 830 1864.471, 830 1862.316 C 830 1862.142, 833.789 1862, 838.421 1862 L 846.842 1862 855.903 1851.504 C 863.828 1842.325, 865.031 1841.290, 865.496 1843.254 C 865.789 1844.489, 867.735 1852.925, 869.820 1862 L 873.611 1878.500 889.689 1878.774 C 907.073 1879.071, 908.054 1878.769, 906.058 1873.738 C 905.570 1872.507, 903.960 1866.100, 902.480 1859.500 C 901.001 1852.900, 899.177 1845.250, 898.428 1842.500 C 897.679 1839.750, 895.917 1832.550, 894.513 1826.500 C 893.109 1820.450, 891.557 1814.150, 891.063 1812.500 C 890.568 1810.850, 889.874 1807.925, 889.520 1806 C 889.166 1804.075, 888.240 1800.250, 887.462 1797.500 C 886.684 1794.750, 884.002 1783.950, 881.502 1773.500 C 879.003 1763.050, 876.518 1752.925, 875.981 1751 C 875.444 1749.075, 874.368 1744.800, 873.590 1741.500 C 872.812 1738.200, 871.574 1733.250, 870.838 1730.500 L 869.500 1725.500 850.822 1725.228 C 832.452 1724.961, 832.118 1724.993, 830.572 1727.201 M 891 1726.892 C 891 1727.958, 899.550 1746.220, 910 1767.474 L 929 1806.117 929.015 1841.308 C 929.024 1860.664, 929.395 1877.075, 929.841 1877.777 C 930.454 1878.743, 934.406 1878.987, 946.076 1878.777 L 961.500 1878.500 961.761 1842.500 L 962.022 1806.500 971.173 1788 C 976.206 1777.825, 984.996 1760.089, 990.706 1748.587 C 996.416 1737.084, 1000.854 1727.061, 1000.567 1726.313 C 1000.149 1725.224, 996.615 1725.007, 982.842 1725.226 L 965.640 1725.500 962.848 1732 C 960.599 1737.237, 948.446 1766.420, 946.264 1771.825 C 945.594 1773.482, 944.826 1771.856, 936.655 1751.500 C 933.123 1742.700, 929.161 1733.250, 927.852 1730.500 L 925.472 1725.500 908.236 1725.226 C 891.753 1724.965, 891 1725.037, 891 1726.892 M 1020.991 1727.250 C 1020.460 1728.487, 1016.171 1745.250, 1011.459 1764.500 C 1006.748 1783.750, 998.617 1816.774, 993.392 1837.887 C 988.166 1859, 984.126 1876.887, 984.414 1877.637 C 984.824 1878.706, 988.247 1879, 1000.269 1879 C 1016.470 1879, 1018 1878.599, 1018 1874.347 C 1018 1873.108, 1018.419 1871.060, 1018.931 1869.797 C 1019.443 1868.534, 1020.126 1866.263, 1020.450 1864.750 C 1021.032 1862.027, 1021.117 1862, 1029.067 1862 C 1038.183 1862, 1036.750 1862.964, 1048.768 1848.744 C 1052.373 1844.479, 1055.469 1841.136, 1055.649 1841.316 C 1055.829 1841.495, 1056.834 1845.660, 1057.883 1850.571 C 1058.932 1855.482, 1060.563 1863.100, 1061.508 1867.500 C 1064.174 1879.911, 1062.663 1879, 1080.567 1879 C 1098.007 1879, 1097.908 1879.046, 1096.124 1871.794 C 1095.543 1869.432, 1094.128 1863.675, 1092.980 1859 C 1091.831 1854.325, 1090.054 1847.125, 1089.031 1843 C 1088.008 1838.875, 1086.190 1831.450, 1084.992 1826.500 C 1083.793 1821.550, 1082.195 1815.025, 1081.441 1812 C 1077.637 1796.743, 1075.742 1788.910, 1074.426 1783 C 1073.629 1779.425, 1072.576 1775.375, 1072.086 1774 C 1071.595 1772.625, 1069.983 1766.100, 1068.504 1759.500 C 1067.024 1752.900, 1065.218 1745.475, 1064.490 1743 C 1063.762 1740.525, 1062.865 1736.716, 1062.497 1734.535 C 1062.130 1732.354, 1061.181 1729.316, 1060.389 1727.785 L 1058.949 1725 1040.453 1725 C 1022.225 1725, 1021.943 1725.033, 1020.991 1727.250 M 1170 1725.615 C 1161.987 1726.556, 1149.317 1729.360, 1145.061 1731.134 C 1127.981 1738.250, 1114.529 1750.719, 1107.081 1766.335 C 1101.248 1778.565, 1099.643 1786.800, 1099.643 1804.500 C 1099.643 1818.051, 1099.987 1821.724, 1101.892 1828.500 C 1108.021 1850.307, 1121.255 1866.558, 1140.135 1875.463 C 1149.393 1879.830, 1156.988 1881.818, 1168.750 1882.955 C 1187.558 1884.773, 1197.972 1881.306, 1209.709 1869.321 L 1216.918 1861.960 1217.209 1870.230 L 1217.500 1878.500 1232.493 1878.778 C 1245.715 1879.023, 1247.634 1878.853, 1248.743 1877.337 C 1249.703 1876.024, 1249.997 1866.265, 1249.986 1836.059 C 1249.979 1814.301, 1249.701 1795.487, 1249.370 1794.250 L 1248.767 1792 1218.883 1792 L 1189 1792 1189 1805 L 1189 1818 1203 1818 L 1217 1818 1217 1824.560 C 1217 1831.072, 1216.963 1831.159, 1211.930 1836.481 C 1201.216 1847.809, 1184.303 1852.391, 1165.817 1848.974 C 1154.028 1846.795, 1141.954 1837.903, 1136.657 1827.500 C 1133.594 1821.485, 1130.658 1806.550, 1131.504 1801.291 C 1134.844 1780.536, 1141.471 1770.180, 1155.729 1763.435 C 1171.358 1756.041, 1194.334 1758.114, 1207.330 1768.090 C 1211.226 1771.081, 1212.764 1772.805, 1217.511 1779.500 C 1218.891 1781.447, 1219.295 1781.310, 1232.714 1774.332 C 1243.045 1768.961, 1246.581 1766.637, 1246.822 1765.061 C 1247.260 1762.203, 1239.474 1751.481, 1232.268 1745.020 C 1222.409 1736.180, 1210.673 1730.341, 1197.237 1727.590 C 1189.300 1725.964, 1175.528 1724.966, 1170 1725.615 M 1293.122 1727.750 C 1292.505 1729.263, 1291.567 1732.525, 1291.036 1735 C 1289.786 1740.827, 1283.400 1766.740, 1279.329 1782.500 C 1277.770 1788.536, 1276.497 1793.750, 1272.983 1808.500 C 1271.934 1812.900, 1270.121 1820.325, 1268.952 1825 C 1267.783 1829.675, 1266.234 1835.975, 1265.509 1839 C 1263.547 1847.182, 1261.077 1857.041, 1259.997 1861 C 1257.624 1869.695, 1257.011 1872.717, 1257.006 1875.750 L 1257 1879 1272.981 1879 L 1288.962 1879 1289.562 1876.250 C 1289.892 1874.737, 1290.548 1872.375, 1291.019 1871 C 1291.490 1869.625, 1292.164 1867.037, 1292.517 1865.250 L 1293.159 1862 1301.395 1862 C 1310.715 1862, 1308.559 1863.479, 1321.492 1848.220 C 1324.787 1844.332, 1327.651 1841.317, 1327.855 1841.521 C 1328.059 1841.725, 1328.851 1844.729, 1329.615 1848.196 C 1331.565 1857.043, 1334.959 1871.931, 1335.840 1875.500 L 1336.580 1878.500 1352.929 1878.775 L 1369.279 1879.051 1368.639 1874.275 C 1368.286 1871.649, 1367.358 1867.250, 1366.575 1864.500 C 1365.792 1861.750, 1364.398 1856.350, 1363.476 1852.500 C 1362.555 1848.650, 1361.194 1843.025, 1360.454 1840 C 1359.713 1836.975, 1358.393 1831.350, 1357.522 1827.500 C 1356.650 1823.650, 1355.503 1819.150, 1354.973 1817.500 C 1354.443 1815.850, 1352.880 1809.550, 1351.500 1803.500 C 1350.120 1797.450, 1348.318 1790.025, 1347.496 1787 C 1345.782 1780.693, 1340.735 1760.268, 1337.982 1748.500 C 1334.174 1732.218, 1333.229 1728.460, 1332.516 1726.750 C 1331.858 1725.171, 1329.947 1725, 1313.014 1725 L 1294.243 1725 1293.122 1727.750 M 1421.490 1726.171 C 1421.211 1726.902, 1421.099 1761.475, 1421.241 1803 L 1421.500 1878.500 1437 1878.500 L 1452.500 1878.500 1453 1847.500 C 1453.275 1830.450, 1453.792 1816.950, 1454.148 1817.500 C 1454.505 1818.050, 1457.024 1822.775, 1459.747 1828 C 1465.097 1838.265, 1473.592 1854.442, 1480.753 1868 C 1483.222 1872.675, 1485.703 1877.074, 1486.265 1877.776 C 1487.029 1878.729, 1490.978 1878.982, 1501.894 1878.776 C 1515.852 1878.512, 1516.487 1878.411, 1516.213 1876.500 C 1516.055 1875.400, 1510.771 1864.303, 1504.471 1851.840 L 1493.017 1829.180 1497.594 1826.498 C 1507.385 1820.760, 1516.519 1808.268, 1519.889 1796.008 C 1521.925 1788.600, 1521.899 1770.248, 1519.842 1763 C 1517.318 1754.105, 1513.010 1746.935, 1506.023 1740 C 1499.329 1733.356, 1494.342 1730.280, 1485.500 1727.341 C 1478.683 1725.076, 1422.302 1724.045, 1421.490 1726.171 M 1862.460 1726.250 C 1862.198 1726.938, 1862.099 1761.475, 1862.241 1803 L 1862.500 1878.500 1878 1878.500 L 1893.500 1878.500 1894 1848.500 L 1894.500 1818.500 1914 1818 L 1933.500 1817.500 1933.780 1804.771 L 1934.059 1792.042 1914.280 1791.771 L 1894.500 1791.500 1894.227 1772.573 C 1894.019 1758.100, 1894.254 1753.456, 1895.227 1752.838 C 1895.927 1752.394, 1907.638 1752.024, 1921.250 1752.015 L 1946 1752 1946 1738.500 L 1946 1725 1904.469 1725 C 1872.165 1725, 1862.831 1725.278, 1862.460 1726.250 M 1958.682 1726.250 C 1957.103 1727.410, 1957 1732.908, 1957.241 1803 L 1957.500 1878.500 1972.365 1878.777 C 1982.475 1878.966, 1987.672 1878.687, 1988.615 1877.905 C 1989.773 1876.944, 1990 1864.469, 1990 1801.913 C 1990 1728.942, 1989.952 1727.044, 1988.066 1726.035 C 1985.224 1724.515, 1960.800 1724.693, 1958.682 1726.250 M 2010.244 1725.828 C 2009.250 1726.459, 2009.041 1742.475, 2009.244 1802.563 L 2009.500 1878.500 2025 1878.500 L 2040.500 1878.500 2041 1828.500 C 2041.327 1795.761, 2041.845 1778.639, 2042.500 1778.903 C 2043.050 1779.124, 2052.838 1787.604, 2064.250 1797.746 L 2085 1816.186 2085.015 1846.343 C 2085.024 1862.929, 2085.395 1877.075, 2085.841 1877.777 C 2086.454 1878.743, 2090.406 1878.987, 2102.076 1878.777 L 2117.500 1878.500 2117.759 1803 C 2118 1732.908, 2117.897 1727.410, 2116.318 1726.250 C 2115.162 1725.400, 2110.421 1725, 2101.500 1725 C 2092.570 1725, 2087.845 1725.399, 2086.699 1726.250 C 2085.206 1727.359, 2084.986 1730.524, 2084.758 1754.218 L 2084.500 1780.935 2068 1766.376 C 2058.925 1758.368, 2049.137 1749.610, 2046.250 1746.913 L 2041 1742.011 2041 1734.112 C 2041 1727.833, 2040.676 1726.090, 2039.418 1725.607 C 2037.075 1724.708, 2011.706 1724.900, 2010.244 1725.828 M 2202.500 1725.580 C 2177.830 1728.845, 2165.581 1734.267, 2151.980 1747.940 C 2139.820 1760.164, 2133.735 1773.791, 2131.787 1793.165 C 2128.474 1826.096, 2138.190 1851.946, 2160.058 1868.385 C 2177.499 1881.495, 2205.223 1886.877, 2225.176 1881.025 C 2230.464 1879.474, 2240.287 1871.904, 2244.704 1865.977 L 2248.500 1860.882 2249 1869.691 L 2249.500 1878.500 2265 1878.500 L 2280.500 1878.500 2280.761 1835.235 L 2281.021 1791.971 2250.761 1792.235 L 2220.500 1792.500 2220.500 1805 L 2220.500 1817.500 2234.750 1817.777 L 2249 1818.055 2249 1824.502 L 2249 1830.949 2243.250 1836.799 C 2232.082 1848.162, 2216.182 1852.369, 2197.474 1848.911 C 2183.496 1846.327, 2171.034 1835.801, 2166.364 1822.636 C 2160.279 1805.482, 2164.146 1784.242, 2175.580 1772.018 C 2194.023 1752.300, 2234.352 1755.418, 2248.075 1777.621 C 2249.223 1779.480, 2250.599 1781, 2251.133 1781 C 2251.666 1781, 2258.154 1777.755, 2265.551 1773.790 C 2274.381 1769.056, 2279 1766.019, 2279 1764.946 C 2279 1764.048, 2276.766 1760.133, 2274.037 1756.246 C 2263.641 1741.443, 2249.034 1732.158, 2229 1727.618 C 2222.068 1726.047, 2207.461 1724.924, 2202.500 1725.580 M 2434.571 1726.571 C 2433.171 1727.972, 2433.001 1736.117, 2433.014 1801.321 C 2433.021 1841.570, 2433.302 1875.524, 2433.637 1876.775 C 2434.242 1879.033, 2434.357 1879.048, 2449.873 1878.775 L 2465.500 1878.500 2465.756 1803.110 C 2465.943 1748.247, 2465.705 1727.350, 2464.884 1726.360 C 2463.125 1724.241, 2436.718 1724.425, 2434.571 1726.571 M 2485.460 1726.250 C 2485.198 1726.938, 2485.099 1761.475, 2485.241 1803 L 2485.500 1878.500 2516.880 1878.764 C 2539.595 1878.956, 2548.647 1878.708, 2549.661 1877.867 C 2550.746 1876.966, 2550.998 1874.092, 2550.780 1865.102 L 2550.500 1853.500 2534.250 1853.225 L 2518 1852.950 2518 1790.557 C 2518 1756.241, 2517.727 1727.452, 2517.393 1726.582 C 2516.876 1725.234, 2514.504 1725, 2501.362 1725 C 2489.943 1725, 2485.813 1725.325, 2485.460 1726.250 M 2559.460 1726.250 C 2559.198 1726.938, 2559.099 1761.475, 2559.241 1803 L 2559.500 1878.500 2601.228 1878.761 L 2642.956 1879.022 2643.519 1876.761 C 2643.829 1875.517, 2643.951 1869.550, 2643.791 1863.500 L 2643.500 1852.500 2617.500 1852 L 2591.500 1851.500 2591.500 1832 L 2591.500 1812.500 2611.250 1812.229 L 2631 1811.958 2631 1799 L 2631 1786.042 2611.250 1785.771 L 2591.500 1785.500 2591.500 1769 L 2591.500 1752.500 2617.500 1752 L 2643.500 1751.500 2643.791 1740.500 C 2643.951 1734.450, 2643.830 1728.487, 2643.522 1727.250 L 2642.962 1725 2601.450 1725 C 2569.161 1725, 2559.831 1725.278, 2559.460 1726.250 M 2699.500 1725.633 C 2678.517 1728.686, 2665.947 1736.589, 2659.151 1751 C 2656.816 1755.951, 2656.554 1757.697, 2656.530 1768.500 C 2656.504 1779.879, 2656.657 1780.806, 2659.501 1786.409 C 2665.435 1798.103, 2677.459 1806.547, 2699.577 1814.553 C 2722.593 1822.885, 2729 1827.990, 2729 1838 C 2729 1845.566, 2724.480 1851.111, 2716.728 1853.053 C 2709.184 1854.943, 2696.166 1853.870, 2690.355 1850.880 C 2684.468 1847.850, 2679.433 1841.524, 2678.496 1835.979 C 2678.114 1833.714, 2677.219 1831.638, 2676.508 1831.365 C 2675.797 1831.092, 2669.946 1833.373, 2663.505 1836.434 C 2657.065 1839.495, 2651.439 1842, 2651.005 1842 C 2648.739 1842, 2649.495 1845.809, 2653.189 1853.015 C 2660.453 1867.182, 2675.494 1878.735, 2690.799 1881.903 C 2698.361 1883.468, 2714.387 1883.232, 2722 1881.443 C 2737.603 1877.776, 2752.031 1866.938, 2758.058 1854.357 C 2760.835 1848.560, 2761 1847.504, 2761 1835.585 C 2761 1823.864, 2760.797 1822.508, 2758.176 1816.728 C 2756.242 1812.464, 2753.640 1808.951, 2749.926 1805.590 C 2743.973 1800.203, 2731.388 1793.812, 2723.496 1792.169 C 2715.359 1790.474, 2699.778 1785.019, 2695.906 1782.508 C 2690.667 1779.112, 2688.600 1774.101, 2689.376 1766.678 C 2690.502 1755.900, 2696.531 1751.226, 2707.968 1752.263 C 2711.090 1752.547, 2715.502 1753.726, 2717.773 1754.884 C 2721.793 1756.935, 2729 1765.047, 2729 1767.521 C 2729 1768.200, 2729.655 1769.299, 2730.456 1769.964 C 2731.656 1770.960, 2733.856 1769.461, 2742.956 1761.449 C 2750.342 1754.947, 2754 1751.038, 2754 1749.651 C 2754 1746.461, 2741.037 1734.348, 2734.555 1731.482 C 2725.008 1727.260, 2707.917 1724.408, 2699.500 1725.633 M 1588.511 1727.621 C 1566.655 1731.959, 1547.285 1746.055, 1538.521 1764 C 1537.044 1767.025, 1535.389 1770.335, 1534.843 1771.355 C 1531.136 1778.291, 1528.320 1801.634, 1529.739 1813.667 C 1530.888 1823.412, 1533.306 1834.768, 1534.843 1837.645 C 1535.389 1838.665, 1537.055 1841.975, 1538.546 1845 C 1546.156 1860.441, 1562.052 1873.759, 1579.500 1879.313 C 1592.325 1883.396, 1612.812 1884.383, 1627.164 1881.610 C 1635.884 1879.925, 1647.429 1875.379, 1653.885 1871.088 C 1666.229 1862.883, 1678.711 1846.369, 1681.565 1834.465 C 1681.956 1832.834, 1682.633 1831.041, 1683.070 1830.479 C 1684.838 1828.207, 1686.248 1811.066, 1685.699 1798.500 C 1684.886 1779.853, 1680.745 1767.374, 1671.173 1754.728 C 1660.013 1739.984, 1645.388 1731.073, 1626.500 1727.510 C 1616.733 1725.667, 1598.079 1725.722, 1588.511 1727.621 M 1751.500 1727.613 C 1726.093 1732.620, 1705.415 1750.485, 1697.232 1774.500 C 1696.107 1777.800, 1694.401 1785.748, 1693.439 1792.161 C 1691.776 1803.260, 1691.776 1804.419, 1693.438 1816.161 C 1694.398 1822.948, 1696.104 1831.200, 1697.228 1834.500 C 1703.672 1853.417, 1719.376 1870.010, 1737.993 1877.575 C 1756.168 1884.960, 1784.281 1885.105, 1803.507 1877.912 C 1826.828 1869.186, 1843.943 1847.943, 1848.152 1822.500 C 1849.857 1812.189, 1850.321 1798.201, 1849.146 1792.500 C 1848.580 1789.750, 1847.611 1784.800, 1846.993 1781.500 C 1845.457 1773.300, 1837.100 1756.728, 1831.061 1749.906 C 1824.611 1742.621, 1812.875 1734.791, 1802.728 1731.004 C 1789.669 1726.130, 1766.728 1724.612, 1751.500 1727.613 M 2327.667 1726.667 C 2327.300 1727.033, 2327 1732.835, 2327 1739.560 C 2327 1749.786, 2327.259 1751.885, 2328.582 1752.393 C 2329.452 1752.727, 2336.877 1753, 2345.082 1753 L 2360 1753 2360 1815.893 C 2360 1872.321, 2360.163 1878.848, 2361.582 1879.393 C 2364.264 1880.422, 2389.014 1880.063, 2391.066 1878.965 C 2392.946 1877.958, 2393 1876.198, 2393 1815.465 L 2393 1753 2407.929 1753 C 2420.167 1753, 2423.140 1752.717, 2424.429 1751.429 C 2425.647 1750.210, 2426 1747.615, 2426 1739.863 C 2426 1734.366, 2425.534 1728.998, 2424.965 1727.934 C 2423.964 1726.063, 2422.365 1726, 2376.131 1726 C 2349.843 1726, 2328.033 1726.300, 2327.667 1726.667 M 1453.235 1781.250 L 1453.500 1810.500 1460.979 1810.798 C 1470.172 1811.165, 1474.973 1809.506, 1480.640 1804.003 C 1487.480 1797.362, 1488.500 1794.302, 1488.500 1780.429 C 1488.500 1768.985, 1488.344 1768.055, 1485.500 1762.506 C 1481.114 1753.951, 1476.997 1752, 1463.328 1752 L 1452.970 1752 1453.235 1781.250 M 1594.459 1760.329 C 1569.547 1766.708, 1556.730 1790.556, 1563.482 1817.965 C 1565.795 1827.354, 1567.942 1831.137, 1574.773 1837.853 C 1583.026 1845.969, 1590.560 1849.091, 1603.478 1849.750 C 1623.463 1850.770, 1635.367 1846.139, 1644.771 1833.687 C 1651.631 1824.603, 1653.500 1818.354, 1653.500 1804.500 C 1653.500 1794.091, 1653.177 1791.704, 1651.063 1786.500 C 1646.379 1774.967, 1637.565 1766.253, 1626.240 1761.961 C 1619.081 1759.247, 1602.088 1758.375, 1594.459 1760.329 M 1759 1760.098 C 1752.357 1761.395, 1742.703 1766.491, 1737.805 1771.285 C 1727.906 1780.976, 1723.591 1795.988, 1725.860 1812.847 C 1728.387 1831.627, 1741.154 1845.569, 1759.047 1849.089 C 1762.702 1849.808, 1769.244 1850.071, 1775.522 1849.750 C 1784.390 1849.298, 1786.909 1848.763, 1792.492 1846.151 C 1804.551 1840.507, 1813.616 1828.940, 1815.974 1816.183 C 1822.144 1782.806, 1802.958 1758.619, 1770.701 1759.110 C 1766.740 1759.170, 1761.475 1759.615, 1759 1760.098 M 1040 1776.718 C 1040 1777.847, 1039.343 1780.960, 1038.540 1783.635 C 1037.737 1786.311, 1036.344 1792.100, 1035.445 1796.500 C 1032.120 1812.763, 1027.292 1834.076, 1026.414 1836.362 C 1025.850 1837.833, 1027.280 1838, 1040.460 1838 C 1053.964 1838, 1055.094 1837.860, 1054.623 1836.250 C 1053.987 1834.079, 1045.358 1795.478, 1042.989 1784.206 C 1041.253 1775.949, 1040 1772.810, 1040 1776.718 M 1311.167 1780.730 C 1310.510 1783.904, 1309.052 1790.550, 1307.926 1795.500 C 1303.308 1815.797, 1299.003 1835.934, 1299.001 1837.250 C 1299.001 1837.662, 1305.300 1838, 1313 1838 C 1320.700 1838, 1326.999 1837.888, 1326.999 1837.750 C 1326.995 1836.989, 1321.908 1813.572, 1318.037 1796.500 C 1316.915 1791.550, 1315.484 1785.025, 1314.857 1782 C 1314.231 1778.975, 1313.413 1776.154, 1313.039 1775.730 C 1312.666 1775.307, 1311.823 1777.557, 1311.167 1780.730 M 849.677 1776.713 C 849.298 1777.326, 848.295 1781.129, 847.447 1785.164 C 846.599 1789.199, 845.048 1796.325, 844 1801 C 842.952 1805.675, 841.426 1812.650, 840.608 1816.500 C 839.791 1820.350, 838.420 1826.182, 837.561 1829.460 C 836.702 1832.738, 836 1836.001, 836 1836.710 C 836 1837.702, 839.236 1838, 850 1838 C 857.700 1838, 864.001 1837.662, 864.002 1837.250 C 864.003 1836.604, 851.347 1779.160, 850.628 1776.549 C 850.484 1776.026, 850.056 1776.100, 849.677 1776.713" stroke="none" fill="#f38310" fill-rule="evenodd"/><path d="M 1817.500 995.049 C 1807.050 996.026, 1788.375 997.784, 1776 998.954 C 1763.625 1000.125, 1746.075 1001.729, 1737 1002.519 C 1710.275 1004.847, 1709.640 1004.930, 1708.371 1006.243 C 1707.702 1006.934, 1703.914 1013.800, 1699.953 1021.500 C 1686.363 1047.915, 1679.775 1060.501, 1679.015 1061.500 C 1678.596 1062.050, 1673.852 1071.050, 1668.473 1081.500 C 1663.094 1091.950, 1657.034 1103.650, 1655.007 1107.500 C 1645.198 1126.129, 1640.667 1134.587, 1640.009 1135.500 C 1637.860 1138.482, 1638.423 1141.177, 1642.761 1148.670 C 1647.066 1156.108, 1648.877 1159.317, 1652.956 1166.738 C 1653.935 1168.519, 1655.196 1170.544, 1655.759 1171.238 C 1656.322 1171.932, 1658.914 1176.550, 1661.519 1181.500 C 1667.366 1192.608, 1669.762 1197.059, 1670.937 1199 C 1676.081 1207.491, 1693.952 1239.296, 1697.542 1246.347 C 1700.144 1251.459, 1703.577 1255.100, 1705.206 1254.474 C 1705.932 1254.196, 1707.159 1252.513, 1707.933 1250.734 C 1708.707 1248.955, 1709.610 1247.275, 1709.940 1247 C 1710.270 1246.725, 1711.099 1245.375, 1711.782 1244 C 1713.019 1241.508, 1715.356 1237.153, 1728.684 1212.500 C 1732.549 1205.350, 1737.864 1195.450, 1740.494 1190.500 C 1743.124 1185.550, 1747.071 1178.125, 1749.265 1174 C 1751.458 1169.875, 1754.043 1165.150, 1755.008 1163.500 C 1755.974 1161.850, 1760.493 1153.525, 1765.050 1145 C 1776.931 1122.774, 1778.948 1119.038, 1781.786 1114 C 1783.180 1111.525, 1786.104 1106.125, 1788.285 1102 C 1792.657 1093.730, 1806.558 1068.371, 1808.019 1066 C 1809.054 1064.321, 1813.132 1056.819, 1816.718 1050 C 1818.019 1047.525, 1820.228 1043.475, 1821.626 1041 C 1823.024 1038.525, 1826.405 1032.225, 1829.140 1027 C 1831.875 1021.775, 1834.531 1016.825, 1835.042 1016 C 1839.406 1008.962, 1845.787 995.608, 1845.341 994.446 C 1844.659 992.668, 1842.432 992.717, 1817.500 995.049 M 1857.648 1008.250 C 1856.096 1011.138, 1852.384 1018.110, 1849.400 1023.744 C 1846.415 1029.378, 1841.954 1037.403, 1839.486 1041.577 C 1837.019 1045.750, 1835 1049.325, 1835 1049.521 C 1835 1049.914, 1827.837 1063.237, 1810.010 1096 C 1798.754 1116.687, 1794.090 1125.356, 1793.331 1127 C 1792.950 1127.825, 1790.185 1133, 1787.186 1138.500 C 1784.188 1144, 1780.160 1151.425, 1778.237 1155 C 1776.313 1158.575, 1772.998 1164.504, 1770.869 1168.174 C 1768.741 1171.845, 1767 1175.090, 1767 1175.384 C 1767 1175.679, 1763.400 1182.426, 1759 1190.378 C 1754.600 1198.330, 1751 1205.323, 1751 1205.918 C 1751 1206.513, 1750.618 1207, 1750.152 1207 C 1749.685 1207, 1748.571 1208.688, 1747.676 1210.750 C 1746.781 1212.813, 1744.449 1217.200, 1742.494 1220.500 C 1740.540 1223.800, 1738.286 1227.930, 1737.487 1229.677 C 1736.688 1231.424, 1734.670 1235.167, 1733.003 1237.995 C 1730.184 1242.776, 1722.847 1256.139, 1713.234 1274 C 1711.014 1278.125, 1708.074 1283.467, 1706.700 1285.870 L 1704.204 1290.240 1702.446 1287.370 C 1701.479 1285.792, 1699.633 1282.822, 1698.344 1280.771 C 1697.055 1278.721, 1696 1276.796, 1696 1276.494 C 1696 1276.192, 1693.366 1271.345, 1690.148 1265.723 C 1676.982 1242.726, 1669 1228.150, 1669 1227.106 C 1669 1226.498, 1668.602 1226, 1668.117 1226 C 1667.631 1226, 1666.976 1225.213, 1666.661 1224.250 C 1666.346 1223.287, 1664.882 1220.475, 1663.407 1218 C 1660.685 1213.429, 1657.769 1208.160, 1650.896 1195.395 C 1648.792 1191.488, 1645.034 1184.963, 1642.545 1180.895 C 1640.055 1176.828, 1637.226 1171.925, 1636.259 1170 C 1635.292 1168.075, 1634.266 1166.275, 1633.980 1166 C 1633.694 1165.725, 1631.341 1161.343, 1628.750 1156.262 C 1626.160 1151.182, 1622.811 1145.107, 1621.308 1142.762 C 1617.832 1137.341, 1616.100 1134.278, 1611.260 1125 C 1609.108 1120.875, 1605.856 1115.025, 1604.034 1112 C 1599.970 1105.254, 1597.616 1101.135, 1593.746 1094 C 1592.105 1090.975, 1588.177 1084, 1585.017 1078.500 C 1581.857 1073, 1577.592 1065.237, 1575.540 1061.250 C 1573.488 1057.263, 1571.209 1054, 1570.477 1054 C 1569.744 1054, 1568.179 1055.237, 1566.998 1056.750 C 1565.817 1058.263, 1557.572 1066.932, 1548.675 1076.015 C 1523.636 1101.579, 1511 1114.783, 1511 1115.384 C 1511 1116.212, 1501.656 1135.137, 1499.833 1138 C 1498.957 1139.375, 1497.475 1142.575, 1496.538 1145.110 C 1494.839 1149.710, 1494.841 1149.733, 1497.616 1155.110 C 1499.146 1158.075, 1500.646 1160.725, 1500.949 1161 C 1501.252 1161.275, 1502.923 1164.200, 1504.663 1167.500 C 1506.402 1170.800, 1509.043 1175.750, 1510.532 1178.500 C 1512.021 1181.250, 1515.378 1187.550, 1517.992 1192.500 C 1520.606 1197.450, 1524.376 1204.200, 1526.370 1207.500 C 1528.364 1210.800, 1529.996 1213.802, 1529.997 1214.171 C 1529.999 1214.540, 1532.305 1218.815, 1535.122 1223.671 C 1537.939 1228.527, 1541.084 1234.300, 1542.111 1236.500 C 1543.137 1238.700, 1545.312 1242.750, 1546.943 1245.500 C 1548.575 1248.250, 1551.520 1253.650, 1553.489 1257.500 C 1555.457 1261.350, 1558.097 1266.300, 1559.354 1268.500 C 1560.612 1270.700, 1564.931 1278.566, 1568.953 1285.980 C 1572.975 1293.394, 1577.251 1301.044, 1578.456 1302.980 C 1579.660 1304.916, 1582.166 1309.650, 1584.024 1313.500 C 1585.882 1317.350, 1589.285 1323.688, 1591.586 1327.585 C 1593.888 1331.482, 1597.934 1338.907, 1600.579 1344.085 C 1603.223 1349.263, 1606.666 1355.685, 1608.230 1358.357 C 1609.794 1361.028, 1613.827 1368.453, 1617.192 1374.857 C 1620.558 1381.260, 1624.050 1387.625, 1624.954 1389 C 1625.858 1390.375, 1627.144 1392.625, 1627.811 1394 C 1628.479 1395.375, 1630.172 1398.525, 1631.573 1401 C 1632.975 1403.475, 1636.962 1410.900, 1640.434 1417.500 C 1643.907 1424.100, 1648.075 1431.750, 1649.698 1434.500 C 1651.321 1437.250, 1655.493 1444.900, 1658.970 1451.500 C 1662.447 1458.100, 1666.988 1466.650, 1669.062 1470.500 C 1671.136 1474.350, 1673.883 1479.502, 1675.167 1481.949 C 1676.450 1484.396, 1678.279 1487.096, 1679.231 1487.949 C 1680.819 1489.371, 1682.588 1492.434, 1688.216 1503.500 C 1689.335 1505.700, 1690.637 1508.175, 1691.111 1509 C 1691.584 1509.825, 1693.791 1513.650, 1696.014 1517.500 C 1698.237 1521.350, 1700.328 1525.753, 1700.660 1527.286 C 1701.935 1533.164, 1707.146 1532.442, 1708.634 1526.180 C 1709.567 1522.251, 1715.902 1511.154, 1717.826 1510.077 C 1718.738 1509.567, 1719.158 1508.825, 1718.760 1508.427 C 1717.956 1507.623, 1722.871 1498, 1724.086 1498 C 1724.884 1498, 1727.801 1493.073, 1735.037 1479.500 C 1737.383 1475.100, 1740.257 1469.925, 1741.424 1468 C 1742.591 1466.075, 1744.209 1463.150, 1745.021 1461.500 C 1745.833 1459.850, 1746.748 1458.275, 1747.055 1458 C 1747.362 1457.725, 1748.205 1456.037, 1748.928 1454.250 C 1749.651 1452.463, 1750.638 1451, 1751.121 1451 C 1751.605 1451, 1752 1450.499, 1752 1449.887 C 1752 1449.275, 1755.759 1442.187, 1760.353 1434.137 C 1767.609 1421.422, 1772.497 1412.698, 1782.002 1395.500 C 1783.218 1393.300, 1784.563 1391.050, 1784.992 1390.500 C 1785.420 1389.950, 1787.784 1385.675, 1790.246 1381 C 1792.708 1376.325, 1795.624 1370.925, 1796.727 1369 C 1797.830 1367.075, 1802.857 1358.300, 1807.897 1349.500 C 1812.937 1340.700, 1817.582 1332.600, 1818.220 1331.500 C 1818.857 1330.400, 1820.200 1327.925, 1821.204 1326 C 1822.207 1324.075, 1823.469 1321.825, 1824.006 1321 C 1825.899 1318.097, 1836 1300.100, 1836 1299.632 C 1836 1299.371, 1838.300 1295.185, 1841.110 1290.329 C 1843.921 1285.473, 1846.620 1280.600, 1847.108 1279.500 C 1847.596 1278.400, 1848.433 1276.825, 1848.969 1276 C 1849.504 1275.175, 1852.903 1269.325, 1856.522 1263 C 1860.142 1256.675, 1863.514 1250.825, 1864.018 1250 C 1864.521 1249.175, 1866.238 1246.025, 1867.833 1243 C 1869.429 1239.975, 1871.755 1235.700, 1873.003 1233.500 C 1874.251 1231.300, 1876.846 1226.575, 1878.770 1223 C 1880.695 1219.425, 1884.215 1213.275, 1886.594 1209.333 C 1888.973 1205.391, 1893.019 1198.191, 1895.586 1193.333 C 1899.929 1185.112, 1903.483 1178.759, 1926.387 1138.277 C 1931.124 1129.904, 1935 1122.212, 1935 1121.182 C 1935 1120.152, 1933.287 1116.653, 1931.194 1113.405 C 1929.101 1110.157, 1926.289 1105.505, 1924.944 1103.067 C 1922.505 1098.643, 1912.719 1082.330, 1905.897 1071.317 C 1903.916 1068.117, 1898.140 1058.525, 1893.063 1050 C 1880 1028.066, 1870.461 1012.196, 1867.368 1007.250 C 1863.643 1001.294, 1861.255 1001.540, 1857.648 1008.250 M 1472.838 1158.711 C 1468.398 1159.084, 1467.712 1159.588, 1458.437 1169.301 C 1453.081 1174.911, 1441.454 1186.950, 1432.599 1196.056 C 1402.146 1227.373, 1400 1229.700, 1400 1231.402 C 1400 1232.341, 1403.025 1238.822, 1406.722 1245.805 C 1414.216 1259.958, 1419.060 1269.196, 1426.588 1283.699 C 1429.387 1289.089, 1433.611 1297.100, 1435.974 1301.500 C 1446.129 1320.404, 1454.272 1335.904, 1467.495 1361.500 C 1472.427 1371.047, 1477.125 1379.969, 1488.294 1401 C 1491.070 1406.225, 1494.905 1413.650, 1496.817 1417.500 C 1498.730 1421.350, 1500.618 1424.725, 1501.013 1425 C 1501.407 1425.275, 1502.071 1426.625, 1502.488 1428 C 1502.904 1429.375, 1503.600 1430.950, 1504.033 1431.500 C 1504.467 1432.050, 1507.168 1437, 1510.036 1442.500 C 1512.903 1448, 1517.047 1455.875, 1519.245 1460 C 1521.443 1464.125, 1525.829 1472.450, 1528.992 1478.500 C 1532.155 1484.550, 1536.264 1492.402, 1538.122 1495.950 C 1539.980 1499.497, 1542.287 1503.210, 1543.250 1504.200 C 1544.213 1505.190, 1545 1506.900, 1545 1508 C 1545 1509.100, 1545.387 1510, 1545.861 1510 C 1546.751 1510, 1549.511 1515.252, 1552.627 1522.874 C 1553.611 1525.280, 1555.560 1528.720, 1556.958 1530.518 C 1558.356 1532.317, 1559.962 1534.566, 1560.528 1535.515 C 1561.926 1537.865, 1583.227 1539.385, 1616.500 1539.509 C 1630.250 1539.561, 1651.562 1540.182, 1663.861 1540.891 C 1679.250 1541.777, 1686.544 1541.856, 1687.255 1541.145 C 1688.546 1539.854, 1686.643 1534.892, 1683.909 1532.417 C 1682.859 1531.467, 1682 1530.311, 1682 1529.847 C 1682 1529.384, 1679.738 1524.931, 1676.973 1519.951 C 1674.208 1514.971, 1672.192 1510.498, 1672.494 1510.010 C 1672.795 1509.522, 1672.407 1508.758, 1671.631 1508.311 C 1669.878 1507.304, 1663.761 1496.013, 1653.584 1475 C 1648.570 1464.648, 1643.256 1454.659, 1636.562 1443 C 1634.193 1438.875, 1630.676 1432.297, 1628.747 1428.381 C 1625.139 1421.062, 1620.019 1411.886, 1619.048 1411 C 1618.747 1410.725, 1616.202 1406, 1613.394 1400.500 C 1607.293 1388.551, 1601.038 1376.884, 1599.991 1375.500 C 1599.574 1374.950, 1596.997 1370.225, 1594.264 1365 C 1587.205 1351.508, 1581.871 1341.664, 1580.990 1340.500 C 1580.574 1339.950, 1578.080 1335.225, 1575.448 1330 C 1572.816 1324.775, 1570.392 1320.275, 1570.061 1320 C 1569.730 1319.725, 1568.902 1318.375, 1568.221 1317 C 1565.003 1310.500, 1533.141 1251.390, 1527.580 1241.602 C 1524.648 1236.440, 1518.775 1225.596, 1513.986 1216.500 C 1510.171 1209.253, 1505.641 1200.851, 1499.967 1190.500 C 1498.158 1187.200, 1494.903 1181.125, 1492.733 1177 C 1490.564 1172.875, 1488.351 1168.962, 1487.816 1168.303 C 1487.281 1167.645, 1485.866 1165.170, 1484.672 1162.803 C 1482.328 1158.160, 1481.758 1157.963, 1472.838 1158.711 M 1263 1903.926 C 1261.625 1904.372, 1257.912 1905.494, 1254.750 1906.420 C 1249.401 1907.985, 1249 1908.312, 1249 1911.103 C 1249 1913.554, 1249.563 1914.300, 1252.071 1915.175 C 1253.862 1915.799, 1255.549 1917.313, 1256.116 1918.804 C 1257.060 1921.288, 1256.468 1973.745, 1255.418 1980.678 C 1255.035 1983.203, 1254.341 1983.986, 1252.037 1984.492 C 1248.402 1985.290, 1246.752 1987.224, 1247.173 1990.195 C 1247.498 1992.485, 1247.599 1992.500, 1262.500 1992.500 L 1277.500 1992.500 1277.500 1989.089 C 1277.500 1986.083, 1277.085 1985.538, 1274 1984.496 L 1270.500 1983.314 1270.500 1943.407 L 1270.500 1903.500 1268 1903.307 C 1266.625 1903.201, 1264.375 1903.479, 1263 1903.926 M 1019.821 1906.263 C 1014.135 1907.808, 1012.011 1908.849, 1011.639 1910.272 C 1010.859 1913.253, 1011.947 1914.951, 1015.621 1916.486 L 1019 1917.898 1019 1950.985 L 1019 1984.071 1014.433 1986.029 C 1010.409 1987.753, 1009.904 1988.315, 1010.183 1990.743 L 1010.500 1993.500 1025.750 1993.776 L 1041 1994.052 1041 1990.678 C 1041 1987.670, 1040.566 1987.133, 1037 1985.732 L 1033 1984.161 1033 1968.195 L 1033 1952.230 1035.750 1950.410 C 1037.389 1949.324, 1040.971 1948.426, 1044.618 1948.186 C 1053.590 1947.596, 1054.004 1948.448, 1053.985 1967.473 C 1053.976 1975.738, 1053.634 1983.027, 1053.225 1983.671 C 1052.815 1984.315, 1051.235 1985.154, 1049.714 1985.536 C 1046.493 1986.344, 1044.623 1989.237, 1045.512 1992.038 C 1046.094 1993.872, 1047.109 1994, 1061.067 1994 L 1076 1994 1076 1990.652 C 1076 1987.654, 1075.565 1987.133, 1071.856 1985.675 L 1067.711 1984.047 1068.237 1968.405 C 1068.885 1949.130, 1067.748 1942.287, 1063.134 1937.673 C 1060.223 1934.761, 1059.448 1934.507, 1053.731 1934.584 C 1046.572 1934.680, 1044.349 1935.515, 1037.677 1940.614 L 1032.855 1944.299 1033.005 1925.400 C 1033.088 1915.005, 1033.120 1905.938, 1033.078 1905.250 C 1032.969 1903.502, 1028.812 1903.820, 1019.821 1906.263 M 2446 1906.311 C 2438.860 1908.395, 2438.485 1908.652, 2438.194 1911.654 C 2437.921 1914.465, 2438.261 1914.931, 2441.327 1915.943 C 2443.997 1916.824, 2444.903 1917.767, 2445.383 1920.164 C 2446.121 1923.855, 2446.206 1934.461, 2445.503 1935.164 C 2445.230 1935.437, 2442.641 1935.232, 2439.751 1934.708 C 2428.903 1932.742, 2418.430 1937.155, 2412.096 1946.360 C 2404.327 1957.652, 2403.974 1977.525, 2411.369 1987.293 C 2415.553 1992.820, 2420.048 1994.997, 2427.282 1994.998 C 2433.847 1995, 2438.055 1993.521, 2442.750 1989.563 L 2446 1986.822 2446 1990.442 C 2446 1994.976, 2447.257 1995.492, 2454.689 1994.004 C 2466.922 1991.555, 2468 1991.024, 2468 1987.450 C 2468 1984.619, 2467.510 1984.021, 2464.051 1982.637 C 2460.822 1981.345, 2460.002 1980.458, 2459.557 1977.778 C 2459.257 1975.975, 2459.373 1959.200, 2459.814 1940.500 C 2460.254 1921.800, 2460.428 1905.938, 2460.200 1905.250 C 2459.599 1903.436, 2454.560 1903.813, 2446 1906.311 M 1688 1907.365 C 1675.724 1910.916, 1666.967 1918.596, 1661.094 1930.961 C 1657.537 1938.450, 1657.513 1938.590, 1657.507 1952 C 1657.501 1963.844, 1657.795 1966.277, 1659.905 1971.839 C 1662.998 1979.989, 1670.181 1987.959, 1677.810 1991.706 C 1683.124 1994.315, 1684.327 1994.499, 1696 1994.488 C 1707.762 1994.476, 1708.818 1994.309, 1713.881 1991.655 C 1728.802 1983.832, 1737.251 1968.263, 1737.298 1948.500 C 1737.345 1928.646, 1729.158 1914.672, 1714.079 1908.868 C 1707.247 1906.238, 1694.446 1905.501, 1688 1907.365 M 820.750 1907.749 L 792 1908.031 792 1911.477 C 792 1914.694, 792.283 1914.995, 796.250 1916.011 C 798.587 1916.609, 800.997 1917.262, 801.605 1917.462 C 802.213 1917.662, 802.995 1919.553, 803.344 1921.663 C 804.157 1926.585, 803.969 1976.537, 803.123 1980.495 C 802.558 1983.133, 801.887 1983.616, 797.491 1984.549 C 792.673 1985.571, 792.500 1985.727, 792.500 1989.054 L 792.500 1992.500 825.881 1992.764 C 847.628 1992.935, 859.693 1992.670, 860.499 1992.001 C 861.910 1990.830, 864.578 1969.949, 863.632 1967.483 C 863.253 1966.497, 862.135 1965.985, 860.780 1966.180 C 859.170 1966.411, 857.713 1968.221, 855.526 1972.704 C 850.097 1983.836, 849.822 1984, 836.617 1984 C 820.415 1984, 820.597 1984.192, 820.173 1966.591 L 819.845 1953 833.483 1953 L 847.121 1953 846.810 1949.250 L 846.500 1945.500 833.250 1945.221 L 820 1944.942 820 1930.971 L 820 1917 831.500 1917 C 845.989 1917, 845.559 1916.639, 851.503 1933.750 C 851.742 1934.438, 853.253 1935, 854.862 1935 C 856.470 1935, 857.986 1934.438, 858.231 1933.750 C 858.886 1931.909, 857.476 1909.579, 856.617 1908.189 C 856.213 1907.535, 854.446 1907.105, 852.691 1907.234 C 850.936 1907.363, 836.563 1907.595, 820.750 1907.749 M 1203 1907.954 L 1174.500 1908.500 1174.173 1910.805 C 1173.726 1913.962, 1175.374 1915.637, 1179.605 1916.323 C 1186.245 1917.401, 1186 1916.110, 1186 1950.041 C 1186 1966.978, 1185.735 1981.527, 1185.411 1982.370 C 1185.070 1983.259, 1182.981 1984.180, 1180.444 1984.561 C 1175.453 1985.309, 1173.703 1986.881, 1174.173 1990.195 L 1174.500 1992.500 1208.956 1992.500 L 1243.412 1992.500 1244.874 1984 C 1245.678 1979.325, 1246.372 1973.475, 1246.418 1971 C 1246.494 1966.826, 1246.304 1966.477, 1243.788 1966.187 C 1241.317 1965.902, 1240.803 1966.477, 1237.997 1972.667 C 1232.928 1983.845, 1232.669 1984, 1218.936 1984 C 1202.375 1984, 1202.604 1984.238, 1202.152 1966.589 L 1201.804 1953 1215.402 1953 L 1229 1953 1229 1949 L 1229 1945 1215.500 1945 L 1202 1945 1202 1931 L 1202 1917 1213.365 1917 C 1227.474 1917, 1228.854 1917.813, 1232.077 1928.023 C 1234.113 1934.475, 1234.489 1935, 1237.080 1935 C 1238.621 1935, 1240.100 1934.647, 1240.367 1934.216 C 1240.633 1933.785, 1240.547 1927.597, 1240.176 1920.466 L 1239.500 1907.500 1235.500 1907.454 C 1233.300 1907.429, 1218.675 1907.654, 1203 1907.954 M 1086.114 1909.750 C 1084.955 1910.713, 1083.718 1912.989, 1083.366 1914.808 C 1082.821 1917.629, 1083.043 1918.198, 1084.874 1918.677 C 1089.092 1919.780, 1088.882 1926.866, 1084.492 1931.604 C 1081.609 1934.714, 1081.385 1936.245, 1083.548 1938.040 C 1084.819 1939.094, 1085.697 1939.038, 1088.449 1937.726 C 1097.912 1933.213, 1103.135 1916.135, 1096.944 1909.944 C 1094.498 1907.498, 1088.946 1907.399, 1086.114 1909.750 M 1926.403 1909.393 C 1925.091 1912.812, 1926.485 1916.493, 1929.614 1917.872 C 1932.725 1919.243, 1934.790 1922.071, 1951.501 1947.850 L 1958.210 1958.199 1957.852 1969.449 C 1957.460 1981.798, 1956.575 1984, 1952.003 1984 C 1946.269 1984, 1943.177 1985.158, 1942.582 1987.529 C 1941.198 1993.042, 1941.279 1993.060, 1965.864 1992.768 L 1988.500 1992.500 1988.500 1989.004 C 1988.500 1985.651, 1988.317 1985.475, 1984 1984.679 C 1981.525 1984.222, 1978.541 1983.663, 1977.369 1983.435 C 1974.548 1982.888, 1974.030 1980.501, 1974.014 1967.975 L 1974 1957.451 1981.330 1944.890 C 1993.527 1923.990, 1997.003 1919.154, 2000.706 1917.932 C 2004.312 1916.742, 2006.063 1912.910, 2004.288 1910.095 C 2003.436 1908.744, 2000.851 1908.500, 1987.391 1908.500 L 1971.500 1908.500 1971.182 1911.815 C 1970.748 1916.339, 1972.426 1918, 1977.431 1918 C 1979.734 1918, 1982.386 1918.563, 1983.324 1919.250 C 1984.879 1920.389, 1984.401 1921.613, 1977.963 1933 C 1974.076 1939.875, 1970.543 1945.853, 1970.113 1946.285 C 1969.421 1946.979, 1954.837 1925.346, 1953.306 1921.354 C 1952.511 1919.284, 1954.690 1918.034, 1959.128 1918.015 C 1963.565 1917.997, 1965.237 1916.175, 1964.818 1911.815 L 1964.500 1908.500 1945.727 1908.228 C 1930.146 1908.002, 1926.860 1908.200, 1926.403 1909.393 M 2198 1911.440 C 2198 1914.700, 2198.272 1914.992, 2202.250 1916.011 C 2204.588 1916.609, 2206.994 1917.261, 2207.598 1917.460 C 2208.202 1917.658, 2208.990 1920.627, 2209.348 1924.057 C 2210.175 1931.971, 2210.040 1970.877, 2209.162 1977.495 L 2208.500 1982.490 2203.500 1983.549 C 2198.672 1984.571, 2198.500 1984.726, 2198.500 1988.054 L 2198.500 1991.500 2217.726 1991.772 L 2236.951 1992.043 2237.587 1989.509 C 2238.432 1986.144, 2236.788 1984.382, 2232.111 1983.634 C 2229.993 1983.295, 2227.804 1982.451, 2227.247 1981.759 C 2226.690 1981.067, 2226.069 1974.425, 2225.867 1967 L 2225.500 1953.500 2244 1953.500 L 2262.500 1953.500 2262.771 1959 C 2262.920 1962.025, 2262.695 1968.548, 2262.271 1973.495 L 2261.500 1982.489 2256.500 1983.543 C 2251.679 1984.559, 2251.489 1984.728, 2251.190 1988.298 L 2250.879 1992 2270.323 1992 C 2289.410 1992, 2289.777 1991.960, 2290.332 1989.838 C 2291.205 1986.500, 2289.439 1984.328, 2285.286 1983.634 C 2278.435 1982.489, 2278.688 1983.361, 2278.194 1959.202 C 2277.946 1947.125, 2278.069 1932.914, 2278.465 1927.622 L 2279.187 1918.002 2284.503 1916.456 C 2289.941 1914.875, 2291.499 1913.148, 2290.455 1909.859 C 2289.907 1908.131, 2288.496 1908, 2270.433 1908 L 2251 1908 2251 1911.461 C 2251 1914.696, 2251.278 1914.994, 2255.250 1916.011 C 2257.588 1916.609, 2260.006 1917.266, 2260.625 1917.470 C 2262.060 1917.944, 2263.596 1940.804, 2262.281 1942.119 C 2261.758 1942.642, 2253.533 1942.928, 2243.436 1942.774 L 2225.520 1942.500 2225.856 1931 C 2226.040 1924.675, 2226.656 1918.933, 2227.225 1918.241 C 2227.794 1917.549, 2229.993 1916.705, 2232.111 1916.366 C 2236.606 1915.647, 2238.282 1914.017, 2237.827 1910.805 L 2237.500 1908.500 2217.750 1908.229 L 2198 1907.958 2198 1911.440 M 1689.685 1918.017 C 1684.383 1919.608, 1679.867 1924.062, 1676.631 1930.891 C 1673.635 1937.215, 1673.501 1938.039, 1673.529 1950 C 1673.555 1961.431, 1673.787 1962.996, 1676.247 1968.302 C 1679.574 1975.478, 1682.015 1978.634, 1686.789 1981.933 C 1689.913 1984.092, 1691.607 1984.495, 1697.500 1984.486 C 1703.475 1984.477, 1705.096 1984.072, 1708.574 1981.721 C 1717.098 1975.959, 1721 1966.781, 1721 1952.495 C 1721 1927.211, 1707.730 1912.601, 1689.685 1918.017 M 979.176 1926.188 C 966.531 1939.627, 965.726 1941.587, 972.012 1943.637 L 975.500 1944.775 975.500 1964.137 C 975.500 1985.922, 976.023 1987.997, 982.527 1992.017 C 987.351 1994.998, 997.016 1994.549, 1001.833 1991.119 C 1005.820 1988.280, 1009.321 1981.128, 1009.424 1975.615 C 1009.496 1971.694, 1009.359 1971.500, 1006.504 1971.500 C 1003.891 1971.500, 1003.344 1972.011, 1002.219 1975.500 C 1000.721 1980.146, 998.664 1982, 995.009 1982 C 990.281 1982, 990 1980.867, 990 1961.800 L 990 1944 997.878 1944 C 1006.643 1944, 1008.362 1943.017, 1007.822 1938.310 L 1007.500 1935.500 998.793 1935.212 L 990.086 1934.923 989.793 1927.712 C 989.527 1921.157, 989.300 1920.472, 987.308 1920.188 C 985.701 1919.959, 983.529 1921.562, 979.176 1926.188 M 2066.500 1935.381 C 2056.851 1937.990, 2056 1938.478, 2056 1941.391 C 2056 1942.920, 2057.229 1944.462, 2059.750 1946.096 L 2063.500 1948.528 2063.544 1965.014 C 2063.592 1982.827, 2064.427 1987.173, 2068.543 1991.040 C 2070.394 1992.779, 2072.510 1993.482, 2076.842 1993.795 C 2083.151 1994.251, 2087.861 1992.512, 2093.761 1987.548 C 2095.426 1986.147, 2097.034 1985, 2097.334 1985 C 2097.634 1985, 2098.019 1986.642, 2098.190 1988.649 C 2098.621 1993.721, 2100.601 1994.683, 2106.615 1992.743 C 2109.302 1991.877, 2113.361 1990.677, 2115.635 1990.076 C 2122.078 1988.375, 2122.255 1983.368, 2115.983 1980.238 L 2112.500 1978.500 2112.499 1956.799 C 2112.499 1942.402, 2112.130 1934.730, 2111.403 1934.003 C 2110.608 1933.208, 2107.652 1933.644, 2100.654 1935.585 C 2091.028 1938.256, 2091 1938.272, 2091 1941.451 C 2091 1944.088, 2091.562 1944.886, 2094.250 1946.070 L 2097.500 1947.500 2097.776 1962.116 L 2098.052 1976.731 2093.091 1978.866 C 2086.944 1981.510, 2082.927 1981.574, 2079.861 1979.077 L 2077.500 1977.155 2077.784 1955.907 C 2078.004 1939.453, 2077.778 1934.476, 2076.784 1933.845 C 2076.078 1933.397, 2075.275 1933.073, 2075 1933.124 C 2074.725 1933.176, 2070.900 1934.192, 2066.500 1935.381 M 884.748 1935.366 C 876.158 1938.571, 870.685 1945.722, 869.346 1955.491 C 868.772 1959.679, 868.880 1959.932, 871.526 1960.596 C 875.301 1961.543, 877.386 1959.985, 878.084 1955.694 C 878.766 1951.503, 880.292 1949.418, 884.128 1947.434 C 891.338 1943.705, 897 1946.929, 897 1954.763 L 897 1959.527 888.415 1962.442 C 870.313 1968.588, 864.069 1976.050, 868.385 1986.380 C 870.310 1990.987, 875.547 1994.001, 881.618 1993.996 C 886.593 1993.992, 891.012 1992.025, 895.887 1987.645 C 897.858 1985.874, 898.366 1985.760, 898.801 1986.990 C 899.090 1987.810, 900.569 1989.723, 902.087 1991.240 C 904.393 1993.547, 905.702 1994, 910.055 1994 C 914.705 1994, 915.615 1993.627, 918.539 1990.527 C 920.584 1988.359, 922.069 1985.554, 922.489 1983.063 C 923.299 1978.269, 922.665 1977, 919.460 1977 C 917.721 1977, 916.864 1977.694, 916.421 1979.459 C 915.432 1983.400, 913.360 1984.541, 911.956 1981.918 C 911.104 1980.326, 910.971 1975.748, 911.480 1965.558 C 912.427 1946.615, 910.613 1940.437, 902.937 1936.467 C 898.687 1934.270, 889.222 1933.697, 884.748 1935.366 M 934.023 1936.611 C 925.615 1939.096, 924.031 1940.109, 924.031 1943 C 924.031 1945.337, 925.247 1946.617, 928.472 1947.674 C 932.284 1948.923, 932.791 1950.875, 932.843 1964.500 C 932.904 1980.529, 932.292 1983.055, 927.997 1984.501 C 924.915 1985.539, 924.500 1986.083, 924.500 1989.089 L 924.500 1992.500 942 1992.500 L 959.500 1992.500 959.835 1990.135 C 960.296 1986.877, 958.762 1985.666, 952.701 1984.500 C 947.502 1983.500, 947.500 1983.499, 946.910 1979.079 C 946.586 1976.648, 946.586 1969.701, 946.910 1963.641 L 947.500 1952.625 952.500 1951.332 C 955.250 1950.620, 959.364 1950.030, 961.643 1950.019 C 966.479 1949.997, 967 1949.173, 967 1941.541 C 967 1935.119, 965.519 1933.492, 960.524 1934.429 C 958.150 1934.875, 955.416 1936.722, 952.013 1940.179 L 947 1945.271 947 1941.207 C 947 1937.538, 945.060 1933.906, 943.179 1934.053 C 942.805 1934.082, 938.685 1935.234, 934.023 1936.611 M 1116.037 1935.111 C 1107.772 1937.633, 1103 1943.785, 1103 1951.918 C 1103 1960.940, 1106.550 1965.272, 1117.500 1969.610 C 1127.719 1973.659, 1131 1976.312, 1131 1980.525 C 1131 1983.357, 1130.453 1984.231, 1127.837 1985.584 C 1123.806 1987.669, 1117.624 1986.934, 1114.500 1984 C 1113.233 1982.809, 1111.695 1979.848, 1111.084 1977.418 C 1110.035 1973.252, 1109.773 1973, 1106.486 1973 L 1103 1973 1103 1982.525 C 1103 1991.989, 1103.018 1992.056, 1105.750 1993.122 C 1107.263 1993.712, 1113.067 1994.438, 1118.648 1994.735 C 1127.652 1995.216, 1129.297 1995.035, 1133.232 1993.130 C 1139.182 1990.249, 1141.516 1987.509, 1143.352 1981.250 C 1144.714 1976.607, 1144.724 1975.433, 1143.435 1971.094 C 1141.523 1964.653, 1137.523 1961.252, 1126.951 1957.074 C 1116.503 1952.945, 1116 1952.548, 1116 1948.413 C 1116 1944.532, 1118.067 1943, 1123.299 1943 C 1127.856 1943, 1131.450 1945.994, 1133.577 1951.563 C 1135.170 1955.734, 1135.563 1956.079, 1138.406 1955.802 L 1141.500 1955.500 1141.789 1947.358 L 1142.077 1939.216 1137.616 1937.056 C 1132.411 1934.536, 1121.222 1933.528, 1116.037 1935.111 M 1299.969 1935.476 C 1293.254 1937.635, 1287.562 1943.043, 1283.833 1950.808 C 1281 1956.708, 1280.618 1958.506, 1280.602 1966 C 1280.580 1976.327, 1283.173 1983.117, 1289.230 1988.589 C 1294.668 1993.502, 1298.740 1995, 1306.652 1995 C 1318.607 1995, 1325.588 1989.571, 1328.609 1977.927 C 1330.277 1971.495, 1329.632 1969.805, 1325.658 1970.196 C 1323.052 1970.453, 1322.465 1971.020, 1321.895 1973.831 C 1321.524 1975.663, 1319.966 1978.469, 1318.435 1980.068 C 1314.661 1984.007, 1310.337 1984.685, 1304.751 1982.214 C 1299.789 1980.019, 1296.722 1975.007, 1295.594 1967.250 L 1294.976 1963 1310.034 1963 C 1324.880 1963, 1325.127 1962.964, 1327.667 1960.424 C 1329.827 1958.264, 1330.157 1957.209, 1329.712 1953.893 C 1328.882 1947.701, 1324.959 1940.829, 1320.500 1937.758 C 1315.479 1934.298, 1306.676 1933.320, 1299.969 1935.476 M 1354.500 1934.863 C 1347.843 1936.644, 1341.916 1941.260, 1338.979 1946.951 C 1338.284 1948.299, 1337.714 1951.696, 1337.714 1954.500 C 1337.714 1960.047, 1338.907 1963.064, 1342.712 1967.148 L 1345.179 1969.796 1341.734 1973.648 C 1335.195 1980.959, 1334.042 1986.671, 1338.513 1989.601 L 1341.027 1991.247 1337.013 1995.601 C 1333.715 1999.179, 1333 2000.672, 1333 2003.979 C 1333 2007.369, 1333.639 2008.622, 1337.061 2011.943 C 1342.161 2016.892, 1348.298 2018.422, 1360.684 2017.829 C 1371.550 2017.310, 1377.464 2014.636, 1383.499 2007.517 C 1387.438 2002.869, 1387.500 2002.674, 1387.500 1994.816 C 1387.500 1987.102, 1387.393 1986.741, 1384.303 1983.980 C 1379.880 1980.028, 1375.436 1978.930, 1361.250 1978.286 C 1350.483 1977.797, 1349 1977.519, 1349 1975.987 C 1349 1973.501, 1351.143 1972.103, 1353.500 1973.053 C 1359.217 1975.357, 1369.887 1973.349, 1376.063 1968.808 C 1381.956 1964.473, 1384.872 1954.789, 1382.704 1946.750 C 1382.042 1944.297, 1382.226 1944, 1384.410 1944 C 1388.918 1944, 1391.790 1938.730, 1388.685 1936.154 C 1387.067 1934.811, 1358.697 1933.739, 1354.500 1934.863 M 1413.500 1934.491 C 1412.950 1934.675, 1411.236 1935.105, 1409.691 1935.446 C 1405.178 1936.445, 1398.320 1943.481, 1396.649 1948.827 C 1393.700 1958.260, 1394.083 1961, 1398.350 1961 C 1401.150 1961, 1402.998 1959.234, 1403.007 1956.550 C 1403.015 1953.841, 1406.299 1948.957, 1409.190 1947.353 C 1413.038 1945.218, 1418.356 1945.685, 1420.889 1948.382 C 1422.642 1950.248, 1423.059 1951.709, 1422.813 1955.132 C 1422.512 1959.329, 1422.324 1959.560, 1418 1961.033 C 1403.927 1965.826, 1397.345 1969.241, 1394.586 1973.181 C 1393.614 1974.569, 1393 1977.533, 1393 1980.840 C 1393 1985.774, 1393.332 1986.567, 1396.882 1990.118 C 1400.368 1993.603, 1401.281 1994, 1405.817 1994 C 1412.109 1994, 1414.793 1992.999, 1419.440 1988.918 L 1423.103 1985.702 1424.741 1988.040 C 1428.244 1993.042, 1429.872 1994, 1434.865 1994 C 1442.545 1994, 1448 1988.199, 1448 1980.032 C 1448 1977.330, 1447.674 1977, 1445 1977 C 1442.508 1977, 1442 1977.402, 1442 1979.378 C 1442 1982.521, 1439.390 1984.790, 1437.708 1983.107 C 1436.837 1982.237, 1436.589 1977.473, 1436.819 1966.062 C 1437.184 1947.934, 1436.388 1943.720, 1431.769 1939.306 C 1427.514 1935.240, 1418.432 1932.846, 1413.500 1934.491 M 1463.500 1935.495 C 1451.554 1938.753, 1450.519 1939.299, 1450.222 1942.500 C 1449.975 1945.157, 1450.403 1945.691, 1453.972 1947.176 L 1458 1948.851 1458 1965.803 C 1458 1983.916, 1457.940 1984.142, 1452.765 1985.377 C 1449.584 1986.137, 1448.052 1990.153, 1450.033 1992.540 C 1451.067 1993.786, 1453.781 1994.004, 1465.395 1993.777 L 1479.500 1993.500 1479.811 1990.286 C 1480.087 1987.425, 1479.704 1986.877, 1476.311 1985.282 L 1472.500 1983.490 1472.179 1974.995 C 1472.003 1970.323, 1472.154 1962.805, 1472.516 1958.289 L 1473.173 1950.079 1478.836 1947.958 C 1483.545 1946.195, 1485.104 1946.018, 1488.085 1946.909 C 1493.203 1948.440, 1494.020 1951.032, 1493.882 1965.297 C 1493.744 1979.456, 1493.162 1982.962, 1490.750 1984.143 C 1489.787 1984.614, 1488.213 1985.387, 1487.250 1985.859 C 1486.096 1986.425, 1485.500 1987.873, 1485.500 1990.109 L 1485.500 1993.500 1499.700 1993.777 C 1513.172 1994.040, 1513.957 1993.948, 1515.006 1991.989 C 1516.646 1988.924, 1515.286 1986.007, 1511.899 1985.330 C 1510.282 1985.006, 1508.630 1984.237, 1508.229 1983.621 C 1507.828 1983.004, 1507.500 1974.175, 1507.500 1964 C 1507.500 1946.102, 1507.418 1945.353, 1504.987 1941 C 1502.946 1937.344, 1501.640 1936.235, 1498.024 1935.088 C 1491.948 1933.161, 1484.443 1934.776, 1478.015 1939.393 C 1475.363 1941.299, 1472.924 1942.590, 1472.596 1942.263 C 1472.268 1941.935, 1472 1940.482, 1472 1939.033 C 1472 1936.623, 1470.387 1933.906, 1469.050 1934.066 C 1468.747 1934.102, 1466.250 1934.745, 1463.500 1935.495 M 1541.757 1935.023 C 1533.761 1937.038, 1526.465 1943.526, 1522.667 1952 C 1521.116 1955.459, 1520.639 1958.698, 1520.604 1966 C 1520.565 1974.317, 1520.896 1976.204, 1523.263 1981.153 C 1526.202 1987.298, 1531.849 1992.523, 1537.215 1994.062 C 1541.614 1995.323, 1552.204 1995.252, 1555.685 1993.936 C 1562.164 1991.488, 1567.684 1983.462, 1568.682 1975.039 C 1569.194 1970.710, 1569.030 1970.144, 1567.079 1969.525 C 1564.590 1968.735, 1562.002 1970.440, 1561.996 1972.872 C 1561.990 1975.693, 1558.215 1980.837, 1554.889 1982.557 C 1548.672 1985.772, 1540.618 1982.253, 1536.985 1974.734 C 1534.175 1968.916, 1534.188 1955.512, 1537.010 1949.981 C 1542.273 1939.665, 1555.954 1941.112, 1559.157 1952.324 C 1560.758 1957.927, 1561.851 1959.157, 1564.914 1958.801 C 1567.492 1958.501, 1567.500 1958.472, 1567.500 1949.020 L 1567.500 1939.539 1563.429 1937.293 C 1558.732 1934.702, 1547.640 1933.540, 1541.757 1935.023 M 1593.969 1935.476 C 1587.243 1937.639, 1581.559 1943.043, 1577.859 1950.795 C 1575.055 1956.671, 1574.670 1958.498, 1574.657 1965.987 C 1574.638 1976.354, 1577.219 1983.158, 1583.230 1988.589 C 1588.668 1993.502, 1592.740 1995, 1600.652 1995 C 1612.589 1995, 1619.415 1989.832, 1622.357 1978.565 C 1624.228 1971.399, 1623.712 1969.797, 1619.658 1970.196 C 1617.130 1970.445, 1616.459 1971.044, 1615.957 1973.500 C 1615.118 1977.605, 1613.178 1980.464, 1609.928 1982.384 C 1606.394 1984.471, 1603.471 1984.397, 1598.394 1982.091 C 1593.805 1980.007, 1590.684 1974.743, 1589.594 1967.250 L 1588.976 1963 1604.034 1963 C 1618.687 1963, 1619.157 1962.934, 1621.545 1960.545 C 1624.384 1957.707, 1624.575 1955.235, 1622.431 1949.078 C 1620.407 1943.266, 1617.721 1939.609, 1613.611 1937.069 C 1609.169 1934.324, 1599.894 1933.572, 1593.969 1935.476 M 1819.969 1935.476 C 1813.373 1937.597, 1807.607 1943.022, 1803.860 1950.632 C 1800.933 1956.578, 1800.638 1958.025, 1800.653 1966.340 C 1800.668 1974.214, 1801.036 1976.215, 1803.271 1980.590 C 1806.141 1986.207, 1811.581 1991.509, 1816.645 1993.625 C 1818.455 1994.381, 1822.958 1995, 1826.652 1995 C 1838.642 1995, 1845.402 1989.744, 1848.496 1978.015 C 1850.236 1971.419, 1849.649 1969.803, 1845.658 1970.196 C 1843.130 1970.445, 1842.459 1971.044, 1841.957 1973.500 C 1841.118 1977.605, 1839.178 1980.464, 1835.928 1982.384 C 1832.296 1984.529, 1829.503 1984.422, 1824.376 1981.940 C 1819.659 1979.656, 1816.683 1974.733, 1815.498 1967.250 L 1814.824 1963 1829.958 1963 C 1844.692 1963, 1845.156 1962.935, 1847.545 1960.545 C 1850.375 1957.716, 1850.512 1956.260, 1848.558 1949.820 C 1846.685 1943.647, 1844.693 1940.752, 1840.158 1937.609 C 1835.398 1934.311, 1826.515 1933.372, 1819.969 1935.476 M 1865.023 1936.611 C 1860.361 1937.989, 1856.196 1939.653, 1855.767 1940.308 C 1854.232 1942.658, 1855.536 1945.518, 1858.912 1947.203 C 1860.789 1948.140, 1862.694 1949.490, 1863.147 1950.203 C 1863.599 1950.916, 1863.976 1958.051, 1863.985 1966.059 C 1864.001 1981.963, 1863.556 1983.489, 1858.499 1984.842 C 1855.906 1985.535, 1855.500 1986.108, 1855.500 1989.072 L 1855.500 1992.500 1872.675 1992.773 C 1889.105 1993.035, 1889.878 1992.960, 1890.486 1991.043 C 1891.571 1987.625, 1889.519 1985.613, 1883.833 1984.523 L 1878.500 1983.500 1878.500 1968.065 L 1878.500 1952.631 1883.500 1951.335 C 1886.250 1950.622, 1890.412 1950.030, 1892.750 1950.019 L 1897 1950 1897 1942.559 C 1897 1938.375, 1896.534 1934.830, 1895.935 1934.460 C 1893.222 1932.783, 1887.725 1935.241, 1882.920 1940.279 L 1878 1945.437 1878 1940.754 C 1878 1937.147, 1877.555 1935.832, 1876.066 1935.035 C 1875.002 1934.466, 1873.989 1934.024, 1873.816 1934.053 C 1873.642 1934.082, 1869.685 1935.234, 1865.023 1936.611 M 2018.226 1935.404 C 2005.916 1939.433, 1997.734 1951.588, 1997.687 1965.915 C 1997.647 1978.002, 2002.703 1987.453, 2011.657 1992.026 C 2015.705 1994.094, 2017.896 1994.496, 2025 1994.473 C 2032.498 1994.449, 2034.058 1994.115, 2038.232 1991.638 C 2043.747 1988.366, 2046.925 1984.851, 2049.871 1978.766 C 2057.676 1962.643, 2053.072 1943.739, 2039.661 1936.843 C 2034.657 1934.269, 2023.899 1933.547, 2018.226 1935.404 M 2136 1936.613 C 2131.325 1937.991, 2127.127 1939.488, 2126.672 1939.938 C 2126.216 1940.388, 2125.991 1942.049, 2126.172 1943.628 C 2126.432 1945.909, 2127.221 1946.733, 2130 1947.630 L 2133.500 1948.760 2133.786 1964.130 C 2133.944 1972.584, 2133.832 1980.477, 2133.537 1981.670 C 2133.189 1983.083, 2131.931 1984.076, 2129.934 1984.515 C 2126.513 1985.266, 2124.705 1988.486, 2126.153 1991.250 C 2126.972 1992.812, 2128.897 1993, 2144.096 1993 L 2161.121 1993 2160.810 1989.298 C 2160.506 1985.664, 2160.401 1985.578, 2155 1984.548 L 2149.500 1983.500 2149.500 1968.065 L 2149.500 1952.631 2154.500 1951.335 C 2157.250 1950.622, 2161.354 1950.030, 2163.621 1950.019 L 2167.742 1950 2168.418 1944.022 C 2169.179 1937.296, 2168.033 1934, 2164.933 1934 C 2161.109 1934, 2156.360 1936.766, 2152.712 1941.119 L 2149.039 1945.500 2149.020 1941.321 C 2149.002 1937.548, 2147.077 1933.904, 2145.179 1934.053 C 2144.805 1934.082, 2140.675 1935.234, 2136 1936.613 M 2313.969 1935.476 C 2307.386 1937.592, 2301.606 1943.023, 2297.879 1950.594 C 2295.024 1956.395, 2294.672 1958.053, 2294.658 1965.802 C 2294.638 1976.368, 2297.179 1983.122, 2303.230 1988.589 C 2308.668 1993.502, 2312.740 1995, 2320.652 1995 C 2332.480 1995, 2339.676 1989.680, 2342.557 1978.806 C 2344.414 1971.800, 2343.749 1969.796, 2339.700 1970.193 C 2337.126 1970.445, 2336.462 1971.033, 2335.957 1973.500 C 2333.848 1983.818, 2323.644 1987.016, 2315.540 1979.901 C 2312.129 1976.906, 2310.729 1973.837, 2309.539 1966.750 L 2308.909 1963 2323.820 1963 C 2337.598 1963, 2338.939 1962.836, 2341.485 1960.833 C 2344.007 1958.849, 2344.190 1958.254, 2343.659 1953.769 C 2341.931 1939.177, 2328.397 1930.838, 2313.969 1935.476 M 2368.275 1934.971 C 2359.966 1936.945, 2353.146 1944.942, 2351.675 1954.437 C 2350.978 1958.936, 2352.181 1961, 2355.500 1961 C 2358.281 1961, 2359.305 1959.706, 2360.879 1954.202 C 2362.291 1949.268, 2366.567 1946.010, 2371.639 1946.004 C 2376.671 1945.998, 2379.105 1948.695, 2379.318 1954.514 L 2379.500 1959.500 2375 1961.049 C 2356.406 1967.452, 2350.794 1971.248, 2349.467 1978.323 C 2347.939 1986.471, 2354.556 1994, 2363.247 1994 C 2369.136 1994, 2371.862 1992.938, 2376.556 1988.817 C 2379.481 1986.248, 2380.445 1985.836, 2380.830 1986.990 C 2381.103 1987.810, 2382.569 1989.723, 2384.087 1991.240 C 2386.355 1993.509, 2387.726 1994, 2391.788 1994 C 2399.548 1994, 2405 1988.236, 2405 1980.032 C 2405 1977.336, 2404.670 1977, 2402.029 1977 C 2399.516 1977, 2398.927 1977.501, 2398.215 1980.250 C 2397.752 1982.037, 2396.726 1983.500, 2395.936 1983.500 C 2394.756 1983.500, 2394.411 1980.116, 2394 1964.500 C 2393.691 1952.763, 2393.055 1944.736, 2392.336 1943.500 C 2387.912 1935.898, 2378.466 1932.550, 2368.275 1934.971 M 1740.692 1935.641 C 1739.061 1937.273, 1740.161 1941.264, 1742.870 1943.544 C 1744.449 1944.873, 1746.316 1947.431, 1747.020 1949.230 C 1747.724 1951.028, 1748.886 1953.850, 1749.602 1955.500 C 1750.317 1957.150, 1753.018 1963.675, 1755.603 1970 C 1765.685 1994.666, 1764.412 1992.464, 1768.778 1992.799 L 1772.671 1993.099 1776.984 1983.299 C 1790.597 1952.376, 1793.486 1946.722, 1797.443 1943.271 C 1800.059 1940.989, 1801.050 1939.377, 1800.822 1937.771 C 1800.508 1935.557, 1800.170 1935.493, 1787.250 1935.221 L 1774 1934.942 1774 1938.295 C 1774 1941.428, 1774.311 1941.741, 1778.750 1943.074 C 1782.958 1944.337, 1783.480 1944.804, 1783.323 1947.165 C 1783.176 1949.393, 1780.014 1957.696, 1775.962 1966.500 C 1775.456 1967.600, 1774.569 1969.800, 1773.993 1971.389 C 1773.416 1972.977, 1772.698 1974.031, 1772.397 1973.731 C 1771.514 1972.847, 1761.010 1946.617, 1761.005 1945.280 C 1761.002 1944.609, 1763.138 1943.437, 1765.750 1942.675 C 1770.004 1941.435, 1770.500 1940.988, 1770.500 1938.395 L 1770.500 1935.500 1755.942 1935.224 C 1747.936 1935.073, 1741.073 1935.260, 1740.692 1935.641 M 1355.038 1943.937 C 1352.921 1945.563, 1352.519 1946.820, 1352.177 1952.881 C 1351.792 1959.692, 1351.886 1960.040, 1354.937 1963.091 C 1357.704 1965.858, 1358.589 1966.184, 1362.062 1965.718 C 1367.987 1964.924, 1369.926 1962.010, 1369.967 1953.839 C 1369.998 1947.610, 1369.800 1947.010, 1366.923 1944.589 C 1363.241 1941.491, 1358.555 1941.234, 1355.038 1943.937 M 1300.051 1945.750 C 1298.412 1947.263, 1296.782 1949.737, 1296.427 1951.250 L 1295.783 1954 1305.392 1954 L 1315 1954 1315 1950.955 C 1315 1943.597, 1305.840 1940.408, 1300.051 1945.750 M 1594.051 1945.750 C 1592.412 1947.263, 1590.782 1949.737, 1590.427 1951.250 L 1589.783 1954 1599.392 1954 L 1609 1954 1609 1950.955 C 1609 1943.597, 1599.840 1940.408, 1594.051 1945.750 M 1821.217 1944.561 C 1819.003 1946.111, 1816 1950.941, 1816 1952.950 C 1816 1953.610, 1819.534 1954, 1825.500 1954 L 1835 1954 1835 1950.955 C 1835 1944.515, 1826.748 1940.687, 1821.217 1944.561 M 2020.381 1944.162 C 2019.216 1944.727, 2017.191 1947.059, 2015.881 1949.344 C 2013.782 1953.008, 2013.503 1954.743, 2013.525 1964 C 2013.547 1972.875, 2013.893 1975.148, 2015.762 1978.684 C 2018.528 1983.917, 2021.443 1986, 2026 1986 C 2034.088 1986, 2037.945 1979.328, 2037.978 1965.279 C 2038.013 1950.534, 2033.598 1942.857, 2025.203 1943.068 C 2023.716 1943.105, 2021.547 1943.597, 2020.381 1944.162 M 2315.117 1944.631 C 2313.185 1945.984, 2310 1951.485, 2310 1953.468 C 2310 1953.761, 2314.275 1954, 2319.500 1954 L 2329 1954 2329 1950.955 C 2329 1944.454, 2320.741 1940.692, 2315.117 1944.631 M 2427.401 1944.897 C 2422.973 1947.598, 2420.995 1953.292, 2421.022 1963.270 C 2421.066 1979.741, 2428.801 1987.278, 2440.398 1982.148 L 2445 1980.112 2445 1964.956 L 2445 1949.800 2441.600 1946.400 C 2437.585 1942.385, 2432.418 1941.838, 2427.401 1944.897 M 890.306 1969.874 C 885.387 1971.830, 881 1975.388, 881 1977.422 C 881 1981.673, 887.164 1983.212, 893.532 1980.551 C 896.899 1979.144, 897 1978.940, 897 1973.551 C 897 1967.366, 896.839 1967.278, 890.306 1969.874 M 1414.389 1970.439 C 1409.890 1972.486, 1406 1976.061, 1406 1978.151 C 1406 1978.539, 1406.707 1979.564, 1407.571 1980.429 C 1409.601 1982.458, 1415.275 1982.438, 1419.599 1980.386 C 1422.846 1978.845, 1423 1978.529, 1423 1973.386 C 1423 1967.055, 1422.333 1966.827, 1414.389 1970.439 M 2372.013 1970.130 C 2366 1972.796, 2364 1974.772, 2364 1978.048 C 2364 1982.478, 2370.949 1983.548, 2376.750 1980.011 C 2379.721 1978.199, 2380 1977.599, 2380 1973.015 C 2380 1967.197, 2379.245 1966.924, 2372.013 1970.130 M 1348.035 1994.934 C 1346.881 1997.091, 1346.670 2001.975, 1347.623 2004.461 C 1348.755 2007.409, 1355.477 2010, 1361.992 2010 C 1370.026 2010, 1374.539 2008.034, 1376.645 2003.617 C 1378.193 2000.372, 1378.194 1999.946, 1376.665 1997.612 C 1374.476 1994.271, 1369.455 1993.012, 1358.285 1993.006 C 1350.195 1993.001, 1348.944 1993.236, 1348.035 1994.934" stroke="none" fill="#040404" fill-rule="evenodd"/></svg>