<svg width="961" height="912" viewBox="0 0 961 912" fill="none" xmlns="http://www.w3.org/2000/svg">
<rect width="961" height="912" fill="#383636"/>
<path fill-rule="evenodd" clip-rule="evenodd" d="M541.512 6.08626C537.143 9.00374 531.495 12.9397 528.96 14.8325C526.425 16.7253 518.129 22.7055 510.524 28.1213C492.727 40.7953 494.487 39.5482 485.168 46.0834C480.735 49.1925 472.701 55.0141 467.314 59.0201C461.927 63.025 454.87 68.1277 451.634 70.3583C445.997 74.2428 413.283 97.7454 364.341 133.07C351.753 142.157 338.531 151.607 334.959 154.07C328.814 158.309 325.102 160.94 315.133 168.128C312.776 169.828 308.978 172.512 306.693 174.094C302.186 177.215 301.567 178.998 304.292 181.019C306.718 182.818 309.104 183.045 335.955 184.029C348.947 184.505 363.466 185.389 368.219 185.994C386.319 188.299 400.562 189.376 419.495 189.871C430.268 190.153 441.157 190.791 443.692 191.286C446.227 191.781 458.672 192.702 471.347 193.33C500.701 194.785 507.008 195.368 505.735 196.506C504.822 197.322 461.684 195.278 451.182 193.92C448.964 193.634 435.482 192.689 421.223 191.82C406.964 190.951 387.001 189.574 376.861 188.761C366.721 187.946 349.83 187.032 339.326 186.729L320.227 186.177L313.993 190.933C310.564 193.549 306.455 196.428 304.861 197.332C303.268 198.236 301.694 199.304 301.365 199.706C300.578 200.666 285.41 211.789 270.361 222.442C263.754 227.121 255.976 232.673 253.077 234.783C250.178 236.892 245.214 240.485 242.046 242.767C238.877 245.049 233.173 249.222 229.371 252.039C225.568 254.856 218.05 260.263 212.663 264.054C207.276 267.845 198.489 274.227 193.135 278.237C187.781 282.247 182.016 286.455 180.323 287.588C178.631 288.72 172.172 293.355 165.972 297.886C159.771 302.417 151.536 308.336 147.672 311.04C143.808 313.742 139.018 317.218 137.028 318.763C135.038 320.308 128.9 324.816 123.388 328.78C104.405 342.438 95.7019 348.776 93.4066 350.616C92.1414 351.63 88.771 354.041 85.9169 355.972C83.0627 357.904 80.4689 359.77 80.152 360.119C79.8352 360.468 75.9462 363.284 71.51 366.375C67.0738 369.467 56.9627 376.805 49.0408 382.681C41.119 388.557 32.7754 394.434 30.5009 395.738C28.2251 397.044 25.6326 398.748 24.7396 399.527C23.8454 400.306 19.4852 403.531 15.0489 406.695C10.6127 409.858 5.55771 413.642 3.81433 415.104C0.435881 417.937 -0.270452 421.067 2.08593 422.766C4.0494 424.182 43.6713 424.262 74.4921 422.913C98.9997 421.841 107.268 421.658 181.552 420.541C202.148 420.231 226.26 419.694 235.132 419.349C244.004 419.004 261.634 418.644 274.309 418.548C300.123 418.354 300.075 418.366 308.057 410.738C322.393 397.038 367.02 357.443 517.101 225.265C534.285 210.131 538.754 205.637 538.754 203.491C538.754 199.975 537.227 199.545 524.544 199.502C517.338 199.476 513.065 198.98 511.1 197.939C508.458 196.539 509.125 196.459 519.166 196.974C525.186 197.283 533.778 197.785 538.259 198.092L546.404 198.649L559 188.041C565.926 182.207 591.948 159.351 616.825 137.252C641.701 115.152 662.701 96.9123 663.492 96.7187C664.281 96.5251 640.72 117.842 611.133 144.09C581.546 170.338 510.768 233.147 453.848 283.665C396.929 334.183 339.341 385.19 325.873 397.014C312.406 408.839 301.39 419.177 301.392 419.989C301.399 422.074 305.684 427.488 321.958 445.974C335.134 460.942 339.452 464.437 340.757 461.184C340.968 460.657 357.474 445.448 377.437 427.387C421.451 387.564 491.289 323.872 504.413 311.586C509.676 306.66 522.018 295.279 531.841 286.295C568.972 252.335 624.643 201.253 625.75 200.125C626.384 199.479 639.089 187.845 653.984 174.271C725.454 109.14 748.559 88.3194 749.343 88.34C749.812 88.3534 752.01 90.687 754.228 93.5252C756.446 96.3644 760.335 101.176 762.87 104.218C765.405 107.259 769.553 112.417 772.088 115.68C774.623 118.942 777.604 122.462 778.714 123.501C779.824 124.54 780.73 125.647 780.73 125.959C780.73 126.272 784.276 130.791 788.608 136C792.941 141.21 798.637 148.253 801.265 151.651C807.233 159.369 823.697 179.785 826.179 182.546C827.198 183.679 833.158 191.093 839.426 199.023C853.011 216.212 854.265 217.453 856.427 215.849C858.497 214.315 872.95 195.971 876.661 190.169C878.257 187.675 879.289 184.94 878.958 184.091C878.255 182.29 867.171 167.263 863.766 163.494C862.487 162.078 861.44 160.456 861.44 159.89C861.44 159.324 862.4 159.975 863.571 161.338C864.94 162.929 866.375 163.586 867.579 163.172C869.279 162.59 869.455 157.546 869.455 109.587C869.455 64.476 869.206 56.4609 867.776 55.4002C866.118 54.1706 854.31 52.6774 822.788 49.7125C799.348 47.5077 801.471 47.0329 801.471 54.4724C801.471 57.947 800.866 63.7253 800.127 67.3142C799.079 72.3922 799.096 74.7804 800.206 78.0882C800.99 80.4259 801.465 82.4855 801.263 82.6647C800.903 82.9839 794.021 74.5085 774.497 49.6991C751.406 20.3575 752.272 21.2524 748.872 23.1967C748.145 23.6128 729.316 39.9416 707.029 59.4824C684.743 79.0233 665.893 95.1791 665.142 95.384C663.115 95.937 731.049 34.8419 738.961 28.9966C742.869 26.109 743.715 23.3975 741.265 21.6108C740.474 21.033 735.936 20.0465 731.183 19.4183C723.172 18.3596 716.041 17.543 680.483 13.6132C655.52 10.8533 629.78 7.95946 611.061 5.8092C600.761 4.6249 588.186 3.51067 583.117 3.33251C578.047 3.15538 568.972 2.51587 562.952 1.91343C556.931 1.31098 551.431 0.810496 550.73 0.800198C550.028 0.79093 545.88 3.16981 541.512 6.08626ZM642.458 742.161C642.458 742.775 645.051 747.451 648.22 752.551C651.388 757.652 653.997 762.171 654.018 762.594C654.037 763.019 654.793 764.237 655.697 765.303C657.12 766.983 658.758 767.216 668.014 767.048C673.885 766.942 678.918 766.652 679.196 766.403C679.475 766.153 678.215 763.514 676.398 760.538C674.58 757.562 672.015 753.313 670.699 751.096C667.97 746.502 667.277 746.093 658.59 743.945C649.02 741.578 642.458 740.852 642.458 742.161ZM714.679 761.667C713.006 764.415 711.842 766.849 712.093 767.074C713.01 767.898 758.837 766.86 758.837 766.014C758.837 765.535 757.412 764.91 755.669 764.626C752.307 764.078 737.501 760.929 725.998 758.315C722.195 757.451 718.778 756.727 718.403 756.708C718.029 756.687 716.353 758.919 714.679 761.667ZM496.409 763.776C492.448 764.68 489.207 765.737 489.207 766.126C489.207 766.514 494.393 766.979 500.732 767.158C507.07 767.338 512.255 767.106 512.254 766.643C512.253 766.182 511.715 764.907 511.06 763.811C509.645 761.45 506.627 761.442 496.409 763.776ZM487.528 769.987C486.626 771.292 487.474 771.604 496.12 773.149C500.24 773.884 504.129 774.825 504.762 775.241C506.297 776.248 518.207 778.467 518.874 777.871C519.162 777.613 518.214 775.519 516.766 773.216L514.133 769.029H501.162C494.028 769.029 487.892 769.46 487.528 769.987ZM658.59 769.505C658.59 769.956 667.565 785.044 671.172 790.655C672.262 792.351 679.821 792.425 682.073 790.762C682.783 790.238 685.309 789.485 687.685 789.087C690.062 788.691 691.999 787.838 691.991 787.194C691.983 786.548 689.714 782.313 686.948 777.782L681.921 769.544L670.256 769.25C663.84 769.088 658.59 769.204 658.59 769.505ZM708.129 772.375C703.419 779.293 700.742 784.388 701.473 785.042C701.889 785.414 705.763 784.773 710.08 783.62C714.399 782.466 719.747 781.206 721.965 780.82C724.183 780.435 726.516 779.776 727.15 779.356C727.784 778.935 731.673 778.017 735.792 777.315C739.911 776.611 743.8 775.734 744.434 775.364C745.068 774.994 748.914 773.997 752.981 773.148C757.048 772.298 760.591 771.024 760.855 770.316C761.228 769.312 755.728 769.029 735.871 769.029H710.409L708.129 772.375ZM450.606 773.755C446.803 774.572 440.84 775.813 437.355 776.511C427.76 778.435 428.85 779.798 442.954 783.513C449.442 785.222 453.094 785.603 458.509 785.134C463.464 784.706 464.809 784.814 462.993 785.495C461.567 786.031 460.4 786.863 460.4 787.344C460.4 788.322 473.604 792.286 480.277 793.31C482.654 793.675 484.598 794.439 484.598 795.009C484.598 795.578 483.691 795.812 482.581 795.529C481.472 795.246 477.194 794.214 473.075 793.236C468.956 792.256 464.334 790.928 462.805 790.283C461.276 789.638 455.832 789.133 450.706 789.161C445.581 789.189 442.585 788.958 444.048 788.646C447.893 787.829 447.348 786.156 442.914 785.161C440.807 784.688 435.764 783.362 431.706 782.213C424.186 780.086 413.263 780.196 408.705 782.446C407.668 782.958 402.931 784.111 398.178 785.008C389.536 786.64 380.212 788.556 360.729 792.706C355.025 793.92 347.507 795.494 344.021 796.2C340.536 796.908 336.906 797.776 335.955 798.129C335.005 798.484 333.232 798.916 332.018 799.09C328.97 799.529 328.261 801.983 331.183 801.983C332.465 801.983 333.799 802.394 334.146 802.896C334.493 803.398 336.727 804.135 339.111 804.533C341.495 804.931 344.173 805.794 345.063 806.451C347.189 808.022 362.055 807.903 363.847 806.302C365.425 804.892 370.982 804.606 370.029 805.984C369.683 806.484 367.029 807.212 364.131 807.6C357.28 808.518 357.974 810.277 366.005 812.345C369.441 813.23 373.548 814.445 375.132 815.046C376.717 815.647 379.733 816.472 381.835 816.881C383.938 817.29 387.049 818.273 388.749 819.065C390.449 819.858 392.565 820.509 393.45 820.513C394.986 820.52 406.552 823.874 411.429 825.727C412.696 826.209 416.067 827.146 418.919 827.81C421.77 828.474 425.873 829.711 428.035 830.56C432.466 832.299 445.872 831.856 448.062 829.899C448.765 829.271 450.418 828.758 451.737 828.758C453.057 828.758 456.972 828.051 460.437 827.186C473.386 823.953 484.179 821.418 489.207 820.428C492.059 819.866 495.201 819.013 496.19 818.532C497.177 818.051 501.066 817.091 504.832 816.399C508.596 815.708 512.195 814.845 512.828 814.484C513.462 814.122 517.512 813.131 521.829 812.281C534.75 809.738 533.226 808.721 506.491 802.041C492.494 798.543 485.707 796.528 486.26 796.035C486.888 795.473 498.535 797.841 500.153 798.858C500.787 799.257 504.417 800.175 508.219 800.897C512.022 801.62 515.651 802.582 516.285 803.035C516.919 803.487 519.511 804.192 522.046 804.6C524.581 805.007 527.226 805.744 527.924 806.235C530.936 808.358 539.684 808.395 547.548 806.317C551.9 805.168 557.926 803.621 560.935 802.88C571.969 800.165 566.239 797.995 547.396 797.753C533.606 797.576 531.319 796.979 528.127 792.728C526.63 790.734 523.911 788.734 522.011 788.231C520.129 787.731 517.786 786.968 516.804 786.535C515.822 786.101 511.933 785.151 508.162 784.425C504.391 783.699 500.577 782.603 499.688 781.989C497.206 780.274 482.439 780.734 476.203 782.72C470.239 784.619 465.645 785.026 466.656 783.565C467.002 783.064 469.754 782.323 472.773 781.919C478.838 781.106 482.293 779.778 482.293 778.261C482.293 777.714 481.324 777.267 480.138 777.267C478.954 777.267 474.935 776.4 471.208 775.339C460.747 772.363 458.051 772.155 450.606 773.755ZM783.035 773.823C778.114 775.293 775.822 775.871 759.413 779.777C755.611 780.682 751.703 781.821 750.728 782.307C749.752 782.793 746.641 783.528 743.814 783.94C740.986 784.352 737.117 785.285 735.216 786.014C733.315 786.744 728.648 788.034 724.845 788.88C721.043 789.728 711.191 792.136 702.952 794.232C694.714 796.328 685.553 798.582 682.595 799.241C679.637 799.901 676.828 800.787 676.353 801.211C675.879 801.636 674.305 801.983 672.855 801.983C671.407 801.983 669.03 802.424 667.574 802.961C666.119 803.5 660.9 804.982 655.977 806.253C651.054 807.526 647.208 809.055 647.429 809.652C647.652 810.248 651.161 811.431 655.228 812.281C659.295 813.131 663.141 814.122 663.775 814.484C664.409 814.845 668.007 815.708 671.772 816.399C675.538 817.091 679.426 818.051 680.414 818.532C681.403 819.013 684.545 819.871 687.397 820.439C690.249 821.007 696.471 822.455 701.224 823.657C705.977 824.859 713.236 826.617 717.356 827.564C721.475 828.51 725.364 829.577 725.998 829.936C726.631 830.296 730.23 831.156 733.994 831.847C737.76 832.539 741.649 833.498 742.636 833.979C743.625 834.46 746.767 835.321 749.619 835.892C760.478 838.066 769.912 840.36 773.241 841.637C775.142 842.366 779.011 843.299 781.839 843.711C784.665 844.123 787.777 844.862 788.753 845.355C789.727 845.846 793.636 846.922 797.438 847.744C801.241 848.567 807.204 849.989 810.689 850.903C817.722 852.751 825.738 852.409 831.717 850.007C833.777 849.18 837.537 847.966 840.072 847.312C842.607 846.657 845.718 845.708 846.986 845.202C849.863 844.055 872.084 837.245 877.521 835.844C879.739 835.273 883.188 834.14 885.185 833.326C887.181 832.513 889.436 831.848 890.196 831.848C890.955 831.848 893.21 831.224 895.207 830.462C897.204 829.699 904.282 827.531 910.937 825.643C917.591 823.755 923.554 821.884 924.188 821.485C924.821 821.085 927.155 820.419 929.373 820.005C931.591 819.591 933.924 818.887 934.558 818.441C935.192 817.997 938.044 817.104 940.895 816.458C943.747 815.812 947.118 814.835 948.385 814.286C949.653 813.737 952.945 812.714 955.7 812.012C964.606 809.745 962.361 808.59 940.031 803.956C926.013 801.047 912.424 798.177 904.599 796.472C900.797 795.644 893.019 793.977 887.315 792.768C881.611 791.558 872.796 789.683 867.727 788.599C862.657 787.517 854.101 785.709 848.714 784.582C843.327 783.454 837.883 782.283 836.615 781.98C835.348 781.675 828.607 780.245 821.636 778.803C814.665 777.359 806.368 775.525 803.2 774.726C793.991 772.402 788.605 772.161 783.035 773.823ZM606.416 799.508C605.258 800.564 614.835 803.085 622.421 803.722C628.115 804.2 639.347 801.888 637.137 800.694C635.365 799.735 607.354 798.655 606.416 799.508ZM308.877 804.083C290.024 807.947 288.114 808.397 287.168 809.186C286.636 809.631 288.969 810.773 292.354 811.726C295.738 812.679 299.544 813.872 300.811 814.378C307.746 817.147 318.153 817.142 325.009 814.366C326.276 813.854 331.073 812.868 335.667 812.177C340.634 811.43 344.021 810.418 344.021 809.682C344.021 808.387 338.588 806.327 327.968 803.593C320.53 801.679 320.609 801.677 308.877 804.083ZM565.538 803.532C553.199 806.225 545.668 808.585 545.668 809.761C545.668 810.425 548.909 811.566 552.87 812.294C556.831 813.023 560.799 814.13 561.689 814.753C563.667 816.139 581.078 816.26 584.269 814.91C585.536 814.374 589.647 813.215 593.403 812.336C597.159 811.456 600.426 810.203 600.662 809.551C601.083 808.393 591.167 805.246 580.236 803.067C573.999 801.823 573.261 801.847 565.538 803.532ZM338.836 812.915C335.667 813.755 329.97 815.001 326.176 815.684C321.226 816.575 319.167 817.434 318.889 818.724C318.632 819.916 319.228 820.52 320.661 820.52C321.848 820.52 323.312 820.927 323.914 821.425C324.516 821.923 327.083 822.882 329.618 823.557C332.153 824.231 335.264 825.171 336.531 825.647C337.799 826.123 344.021 827.974 350.359 829.759C356.696 831.546 362.918 833.421 364.186 833.926C365.453 834.431 370.639 836.052 375.709 837.529C380.779 839.006 385.964 840.612 387.231 841.1C392.05 842.952 395.986 843.161 399.725 841.765C401.856 840.97 405.825 839.982 408.548 839.571C411.271 839.16 415.22 838.181 417.324 837.395C419.428 836.61 422.462 835.967 424.067 835.967C426.085 835.967 426.979 835.411 426.966 834.165C426.952 832.725 421.336 830.729 399.023 824.235C383.666 819.765 367.509 815.015 363.121 813.68C354.066 810.924 347.178 810.707 338.836 812.915ZM527.808 812.346C510.307 816.819 502.366 818.752 482.005 823.496C477.411 824.566 469.503 826.47 464.433 827.727C459.363 828.985 452.751 830.487 449.742 831.067C445.587 831.867 444.268 832.584 444.268 834.044C444.268 835.27 445.09 835.967 446.534 835.967C447.779 835.967 450.502 836.629 452.583 837.438C454.664 838.248 460.04 839.929 464.527 841.174C472.076 843.268 472.981 843.321 476.625 841.874C478.793 841.014 483.935 839.557 488.055 838.634C492.174 837.712 498.396 836.244 501.882 835.372C505.367 834.499 511.33 833.101 515.133 832.265C518.935 831.43 522.824 830.45 523.775 830.091C524.725 829.73 528.874 828.627 532.993 827.64C537.112 826.651 544.372 824.85 549.125 823.637C553.878 822.424 559.219 821.171 560.993 820.851C565.46 820.048 564.578 817.235 559.487 816.054C557.273 815.54 552.721 814.25 549.369 813.185C543.048 811.178 533.786 810.818 527.808 812.346ZM608.466 818.082C603.396 819.459 596.915 821.205 594.063 821.963C586.83 823.886 587.421 825.858 595.791 827.728C599.594 828.578 603.224 829.57 603.857 829.931C604.491 830.293 608.09 831.156 611.854 831.847C615.62 832.539 619.509 833.481 620.496 833.941C621.485 834.402 626.183 835.784 630.936 837.013C635.689 838.242 643.628 840.363 648.579 841.727C653.529 843.09 658.333 844.206 659.253 844.206C660.173 844.206 661.827 844.661 662.927 845.217C664.78 846.154 668.215 847.057 685.092 851.047C688.578 851.87 692.467 852.953 693.734 853.451C695.002 853.951 699.928 855.348 704.681 856.557C709.434 857.766 715.656 859.382 718.508 860.147C721.36 860.913 726.026 862.062 728.878 862.699C731.73 863.336 735.101 864.285 736.368 864.807C738.497 865.683 745.604 867.514 757.18 870.166C761.197 871.087 763.155 870.849 771.008 868.481C776.038 866.965 780.932 865.441 781.883 865.096C782.833 864.751 785.91 863.733 788.72 862.834C797.972 859.871 797.366 859.555 768.632 852.345C754.819 848.879 744.639 846.231 739.249 844.702C736.397 843.892 731.99 842.784 729.455 842.24C726.92 841.695 721.086 840.292 716.492 839.122C711.897 837.953 704.638 836.111 700.36 835.03C696.081 833.947 686.1 831.348 678.179 829.252C670.257 827.156 660.405 824.645 656.285 823.672C652.166 822.698 648.018 821.613 647.067 821.261C646.117 820.909 643.006 820.099 640.154 819.462C637.302 818.825 632.747 817.643 630.031 816.837C623.434 814.877 619.418 815.11 608.466 818.082ZM576.203 826.347C569.435 827.638 551.733 832.086 550.005 832.93C548.905 833.468 547.219 833.907 546.26 833.907C541.489 833.907 547.379 837.732 554.886 839.509C562.89 841.404 574.286 844.583 577.355 845.779C579.256 846.518 582.886 847.455 585.421 847.859C587.956 848.263 590.549 848.935 591.182 849.354C591.816 849.773 595.187 850.711 598.672 851.439C602.158 852.167 605.787 853.13 606.738 853.579C608.874 854.588 623.264 858.37 628.343 859.256C630.402 859.616 632.088 860.255 632.088 860.677C632.088 861.1 635.329 862.012 639.29 862.705C643.251 863.398 647.01 864.343 647.643 864.804C648.277 865.265 651.648 866.349 655.133 867.212C670.354 870.982 673.226 871.774 675.351 872.79C676.59 873.382 680.072 874.198 683.09 874.603C686.108 875.006 688.829 875.702 689.136 876.145C689.443 876.589 692.418 877.523 695.747 878.22C699.076 878.919 702.319 879.831 702.952 880.249C703.586 880.667 706.884 881.592 710.281 882.304C717.201 883.755 725.843 883.173 731.47 880.878C733.53 880.038 737.031 878.892 739.249 878.33C747.035 876.359 754.5 873.545 754.651 872.526C754.735 871.959 752.471 870.881 749.619 870.129C746.767 869.377 743.397 868.357 742.129 867.863C740.862 867.367 736.973 866.29 733.487 865.467C730.002 864.644 724.298 863.201 720.812 862.257C717.327 861.314 711.623 859.862 708.138 859.03C704.652 858.199 700.763 857.089 699.496 856.563C698.228 856.038 694.339 854.927 690.854 854.094C687.368 853.261 681.405 851.837 677.602 850.929C673.8 850.021 669.652 848.841 668.384 848.305C667.117 847.77 664.006 846.883 661.471 846.335C658.936 845.787 653.232 844.35 648.796 843.142C644.359 841.933 637.878 840.271 634.392 839.448C630.907 838.625 627.018 837.522 625.75 836.997C624.483 836.472 620.594 835.361 617.108 834.53C613.623 833.698 607.919 832.254 604.434 831.322C583.905 825.833 581.304 825.374 576.203 826.347ZM427.961 836.469C427.553 836.832 423.925 837.812 419.9 838.647C406.938 841.33 401.034 843.535 402.22 845.249C402.528 845.693 405.504 846.629 408.833 847.326C412.162 848.024 415.411 848.963 416.053 849.413C419.381 851.747 428.299 852.683 435.367 851.442C439.313 850.75 443.059 849.881 443.692 849.511C444.326 849.141 448.474 848.121 452.91 847.241C465 844.846 463.846 843.366 445.997 838.381C439.508 836.569 429.084 835.463 427.961 836.469ZM534.134 837.217C531.922 837.691 526.742 838.971 522.622 840.06C518.503 841.151 512.151 842.774 508.507 843.668C504.266 844.708 501.882 845.838 501.882 846.809C501.882 847.643 502.888 848.325 504.118 848.325C505.349 848.325 506.621 848.71 506.946 849.181C507.272 849.651 510.405 850.609 513.908 851.31C517.412 852.011 520.55 852.975 520.88 853.454C521.211 853.933 523.663 854.654 526.329 855.057C528.995 855.458 531.973 856.194 532.949 856.688C535.054 857.757 552.385 862.742 553.995 862.742C554.611 862.742 556.748 863.395 558.745 864.194C560.742 864.992 570.154 867.812 579.66 870.459C589.166 873.105 597.981 875.71 599.248 876.245C600.516 876.782 604.274 877.902 607.602 878.734C610.93 879.567 616.373 880.931 619.701 881.764C623.029 882.596 626.787 883.739 628.055 884.303C630.522 885.399 637.96 887.581 654.557 892.077C660.261 893.621 666.561 895.531 668.558 896.32C670.555 897.11 672.849 897.756 673.657 897.756C675.176 897.756 690.825 893.216 694.886 891.596C696.154 891.09 698.487 890.389 700.072 890.038C704.268 889.107 711.594 886.217 711.594 885.493C711.594 884.689 706.224 882.621 701.8 881.722C699.899 881.335 693.936 879.739 688.549 878.176C683.162 876.612 673.31 873.852 666.656 872.042C660.002 870.231 652.483 868.123 649.948 867.355C647.413 866.588 641.45 864.946 636.697 863.706C631.944 862.467 624.166 860.296 619.413 858.884C614.66 857.471 607.531 855.444 603.569 854.379C594.481 851.937 585.478 849.434 568.713 844.689C541.379 836.954 538.384 836.307 534.134 837.217ZM489.725 848.186C489.124 848.676 485.26 849.646 481.141 850.342C477.022 851.038 473.133 851.973 472.499 852.42C471.865 852.867 468.495 853.767 465.009 854.42C458.221 855.691 452.334 857.694 452.334 858.733C452.334 859.084 455.316 860.157 458.96 861.118C462.603 862.078 467.4 863.585 469.618 864.464C471.836 865.345 475.985 866.652 478.836 867.372C485.325 869.01 504.757 874.919 509.371 876.658C511.273 877.374 514.125 878.273 515.709 878.655C517.293 879.036 519.627 879.719 520.894 880.171C522.162 880.624 525.273 881.552 527.808 882.235C530.343 882.916 533.454 883.865 534.721 884.342C537.464 885.375 546.515 888.1 553.734 890.068C560.645 891.951 568.754 894.5 571.594 895.681C572.861 896.208 576.232 897.168 579.084 897.814C581.935 898.46 584.787 899.335 585.421 899.759C586.055 900.183 591.24 901.797 596.944 903.345C602.648 904.893 609.647 906.973 612.499 907.968C626.52 912.858 626.101 912.849 640.975 908.573C648.446 906.426 655.05 904.272 655.652 903.787C656.254 903.302 657.437 902.905 658.281 902.905C659.126 902.905 661.711 902.198 664.028 901.333C667.613 899.994 667.994 899.558 666.583 898.406C665.673 897.661 657.927 895.056 649.372 892.615C640.816 890.175 630.851 887.321 627.228 886.274C623.603 885.225 619.844 884.368 618.874 884.368C617.902 884.368 617.108 883.905 617.108 883.339C617.108 882.772 616.342 882.309 615.405 882.309C613.804 882.309 583.505 873.866 578.508 872.027C577.24 871.561 568.425 868.987 558.919 866.309C537.828 860.365 528.535 857.648 525.503 856.536C524.236 856.07 518.532 854.448 512.828 852.93C507.125 851.412 500.755 849.522 498.674 848.733C494.342 847.087 491.304 846.902 489.725 848.186Z" fill="#F38310"/>
<path fill-rule="evenodd" clip-rule="evenodd" d="M826.245 238.722C814.204 239.728 792.686 241.538 778.426 242.743C764.167 243.949 743.945 245.601 733.488 246.414C702.694 248.812 701.962 248.897 700.5 250.249C699.729 250.961 695.364 258.032 690.8 265.961C675.14 293.164 667.549 306.125 666.674 307.154C666.191 307.721 660.725 316.989 654.526 327.751C648.328 338.512 641.346 350.561 639.01 354.526C627.707 373.711 622.487 382.421 621.728 383.361C619.252 386.432 619.901 389.207 624.899 396.924C629.86 404.584 631.947 407.888 636.647 415.531C637.775 417.365 639.228 419.45 639.877 420.165C640.525 420.879 643.512 425.635 646.514 430.733C653.251 442.172 656.012 446.756 657.366 448.755C663.293 457.499 683.885 490.252 688.022 497.513C691.02 502.778 694.976 506.527 696.853 505.883C697.689 505.596 699.103 503.863 699.995 502.031C700.887 500.199 701.927 498.469 702.307 498.186C702.688 497.903 703.643 496.512 704.43 495.096C705.855 492.53 708.548 488.045 723.906 462.657C728.359 455.294 734.483 445.099 737.514 440.001C740.544 434.903 745.092 427.257 747.62 423.009C750.147 418.761 753.126 413.895 754.238 412.196C755.351 410.497 760.558 401.923 765.809 393.144C779.499 370.255 781.823 366.408 785.093 361.22C786.7 358.671 790.069 353.11 792.582 348.862C797.62 340.345 813.637 314.23 815.321 311.788C816.513 310.059 821.212 302.334 825.344 295.311C826.843 292.763 829.389 288.592 831 286.043C832.611 283.494 836.506 277.006 839.658 271.625C842.809 266.245 845.87 261.147 846.458 260.297C851.487 253.05 858.839 239.297 858.326 238.101C857.54 236.27 854.974 236.32 826.245 238.722ZM872.506 252.316C870.718 255.29 866.441 262.47 863.003 268.272C859.563 274.074 854.423 282.339 851.579 286.637C848.736 290.935 846.41 294.616 846.41 294.818C846.41 295.223 838.156 308.943 817.615 342.683C804.645 363.987 799.271 372.914 798.396 374.607C797.957 375.457 794.771 380.786 791.316 386.45C787.861 392.114 783.22 399.761 781.004 403.442C778.787 407.124 774.967 413.23 772.514 417.009C770.062 420.79 768.056 424.132 768.056 424.434C768.056 424.738 763.908 431.686 758.838 439.875C753.768 448.065 749.62 455.266 749.62 455.879C749.62 456.492 749.179 456.993 748.642 456.993C748.104 456.993 746.821 458.731 745.79 460.855C744.758 462.979 742.071 467.497 739.818 470.896C737.567 474.294 734.97 478.547 734.049 480.346C733.128 482.145 730.803 486 728.882 488.912C725.634 493.836 717.18 507.597 706.103 525.991C703.545 530.239 700.157 535.74 698.574 538.215L695.698 542.715L693.672 539.76C692.558 538.135 690.431 535.076 688.946 532.964C687.461 530.853 686.245 528.87 686.245 528.559C686.245 528.248 683.21 523.257 679.502 517.467C664.331 493.784 655.134 478.774 655.134 477.699C655.134 477.072 654.675 476.56 654.116 476.56C653.556 476.56 652.802 475.749 652.439 474.758C652.076 473.766 650.389 470.87 648.689 468.321C645.553 463.614 642.193 458.188 634.273 445.042C631.849 441.019 627.519 434.299 624.651 430.11C621.781 425.921 618.522 420.872 617.407 418.89C616.293 416.907 615.111 415.054 614.781 414.77C614.452 414.487 611.74 409.975 608.755 404.742C605.771 399.511 601.912 393.254 600.18 390.839C596.174 385.257 594.179 382.103 588.602 372.548C586.122 368.3 582.375 362.275 580.276 359.16C575.593 352.213 572.88 347.971 568.421 340.623C566.53 337.508 562.004 330.325 558.363 324.661C554.722 318.997 549.807 311.003 547.443 306.897C545.078 302.791 542.452 299.431 541.609 299.431C540.764 299.431 538.961 300.705 537.6 302.263C536.239 303.821 526.739 312.748 516.487 322.102C487.636 348.428 473.076 362.026 473.076 362.645C473.076 363.498 462.309 382.987 460.208 385.936C459.199 387.352 457.491 390.647 456.411 393.258C454.454 397.995 454.456 398.018 457.654 403.556C459.416 406.609 461.145 409.338 461.494 409.621C461.843 409.905 463.769 412.917 465.774 416.315C467.777 419.714 470.82 424.811 472.536 427.643C474.252 430.475 478.12 436.963 481.132 442.061C484.144 447.158 488.488 454.11 490.786 457.508C493.083 460.906 494.964 463.998 494.965 464.378C494.967 464.758 497.624 469.16 500.87 474.161C504.116 479.162 507.74 485.107 508.924 487.373C510.106 489.638 512.612 493.809 514.491 496.641C516.372 499.473 519.765 505.034 522.034 508.999C524.302 512.964 527.344 518.061 528.792 520.327C530.242 522.593 535.218 530.693 539.853 538.328C544.487 545.963 549.414 553.841 550.803 555.835C552.19 557.829 555.078 562.704 557.219 566.669C559.36 570.634 563.281 577.161 565.932 581.174C568.585 585.187 573.247 592.834 576.294 598.166C579.341 603.498 583.308 610.112 585.11 612.864C586.913 615.614 591.56 623.261 595.437 629.856C599.316 636.45 603.339 643.004 604.381 644.42C605.423 645.836 606.904 648.153 607.673 649.569C608.443 650.985 610.393 654.229 612.008 656.778C613.623 659.327 618.217 666.973 622.218 673.77C626.22 680.567 631.023 688.445 632.893 691.277C634.763 694.109 639.57 701.987 643.576 708.784C647.583 715.581 652.815 724.386 655.205 728.351C657.595 732.316 660.76 737.621 662.24 740.141C663.718 742.661 665.826 745.442 666.922 746.32C668.752 747.784 670.791 750.939 677.276 762.335C678.565 764.6 680.065 767.149 680.611 767.999C681.156 768.848 683.7 772.787 686.261 776.752C688.823 780.717 691.232 785.251 691.615 786.83C693.084 792.883 699.088 792.14 700.803 785.691C701.878 781.645 709.177 770.217 711.394 769.108C712.445 768.583 712.929 767.819 712.471 767.409C711.544 766.581 717.208 756.671 718.608 756.671C719.527 756.671 722.888 751.597 731.226 737.619C733.929 733.088 737.241 727.759 738.585 725.776C739.93 723.794 741.795 720.782 742.73 719.082C743.666 717.383 744.72 715.761 745.074 715.478C745.428 715.195 746.399 713.456 747.232 711.616C748.065 709.776 749.202 708.269 749.759 708.269C750.317 708.269 750.772 707.753 750.772 707.123C750.772 706.493 755.103 699.193 760.397 690.903C768.758 677.809 774.39 668.825 785.342 651.114C786.743 648.849 788.293 646.531 788.787 645.965C789.281 645.399 792.005 640.996 794.841 636.182C797.678 631.367 801.038 625.806 802.309 623.824C803.58 621.842 809.373 612.805 815.18 603.742C820.988 594.68 826.34 586.339 827.075 585.206C827.809 584.073 829.356 581.524 830.513 579.542C831.669 577.559 833.123 575.242 833.742 574.393C835.923 571.403 847.562 552.869 847.562 552.387C847.562 552.119 850.212 547.808 853.45 542.807C856.689 537.806 859.799 532.788 860.362 531.655C860.924 530.522 861.888 528.9 862.506 528.051C863.123 527.201 867.039 521.177 871.209 514.663C875.38 508.149 879.266 502.125 879.846 501.275C880.426 500.426 882.405 497.182 884.242 494.067C886.081 490.951 888.762 486.549 890.2 484.283C891.638 482.018 894.628 477.152 896.845 473.47C899.063 469.789 903.119 463.455 905.86 459.396C908.601 455.336 913.263 447.921 916.221 442.919C921.226 434.452 925.321 427.91 951.712 386.221C957.171 377.598 961.637 369.677 961.637 368.616C961.637 367.555 959.663 363.952 957.251 360.607C954.84 357.262 951.599 352.472 950.05 349.961C947.239 345.405 935.963 328.605 928.102 317.264C925.82 313.969 919.164 304.091 913.314 295.311C898.262 272.723 887.271 256.38 883.707 251.287C879.414 245.153 876.663 245.406 872.506 252.316ZM429.103 407.264C423.987 407.648 423.196 408.167 412.509 418.17C406.337 423.947 392.94 436.345 382.737 445.723C347.647 477.974 345.174 480.37 345.174 482.123C345.174 483.09 348.66 489.764 352.919 496.955C361.555 511.53 367.136 521.044 375.81 535.979C379.036 541.53 383.903 549.78 386.625 554.311C398.327 573.779 407.71 589.741 422.946 616.1C428.629 625.932 434.042 635.12 446.912 656.778C450.111 662.159 454.53 669.805 456.733 673.77C458.937 677.735 461.113 681.211 461.568 681.494C462.022 681.777 462.787 683.167 463.267 684.583C463.747 685.999 464.549 687.621 465.048 688.188C465.548 688.754 468.66 693.852 471.965 699.516C475.268 705.18 480.043 713.29 482.576 717.538C485.109 721.786 490.162 730.359 493.807 736.589C497.452 742.82 502.186 750.906 504.327 754.56C506.468 758.212 509.127 762.036 510.236 763.056C511.346 764.075 512.253 765.836 512.253 766.969C512.253 768.102 512.698 769.029 513.245 769.029C514.27 769.029 517.45 774.437 521.041 782.287C522.175 784.764 524.421 788.307 526.031 790.158C527.642 792.011 529.493 794.327 530.145 795.305C531.756 797.725 556.3 799.29 594.64 799.418C610.483 799.471 635.04 800.111 649.212 800.841C666.944 801.753 675.349 801.835 676.168 801.102C677.656 799.773 675.463 794.663 672.313 792.114C671.103 791.136 670.113 789.945 670.113 789.468C670.113 788.991 667.507 784.405 664.321 779.276C661.135 774.148 658.812 769.541 659.16 769.039C659.507 768.536 659.059 767.75 658.165 767.289C656.145 766.252 649.097 754.625 637.37 732.985C631.593 722.324 625.47 712.037 617.756 700.031C615.027 695.783 610.974 689.008 608.751 684.976C604.594 677.438 598.694 667.989 597.576 667.076C597.229 666.793 594.296 661.927 591.061 656.263C584.031 643.958 576.823 631.943 575.617 630.518C575.136 629.951 572.167 625.085 569.018 619.705C560.884 605.81 554.738 595.673 553.723 594.474C553.243 593.908 550.37 589.042 547.337 583.661C544.304 578.28 541.511 573.646 541.13 573.363C540.748 573.08 539.794 571.689 539.009 570.273C535.301 563.579 498.588 502.707 492.18 492.627C488.802 487.311 482.034 476.144 476.516 466.776C472.12 459.313 466.901 450.661 460.363 440.001C458.278 436.603 454.528 430.347 452.027 426.099C449.528 421.851 446.978 417.821 446.361 417.142C445.745 416.465 444.114 413.916 442.739 411.478C440.038 406.697 439.381 406.494 429.103 407.264Z" fill="#040404"/>
</svg>
