<?xml version="1.0" encoding="UTF-8"?>
<svg version="1.1" xmlns="http://www.w3.org/2000/svg" width="435" height="116">
<path d="M0 0 C143.55 0 287.1 0 435 0 C435 38.28 435 76.56 435 116 C291.45 116 147.9 116 0 116 C0 77.72 0 39.44 0 0 Z " fill="#FBFBFB" transform="translate(0,0)"/>
<path d="M0 0 C6.18613279 5.04990432 9.90316149 11.82646043 10.88671875 19.73046875 C11.17394502 26.75265588 9.50500439 31.78022491 6.5625 38.125 C1.6125 38.125 -3.3375 38.125 -8.4375 38.125 C-7.9425 37.135 -7.9425 37.135 -7.4375 36.125 C-6.7775 36.125 -6.1175 36.125 -5.4375 36.125 C-2.43844841 30.55533277 -0.77812825 25.49892696 -1.4375 19.125 C-3.63653633 12.78939805 -6.81503034 9.08309171 -12.75 5.875 C-17.30854366 4.60284828 -21.23002766 4.15547494 -25.58984375 6.0703125 C-31.94415577 9.83320118 -35.42734957 13.92196097 -37.4375 21.125 C-41.0675 21.125 -44.6975 21.125 -48.4375 21.125 C-48.14215346 13.15064343 -45.12582734 7.15093168 -39.73046875 1.26171875 C-27.99596078 -9.41323997 -12.67328174 -8.98478929 0 0 Z " fill="#088FAB" transform="translate(109.4375,25.875)"/>
<path d="M0 0 C3.96 0 7.92 0 12 0 C12.350625 1.36125 12.70125 2.7225 13.0625 4.125 C14.75300701 9.25314087 17.48285915 12.12545582 22 15 C27.65010314 16.88336771 32.7269298 16.28427718 38.140625 14.0390625 C42.56843574 11.56469767 44.92051541 7.8673475 46.3125 3.125 C46.539375 2.09375 46.76625 1.0625 47 0 C50.96 0 54.92 0 59 0 C58.68198043 8.58652837 55.02777195 15.48401021 48.75 21.375 C41.28618721 27.1365397 33.30089376 29.06686723 24 28 C15.8788196 26.72768174 10.41309022 21.9777651 5 16 C1.41167533 10.95745955 0.43560639 6.09848942 0 0 Z " fill="#252122" transform="translate(311,50)"/>
<path d="M0 0 C4.38264282 3.63798139 6.84561006 7.74166089 9.1875 12.875 C9.6825 13.865 9.6825 13.865 10.1875 14.875 C10.22772391 17.2079866 10.23070247 19.54206666 10.1875 21.875 C6.5575 21.875 2.9275 21.875 -0.8125 21.875 C-1.204375 20.658125 -1.59625 19.44125 -2 18.1875 C-3.76010007 13.49666727 -6.29965892 10.4297862 -10.60546875 7.765625 C-15.11512621 5.94579863 -20.04976425 6.35786649 -24.8125 6.875 C-30.41463564 9.57602968 -33.86928275 13.37547428 -36.0625 19.1875 C-36.31 20.074375 -36.5575 20.96125 -36.8125 21.875 C-40.4425 21.875 -44.0725 21.875 -47.8125 21.875 C-47.17114121 12.89597692 -44.35084673 6.62563491 -37.7421875 0.4140625 C-26.48512716 -8.56424068 -11.56726274 -8.28154525 0 0 Z " fill="#068EAB" transform="translate(358.8125,25.125)"/>
<path d="M0 0 C0.66 0 1.32 0 2 0 C5.32702379 6.51010624 8.65336471 13.02056105 11.97924805 19.53125 C13.1089764 21.74259194 14.23885671 23.95385625 15.36889648 26.16503906 C17.00024463 29.35721392 18.63103238 32.54967454 20.26171875 35.7421875 C20.76088303 36.71864227 21.2600473 37.69509705 21.77433777 38.70114136 C24.88117649 44.78526537 27.95265388 50.88585144 31 57 C26.71 57 22.42 57 18 57 C17.566875 55.535625 17.13375 54.07125 16.6875 52.5625 C15.48418004 49.9141649 15.48418004 49.9141649 13 48 C6.8532764 46.46617538 0.28644822 46.84576918 -6 47 C-5.27758802 42.88295306 -3.97646289 39.69512628 -2 36 C0.97 36 3.94 36 7 36 C6.70754395 35.42032471 6.41508789 34.84064941 6.11376953 34.2434082 C4.78205168 31.60083837 3.45349925 28.95668929 2.125 26.3125 C1.66480469 25.40048828 1.20460937 24.48847656 0.73046875 23.54882812 C0.06337891 22.21948242 0.06337891 22.21948242 -0.6171875 20.86328125 C-1.22989502 19.64572144 -1.22989502 19.64572144 -1.85498047 18.40356445 C-5.15067147 11.48542417 -5.15067147 11.48542417 -4.1015625 8.10546875 C-3.61429688 7.14253906 -3.12703125 6.17960937 -2.625 5.1875 C-2.14289063 4.21167969 -1.66078125 3.23585938 -1.1640625 2.23046875 C-0.77992188 1.49441406 -0.39578125 0.75835938 0 0 Z " fill="#231F20" transform="translate(203,20)"/>
<path d="M0 0 C0.66 0 1.32 0 2 0 C2.46672119 0.94129761 2.46672119 0.94129761 2.94287109 1.90161133 C8.32140323 12.73663964 13.71124997 23.56060697 19.375 34.25 C22.15771214 39.50476521 24.93310773 44.76047854 27.625 50.0625 C28.09164062 50.98160156 28.55828125 51.90070313 29.0390625 52.84765625 C30 55 30 55 30 57 C26.04 57 22.08 57 18 57 C17.566875 55.535625 17.13375 54.07125 16.6875 52.5625 C15.48418004 49.9141649 15.48418004 49.9141649 13 48 C6.8532764 46.46617538 0.28644822 46.84576918 -6 47 C-5.27758802 42.88295306 -3.97646289 39.69512628 -2 36 C0.97 36 3.94 36 7 36 C6.63124756 35.3294458 6.26249512 34.6588916 5.88256836 33.96801758 C4.21936059 30.92402361 2.57830901 27.86862136 0.9375 24.8125 C0.35677734 23.75740234 -0.22394531 22.70230469 -0.82226562 21.61523438 C-1.36689453 20.59365234 -1.91152344 19.57207031 -2.47265625 18.51953125 C-3.23461304 17.11344604 -3.23461304 17.11344604 -4.01196289 15.67895508 C-5.43124883 11.83071574 -4.61635906 9.41836844 -3.02734375 5.76171875 C-2.48787109 4.73498047 -2.48787109 4.73498047 -1.9375 3.6875 C-1.57527344 2.99011719 -1.21304687 2.29273438 -0.83984375 1.57421875 C-0.56269531 1.05472656 -0.28554688 0.53523438 0 0 Z " fill="#231F20" transform="translate(31,20)"/>
<path d="M0 0 C3.63 0 7.26 0 11 0 C11.556875 1.381875 12.11375 2.76375 12.6875 4.1875 C14.86146058 9.05594694 17.29103105 12.61969982 22.16479492 15.10302734 C25.7589438 16.24010674 29.19168208 16.35397999 32.92578125 16.4140625 C33.67337204 16.43342865 34.42096283 16.4527948 35.19120789 16.4727478 C37.56485806 16.53223918 39.93855754 16.57880592 42.3125 16.625 C43.92775482 16.66320789 45.54298987 16.70226125 47.15820312 16.7421875 C51.1053071 16.8379153 55.05250639 16.92205767 59 17 C59 20.63 59 24.26 59 28 C54.03789993 28.09961748 49.0763946 28.1718178 44.11352539 28.21972656 C42.42885179 28.23971886 40.74424649 28.26692223 39.05981445 28.30175781 C26.31479499 28.55854635 17.43618836 27.89701522 7.72265625 18.859375 C2.85390333 13.60421311 0 7.17972896 0 0 Z " fill="#242021" transform="translate(61,50)"/>
<path d="M0 0 C3.63 0 7.26 0 11 0 C11.01401855 1.73286255 11.01401855 1.73286255 11.02832031 3.50073242 C11.0682661 7.79685682 11.13403746 12.09226856 11.20751953 16.38793945 C11.23570259 18.24526803 11.2569304 20.10271595 11.27099609 21.96020508 C11.29246284 24.63424661 11.33913069 27.30685735 11.390625 29.98046875 C11.39185364 30.80773972 11.39308228 31.63501068 11.39434814 32.48735046 C11.52294304 37.57693034 12.16252519 40.31987735 16 44 C16.99 44.66 17.98 45.32 19 46 C19.29296875 48.6015625 19.29296875 48.6015625 19.1875 51.625 C19.16042969 52.62789062 19.13335937 53.63078125 19.10546875 54.6640625 C19.07066406 55.43492188 19.03585938 56.20578125 19 57 C12.06826626 55.88597136 7.61343815 53.36018091 3 48 C-0.35890124 42.68860861 -0.39891774 38.30090247 -0.29296875 32.2265625 C-0.28872391 31.3028183 -0.28447906 30.3790741 -0.28010559 29.42733765 C-0.26338673 26.4929217 -0.22574716 23.55920644 -0.1875 20.625 C-0.17244438 18.62891621 -0.15875751 16.63282159 -0.14648438 14.63671875 C-0.11350545 9.75754478 -0.06177014 4.87889097 0 0 Z " fill="#201C1D" transform="translate(130,21)"/>
<path d="M0 0 C3.63 0 7.26 0 11 0 C11.09964824 5.37104009 11.17183292 10.74152986 11.21972656 16.11328125 C11.23971364 17.93661892 11.26691286 19.75989356 11.30175781 21.58300781 C11.71593476 43.82674645 11.71593476 43.82674645 5.2578125 50.91113281 C1.3478996 54.57555003 -2.52926832 57 -8 57 C-8.3443068 52.94483097 -8.54433674 49.04210448 -8 45 C-5.0625 42.375 -5.0625 42.375 -2 41 C-0.33650681 37.67301363 -0.75621943 33.93570615 -0.68359375 30.2734375 C-0.66281265 29.41062164 -0.64203156 28.54780579 -0.62062073 27.65884399 C-0.55513966 24.89764507 -0.49624702 22.13634962 -0.4375 19.375 C-0.3943134 17.50519828 -0.35069907 15.63540638 -0.30664062 13.765625 C-0.19945976 9.17718272 -0.09818825 4.58864317 0 0 Z " fill="#078EAB" transform="translate(161,21)"/>
<path d="M0 0 C3.63 0 7.26 0 11 0 C11 18.81 11 37.62 11 57 C7.37 57 3.74 57 0 57 C0 38.19 0 19.38 0 0 Z " fill="#221E1F" transform="translate(239,20)"/>
<path d="M0 0 C0.76166977 0.00222061 1.52333954 0.00444122 2.30809021 0.00672913 C3.16890701 0.00680466 4.02972382 0.00688019 4.91662598 0.00695801 C5.8520372 0.01211929 6.78744843 0.01728058 7.75120544 0.02259827 C8.70422043 0.02401321 9.65723541 0.02542816 10.63912964 0.02688599 C13.69605085 0.032503 16.75289996 0.04505836 19.80979919 0.05775452 C21.87685543 0.06276733 23.94391281 0.06733061 26.01097107 0.07142639 C31.08977507 0.08247795 36.16852489 0.09975397 41.24729919 0.12025452 C41.24729919 3.75025452 41.24729919 7.38025452 41.24729919 11.12025452 C24.74729919 11.12025452 8.24729919 11.12025452 -8.75270081 11.12025452 C-2.16987442 0.14887721 -2.16987442 0.14887721 0 0 Z " fill="#211E1E" transform="translate(268.75270080566406,65.87974548339844)"/>
<path d="M0 0 C4.13561256 3.33146568 6.06291384 5.33919645 6.75 10.75 C6.51717479 15.00508151 5.04537931 17.56381594 2.25 20.8125 C-1.21192259 23.69743549 -4.23501827 24.3473575 -8.75390625 24.16796875 C-12.10458518 23.5712725 -14.20623604 21.99286911 -16.75 19.8125 C-19.49637397 15.40137195 -19.42014565 10.85493738 -18.75 5.8125 C-14.58236499 -1.33201716 -7.56980142 -3.26877789 0 0 Z " fill="#EFEFEF" transform="translate(426.75,3.1875)"/>
<path d="M0 0 C0.66 0 1.32 0 2 0 C2.87471834 1.36201818 3.72397503 2.74040563 4.5625 4.125 C5.03816406 4.89070313 5.51382813 5.65640625 6.00390625 6.4453125 C7.56722585 10.45476747 6.5214965 13.74005698 4.90844727 17.63720703 C4.46557373 18.50200684 4.0227002 19.36680664 3.56640625 20.2578125 C2.8403418 21.69060547 2.8403418 21.69060547 2.09960938 23.15234375 C1.59236328 24.13332031 1.08511719 25.11429688 0.5625 26.125 C-0.19256836 27.60806641 -0.19256836 27.60806641 -0.96289062 29.12109375 C-1.89795691 30.95645626 -2.83630895 32.79015127 -3.77905273 34.62158203 C-4.86680741 36.74053945 -5.93480605 38.86961209 -7 41 C-11.29 41 -15.58 41 -20 41 C-18.61445771 36.84337313 -17.39432273 33.58099645 -15.390625 29.8046875 C-14.88563477 28.8463501 -14.38064453 27.8880127 -13.86035156 26.90063477 C-13.06322754 25.40294556 -13.06322754 25.40294556 -12.25 23.875 C-11.16591031 21.81940913 -10.08256967 19.76342304 -9 17.70703125 C-8.48179687 16.72428223 -7.96359375 15.7415332 -7.4296875 14.72900391 C-4.87728609 9.85695081 -2.42141829 4.93841887 0 0 Z " fill="#078EAB" transform="translate(195,36)"/>
<path d="M0 0 C0.66 0 1.32 0 2 0 C2.87144869 1.5529276 3.72153657 3.11785436 4.5625 4.6875 C5.03816406 5.55761719 5.51382812 6.42773438 6.00390625 7.32421875 C7.5123555 11.37632751 6.4628672 13.97938133 4.70898438 17.84667969 C4.17595703 18.86149414 3.64292969 19.87630859 3.09375 20.921875 C2.51496094 22.02917969 1.93617187 23.13648438 1.33984375 24.27734375 C0.73269531 25.42332031 0.12554688 26.56929687 -0.5 27.75 C-1.10714844 28.91144531 -1.71429687 30.07289062 -2.33984375 31.26953125 C-6.84124846 39.84124846 -6.84124846 39.84124846 -8 41 C-10.01964199 41.07244053 -12.04167124 41.08377188 -14.0625 41.0625 C-15.16722656 41.05347656 -16.27195312 41.04445312 -17.41015625 41.03515625 C-18.69212891 41.01775391 -18.69212891 41.01775391 -20 41 C-18.51841292 35.99379525 -16.36215424 31.67899624 -13.875 27.125 C-9.41131086 18.83229111 -5.17306132 10.44193272 -1 2 C-0.67 1.34 -0.34 0.68 0 0 Z " fill="#068EAB" transform="translate(23,36)"/>
<path d="M0 0 C15.18 0 30.36 0 46 0 C42 8 42 8 40 10 C36.98691049 10.17546482 34.06689546 10.23127445 31.0546875 10.1953125 C30.1696756 10.1924826 29.2846637 10.18965271 28.37283325 10.18673706 C25.54008588 10.1755224 22.70765216 10.1504157 19.875 10.125 C17.95703581 10.11497185 16.03906667 10.10584572 14.12109375 10.09765625 C9.41394124 10.07557889 4.70702384 10.04104045 0 10 C0 6.7 0 3.4 0 0 Z " fill="#1E191B" transform="translate(261,21)"/>
<path d="M0 0 C12.54 0 25.08 0 38 0 C38 3.63 38 7.26 38 11 C25.46 11 12.92 11 0 11 C0 7.37 0 3.74 0 0 Z " fill="#008CA9" transform="translate(379,66)"/>
<path d="M0 0 C3.3 0 6.6 0 10 0 C10 13.53 10 27.06 10 41 C6.7 41 3.4 41 0 41 C0 27.47 0 13.94 0 0 Z " fill="#1F1A1B" transform="translate(379,21)"/>
<path d="M0 0 C3.33921688 0.06224417 6.07892746 0.41379191 9.25 1.44140625 C0.01752347 25.31683246 0.01752347 25.31683246 -7.6328125 29.46142578 C-11.49808368 30.33373986 -15.03938277 29.64386486 -18.75 28.44140625 C-8.49306949 1.91671521 -8.49306949 1.91671521 0 0 Z " fill="#058EAA" transform="translate(288.75,33.55859375)"/>
<path d="M0 0 C4.4297642 0.79102932 5.89210172 1.98974785 8.5 5.625 C9.21235686 9.4242366 8.81263988 11.06224821 6.9375 14.4375 C3.77350128 17.27698603 1.70842764 17.54984951 -2.5 17.625 C-5.89808026 16.52291992 -6.44731917 15.70402124 -8.5 12.625 C-9.06551375 8.26246537 -8.99322651 6.32747412 -6.4375 2.6875 C-3.5 0.625 -3.5 0.625 0 0 Z " fill="#242021" transform="translate(90.5,39.375)"/>
<path d="M0 0 C0.13526616 2.5850867 0.23417653 5.16308752 0.3125 7.75 C0.3753418 8.84441406 0.3753418 8.84441406 0.43945312 9.9609375 C0.52785919 13.85080432 0.37025008 15.59310401 -2.2890625 18.515625 C-5 20 -5 20 -8.6875 20 C-9.780625 19.67 -10.87375 19.34 -12 19 C-12.66 17.68 -13.32 16.36 -14 15 C-9.05 15.99 -9.05 15.99 -4 17 C-4 15.68 -4 14.36 -4 13 C-4.928125 13.20625 -5.85625 13.4125 -6.8125 13.625 C-10 14 -10 14 -13 12 C-14.31604296 7.91790267 -14.61608751 4.23217501 -12.6875 0.375 C-8.47830139 -1.77854347 -4.54119741 -0.79730947 0 0 Z " fill="#403C3D" transform="translate(130,95)"/>
<path d="M0 0 C0.99 0 1.98 0 3 0 C3 2.31 3 4.62 3 7 C3.99 6.34 4.98 5.68 6 5 C11.44444444 5.44444444 11.44444444 5.44444444 14 8 C14.30078125 10.05859375 14.30078125 10.05859375 14.3125 12.4375 C14.32925781 13.21996094 14.34601563 14.00242187 14.36328125 14.80859375 C14 17 14 17 12.8359375 18.7734375 C9.12592073 21.25204445 4.27559019 20.15090318 0 20 C0 13.4 0 6.8 0 0 Z " fill="#221E1F" transform="translate(205,89)"/>
<path d="M0 0 C3.63 0 7.26 0 11 0 C11 18.81 11 37.62 11 57 C10.67 57 10.34 57 10 57 C10 38.85 10 20.7 10 2 C7.36 2 4.72 2 2 2 C2 20.15 2 38.3 2 57 C1.34 57 0.68 57 0 57 C0 38.19 0 19.38 0 0 Z " fill="#2A2828" transform="translate(239,20)"/>
<path d="M0 0 C2.375 0.9375 2.375 0.9375 4 3 C4.50786669 6.06431924 4.61329775 8.95008689 4 12 C2.69140625 13.76171875 2.69140625 13.76171875 1 15 C-3.36706908 15.38991688 -5.30513897 15.46324069 -9 13 C-9.96048032 10.02078558 -10.17728184 7.11905242 -10 4 C-7.41475111 -0.23980818 -4.77846651 -0.6968597 0 0 Z " fill="#292425" transform="translate(77,94)"/>
<path d="M0 0 C2.375 1.5625 2.375 1.5625 4 4 C4.56783945 7.97487617 4.62340519 10.06489221 2.375 13.4375 C-0.71685231 15.47161336 -2.36367425 15.60605429 -6 15 C-8.375 13.4375 -8.375 13.4375 -10 11 C-10.56783945 7.02512383 -10.62340519 4.93510779 -8.375 1.5625 C-5.28314769 -0.47161336 -3.63632575 -0.60605429 0 0 Z " fill="#292526" transform="translate(361,94)"/>
<path d="M0 0 C4.13561256 3.33146568 6.06291384 5.33919645 6.75 10.75 C6.51717479 15.00508151 5.04537931 17.56381594 2.25 20.8125 C-1.21192259 23.69743549 -4.23501827 24.3473575 -8.75390625 24.16796875 C-12.10458518 23.5712725 -14.20623604 21.99286911 -16.75 19.8125 C-19.49637397 15.40137195 -19.42014565 10.85493738 -18.75 5.8125 C-14.58236499 -1.33201716 -7.56980142 -3.26877789 0 0 Z M-14.875 3.75 C-17.37999852 7.84149758 -17.84435557 11.12967617 -16.75 15.8125 C-14.47872666 18.83659364 -14.47872666 18.83659364 -11.75 20.8125 C-11.42 21.1425 -11.09 21.4725 -10.75 21.8125 C-4.94106981 22.34422375 -4.94106981 22.34422375 0.1875 19.9375 C2.96068709 17.08027694 3.45503898 15.38949254 3.625 11.5 C3.55699594 7.98645675 3.28222242 6.86512995 1.375 3.75 C-4.0796145 0.36813901 -9.4203855 0.36813901 -14.875 3.75 Z " fill="#312C2E" transform="translate(426.75,3.1875)"/>
<path d="M0 0 C2.17890019 1.59652134 2.90414847 2.48127407 3.3984375 5.15625 C3.39070313 5.9296875 3.38296875 6.703125 3.375 7.5 C3.38273437 8.2734375 3.39046875 9.046875 3.3984375 9.84375 C2.90414847 12.51872593 2.17890019 13.40347866 0 15 C-6.10699588 15.65432099 -6.10699588 15.65432099 -8.6953125 13.7578125 C-10.34361055 11.53705165 -10.40244171 10.24417088 -10.375 7.5 C-10.38273437 6.7265625 -10.39046875 5.953125 -10.3984375 5.15625 C-9.3305481 -0.62291619 -5.10780837 -0.54726518 0 0 Z " fill="#1C1617" transform="translate(61,94)"/>
<path d="M0 0 C1.32 0.33 2.64 0.66 4 1 C4.33 0.67 4.66 0.34 5 0 C7.33297433 -0.04092937 9.66705225 -0.04241723 12 0 C13.32 2.97 14.64 5.94 16 9 C16.99 6.36 17.98 3.72 19 1 C19.99 1 20.98 1 22 1 C21.31371881 5.10997612 20.05572763 8.8015634 18.5625 12.6875 C17.91474609 14.39486328 17.91474609 14.39486328 17.25390625 16.13671875 C16 19 16 19 14 21 C12.68 21 11.36 21 10 21 C10 20.01 10 19.02 10 18 C10.99 17.67 11.98 17.34 13 17 C12.50269348 12.02693484 11.44697666 8.36200187 9 4 C7.35 4.33 5.7 4.66 4 5 C3.67 8.3 3.34 11.6 3 15 C2.01 15 1.02 15 0 15 C0 10.05 0 5.1 0 0 Z " fill="#2A2627" transform="translate(368,94)"/>
<path d="M0 0 C3.51995695 0.68989211 3.51995695 0.68989211 6.8125 -0.125 C9.5625 -0.5 9.5625 -0.5 11.22265625 0.58984375 C13.13960004 3.32274612 12.85636663 5.39013458 12.75 8.6875 C12.72292969 9.77417969 12.69585937 10.86085938 12.66796875 11.98046875 C12.63316406 12.81191406 12.59835938 13.64335938 12.5625 14.5 C11.5725 14.5 10.5825 14.5 9.5625 14.5 C9.2325 10.87 8.9025 7.24 8.5625 3.5 C7.2425 3.5 5.9225 3.5 4.5625 3.5 C4.2325 7.13 3.9025 10.76 3.5625 14.5 C2.5725 14.5 1.5825 14.5 0.5625 14.5 C0.2325 10.87 -0.0975 7.24 -0.4375 3.5 C-1.7575 3.5 -3.0775 3.5 -4.4375 3.5 C-4.7675 7.13 -5.0975 10.76 -5.4375 14.5 C-6.4275 14.5 -7.4175 14.5 -8.4375 14.5 C-8.4375 9.88 -8.4375 5.26 -8.4375 0.5 C-3.4375 -0.5 -3.4375 -0.5 0 0 Z " fill="#211E1F" transform="translate(189.4375,94.5)"/>
<path d="M0 0 C2.97 0 5.94 0 9 0 C9 6.6 9 13.2 9 20 C8.01 20 7.02 20 6 20 C5.67 16.04 5.34 12.08 5 8 C4.01 8 3.02 8 2 8 C2 11.96 2 15.92 2 20 C1.01 20 0.02 20 -1 20 C-1 16.04 -1 12.08 -1 8 C-1.99 8 -2.98 8 -4 8 C-4 7.01 -4 6.02 -4 5 C-3.01 5 -2.02 5 -1 5 C-0.67 3.35 -0.34 1.7 0 0 Z " fill="#2F2C2D" transform="translate(87,89)"/>
<path d="M0 0 C3.52594398 0.67820852 3.52594398 0.67820852 6.875 -0.0625 C7.761875 -0.206875 8.64875 -0.35125 9.5625 -0.5 C11.5625 1.5 11.5625 1.5 11.7578125 4.5390625 C11.73460937 5.72242187 11.71140625 6.90578125 11.6875 8.125 C11.66945312 9.31351563 11.65140625 10.50203125 11.6328125 11.7265625 C11.60960937 12.64179687 11.58640625 13.55703125 11.5625 14.5 C10.5725 14.5 9.5825 14.5 8.5625 14.5 C8.5625 10.54 8.5625 6.58 8.5625 2.5 C7.2425 2.83 5.9225 3.16 4.5625 3.5 C4.2325 7.13 3.9025 10.76 3.5625 14.5 C2.5725 14.5 1.5825 14.5 0.5625 14.5 C0.2325 10.87 -0.0975 7.24 -0.4375 3.5 C-1.7575 3.5 -3.0775 3.5 -4.4375 3.5 C-4.7675 7.13 -5.0975 10.76 -5.4375 14.5 C-6.4275 14.5 -7.4175 14.5 -8.4375 14.5 C-8.4375 9.88 -8.4375 5.26 -8.4375 0.5 C-3.4375 -0.5 -3.4375 -0.5 0 0 Z " fill="#353132" transform="translate(149.4375,94.5)"/>
<path d="M0 0 C2.375 1.75 2.375 1.75 4 4 C4 5.32 4 6.64 4 8 C0.37 8 -3.26 8 -7 8 C-6.34 9.32 -5.68 10.64 -5 12 C-1.97580475 11.41196203 1.01758453 10.77321882 4 10 C2.25 13.875 2.25 13.875 0 15 C-2.875 15.375 -2.875 15.375 -6 15 C-8.89648251 12.40841039 -9.87307907 10.7773907 -10.5 6.9375 C-10 4 -10 4 -8.375 1.625 C-5.28813568 -0.48706506 -3.6717087 -0.61195145 0 0 Z " fill="#413E3F" transform="translate(174,94)"/>
<path d="M0 0 C2 2 2 2 2.1953125 4.3828125 C2.17210937 5.28773437 2.14890625 6.19265625 2.125 7.125 C2.10695312 8.03507812 2.08890625 8.94515625 2.0703125 9.8828125 C2.04710937 10.58148438 2.02390625 11.28015625 2 12 C2.66 12 3.32 12 4 12 C4 12.66 4 13.32 4 14 C1.85423363 14.02685938 -0.29162645 14.04633088 -2.4375 14.0625 C-3.63246094 14.07410156 -4.82742187 14.08570312 -6.05859375 14.09765625 C-9 14 -9 14 -10 13 C-10.1875 10.5625 -10.1875 10.5625 -10 8 C-7.23776722 5.23776722 -4.79293383 5.42143709 -1 5 C-1 4.34 -1 3.68 -1 3 C-2.65 2.67 -4.3 2.34 -6 2 C-6 2.66 -6 3.32 -6 4 C-7.32 4 -8.64 4 -10 4 C-9.67 3.01 -9.34 2.02 -9 1 C-5.98675805 -0.50662097 -3.31713623 -0.17770373 0 0 Z " fill="#151112" transform="translate(242,95)"/>
<path d="M0 0 C7.71484375 -0.09765625 7.71484375 -0.09765625 10 0 C11 1 11 1 11.125 3.3125 C11 6 11 6 10.375 8.0625 C9.87811029 10.6297635 10.67320572 11.81469177 12 14 C10.125 13.75 10.125 13.75 8 13 C7.30062468 11.68352881 6.63270867 10.34977849 6 9 C5.01 8.67 4.02 8.34 3 8 C3 9.98 3 11.96 3 14 C2.01 14 1.02 14 0 14 C0 9.38 0 4.76 0 0 Z " fill="#403D3E" transform="translate(414,8)"/>
<path d="M0 0 C1.32 0.33 2.64 0.66 4 1 C4.33 0.67 4.66 0.34 5 0 C7.7096684 -0.28522825 9.36210242 -0.43582128 11.65234375 1.12890625 C13.59804859 3.83033413 13.29345269 5.90296655 13.1875 9.1875 C13.16042969 10.27417969 13.13335937 11.36085938 13.10546875 12.48046875 C13.07066406 13.31191406 13.03585937 14.14335938 13 15 C12.01 15 11.02 15 10 15 C9.67 11.37 9.34 7.74 9 4 C7.35 4.33 5.7 4.66 4 5 C3.67 8.3 3.34 11.6 3 15 C2.01 15 1.02 15 0 15 C0 10.05 0 5.1 0 0 Z " fill="#383535" transform="translate(248,94)"/>
<path d="M0 0 C1.32 0.33 2.64 0.66 4 1 C4.33 0.67 4.66 0.34 5 0 C7.7096684 -0.28522825 9.36210242 -0.43582128 11.65234375 1.12890625 C13.59804859 3.83033413 13.29345269 5.90296655 13.1875 9.1875 C13.16042969 10.27417969 13.13335937 11.36085938 13.10546875 12.48046875 C13.07066406 13.31191406 13.03585938 14.14335938 13 15 C12.01 15 11.02 15 10 15 C9.67 11.37 9.34 7.74 9 4 C7.35 4.33 5.7 4.66 4 5 C3.67 8.3 3.34 11.6 3 15 C2.01 15 1.02 15 0 15 C0 10.05 0 5.1 0 0 Z " fill="#555353" transform="translate(100,94)"/>
<path d="M0 0 C1.875 1.375 1.875 1.375 3 3 C3 3.66 3 4.32 3 5 C-1.455 4.01 -1.455 4.01 -6 3 C-6 5.64 -6 8.28 -6 11 C-4.10820797 11.6814823 -4.10820797 11.6814823 -2 12 C-1.34 11.34 -0.68 10.68 0 10 C0.99 10.33 1.98 10.66 3 11 C1.9375 13 1.9375 13 0 15 C-3.4375 15.5625 -3.4375 15.5625 -7 15 C-9.5 12.9375 -9.5 12.9375 -11 10 C-11 6.1862249 -10.84985071 3.97575452 -8.3125 1.0625 C-5.30898169 -0.3174949 -3.27023793 -0.41747718 0 0 Z " fill="#2E2A2C" transform="translate(336,94)"/>
<path d="M0 0 C0.70125 -0.01675781 1.4025 -0.03351563 2.125 -0.05078125 C2.74375 0.06910156 3.3625 0.18898438 4 0.3125 C4.66 1.3025 5.32 2.2925 6 3.3125 C3.03 2.9825 0.06 2.6525 -3 2.3125 C-2.20182667 4.46664768 -2.20182667 4.46664768 -0.1875 5.0234375 C1.26939345 5.46570873 2.72773962 5.90322282 4.1875 6.3359375 C6 7.3125 6 7.3125 6.80859375 9.3046875 C7 11.3125 7 11.3125 6.0625 13.0625 C2.77932806 15.05230117 -0.20906137 14.4989396 -4 14.3125 C-4.33 12.9925 -4.66 11.6725 -5 10.3125 C-0.545 11.3025 -0.545 11.3025 4 12.3125 C4 11.3225 4 10.3325 4 9.3125 C-0.455 8.3225 -0.455 8.3225 -5 7.3125 C-5.625 4.9375 -5.625 4.9375 -6 2.3125 C-3.67471713 -0.01278287 -3.15334102 0.01738975 0 0 Z " fill="#221E1F" transform="translate(285,94.6875)"/>
<path d="M0 0 C6.0546875 -0.1953125 6.0546875 -0.1953125 8 0 C10 2 10 2 10.1953125 4.3828125 C10.17210937 5.28773437 10.14890625 6.19265625 10.125 7.125 C10.10695313 8.03507812 10.08890625 8.94515625 10.0703125 9.8828125 C10.04710937 10.58148438 10.02390625 11.28015625 10 12 C9.01 11.34 8.02 10.68 7 10 C7 9.01 7 8.02 7 7 C5.02 7.66 3.04 8.32 1 9 C1 9.66 1 10.32 1 11 C3.475 11.99 3.475 11.99 6 13 C6 13.33 6 13.66 6 14 C3.66705225 14.04241723 1.33297433 14.04092937 -1 14 C-2 13 -2 13 -2.125 10 C-2 7 -2 7 -1 6 C1.32817964 5.63239269 3.6618385 5.29758419 6 5 C6.33 4.01 6.66 3.02 7 2 C4.03 2.66 1.06 3.32 -2 4 C-1.34 2.68 -0.68 1.36 0 0 Z " fill="#201D1E" transform="translate(313,95)"/>
<path d="M0 0 C1.875 1.5 1.875 1.5 3 3 C2.67 3.99 2.34 4.98 2 6 C1.34 5.34 0.68 4.68 0 4 C-2.58354218 3.83312552 -2.58354218 3.83312552 -5 4 C-5.98120464 7.05263664 -5.98120464 8.94736336 -5 12 C-2.36 11.67 0.28 11.34 3 11 C2 14 2 14 0 15 C-2.875 15.375 -2.875 15.375 -6 15 C-8.89648251 12.40841039 -9.87307907 10.7773907 -10.5 6.9375 C-10 4 -10 4 -8.375 1.625 C-5.32214079 -0.46379841 -3.63031776 -0.54068562 0 0 Z " fill="#231F20" transform="translate(273,94)"/>
<path d="M0 0 C0 0.66 0 1.32 0 2 C-0.99 2 -1.98 2 -3 2 C-3 2.99 -3 3.98 -3 5 C-2.01 5 -1.02 5 0 5 C0 5.99 0 6.98 0 8 C-0.99 8 -1.98 8 -3 8 C-3 11.96 -3 15.92 -3 20 C-3.99 20 -4.98 20 -6 20 C-6 16.04 -6 12.08 -6 8 C-6.99 8 -7.98 8 -9 8 C-8.67 7.01 -8.34 6.02 -8 5 C-7.34 5 -6.68 5 -6 5 C-6 3.68 -6 2.36 -6 1 C-4 0 -4 0 0 0 Z " fill="#423F40" transform="translate(309,89)"/>
<path d="M0 0 C1.8125 0.60416667 3.625 1.20833333 5.4375 1.8125 C5.4375 3.1325 5.4375 4.4525 5.4375 5.8125 C4.7775 5.8125 4.1175 5.8125 3.4375 5.8125 C3.1075 5.1525 2.7775 4.4925 2.4375 3.8125 C0.7875 3.8125 -0.8625 3.8125 -2.5625 3.8125 C-2.5625 6.1225 -2.5625 8.4325 -2.5625 10.8125 C1.06635324 10.96399298 1.06635324 10.96399298 4.4375 9.8125 C3.75 11.75 3.75 11.75 2.4375 13.8125 C0 14.6875 0 14.6875 -2.5625 14.8125 C-5.5625 12.8125 -5.5625 12.8125 -6.21484375 10.7890625 C-6.97921119 4.48564884 -6.97921119 4.48564884 -4.9375 1.1875 C-2.5625 -0.1875 -2.5625 -0.1875 0 0 Z " fill="#262223" transform="translate(122.5625,94.1875)"/>
<path d="M0 0 C0.99 0 1.98 0 3 0 C3 6.6 3 13.2 3 20 C2.01 20 1.02 20 0 20 C-0.06058594 19.16855469 -0.12117188 18.33710937 -0.18359375 17.48046875 C-0.26738281 16.39378906 -0.35117188 15.30710937 -0.4375 14.1875 C-0.55931641 12.56908203 -0.55931641 12.56908203 -0.68359375 10.91796875 C-0.90212461 7.94010095 -0.90212461 7.94010095 -2 5 C-2.66 5 -3.32 5 -4 5 C-4 4.01 -4 3.02 -4 2 C-2.68 2 -1.36 2 0 2 C0 1.34 0 0.68 0 0 Z " fill="#5D5B5B" transform="translate(93,89)"/>
<path d="M0 0 C0.99 0 1.98 0 3 0 C3 1.65 3 3.3 3 5 C3.99 5 4.98 5 6 5 C6 5.66 6 6.32 6 7 C5.01 7 4.02 7 3 7 C3 10.3 3 13.6 3 17 C3.99 17 4.98 17 6 17 C6 17.66 6 18.32 6 19 C4.33388095 19.042721 2.66617115 19.04063832 1 19 C0 18 0 18 -0.09765625 15.49609375 C-0.08605469 14.48675781 -0.07445312 13.47742188 -0.0625 12.4375 C-0.05347656 11.42558594 -0.04445313 10.41367188 -0.03515625 9.37109375 C-0.02355469 8.58863281 -0.01195312 7.80617188 0 7 C-0.66 7 -1.32 7 -2 7 C-2 6.34 -2 5.68 -2 5 C-1.34 5 -0.68 5 0 5 C0 3.35 0 1.7 0 0 Z " fill="#1B1617" transform="translate(343,90)"/>
<path d="M0 0 C0.33 0 0.66 0 1 0 C1.01417969 0.59167969 1.02835937 1.18335938 1.04296875 1.79296875 C1.29781092 6.01508363 1.65557126 8.4885755 4.0625 12.0625 C7.37409187 14.24674145 9.18702798 14.66854176 13.0703125 14.44140625 C16.03251313 13.76381785 17.82714491 12.04504008 20 10 C20.66 10 21.32 10 22 10 C21.00449135 12.6245228 20.06036546 13.95028727 17.875 15.75 C14.17970881 17.35664835 10.93097971 17.70003748 7 17 C3.89647542 15.39076503 1.78298576 13.99652733 -0.375 11.25 C-1.34351279 7.76335396 -1.17776182 4.6144904 -1 1 C-0.67 0.67 -0.34 0.34 0 0 Z " fill="#131011" transform="translate(409,10)"/>
<path d="M0 0 C2.4375 0.1875 2.4375 0.1875 3.4375 1.1875 C3.625 4.625 3.625 4.625 3.4375 8.1875 C2.7775 8.8475 2.1175 9.5075 1.4375 10.1875 C-1.1875 9.8125 -1.1875 9.8125 -3.5625 9.1875 C-4.1875 5.8125 -4.1875 5.8125 -4.5625 2.1875 C-2.5625 0.1875 -2.5625 0.1875 0 0 Z " fill="#F4F4F4" transform="translate(212.5625,96.8125)"/>
<path d="M0 0 C4.55555556 0.55555556 4.55555556 0.55555556 6 2 C6.1875 4.9375 6.1875 4.9375 6 8 C5.34 8.66 4.68 9.32 4 10 C-0.55555556 9.44444444 -0.55555556 9.44444444 -2 8 C-2.1875 5.0625 -2.1875 5.0625 -2 2 C-1.34 1.34 -0.68 0.68 0 0 Z " fill="#F0EFEF" transform="translate(356,97)"/>
<path d="M0 0 C1.32 0.33 2.64 0.66 4 1 C4.33 0.67 4.66 0.34 5 0 C7.33297433 -0.04092937 9.66705225 -0.04241723 12 0 C10.29374499 2.78388975 9.52373261 3.85384206 6.3125 4.75 C5.1678125 4.87375 5.1678125 4.87375 4 5 C3.67 8.3 3.34 11.6 3 15 C2.01 15 1.02 15 0 15 C0 10.05 0 5.1 0 0 Z " fill="#3B3839" transform="translate(368,94)"/>
<path d="M0 0 C4.55555556 0.55555556 4.55555556 0.55555556 6 2 C6.1875 4.9375 6.1875 4.9375 6 8 C5.34 8.66 4.68 9.32 4 10 C1.375 9.625 1.375 9.625 -1 9 C-1.625 5.625 -1.625 5.625 -2 2 C-1.34 1.34 -0.68 0.68 0 0 Z " fill="#EFEFEF" transform="translate(72,97)"/>
<path d="M0 0 C2.625 0.375 2.625 0.375 5 1 C5.625 3.8125 5.625 3.8125 6 7 C5.01 8.485 5.01 8.485 4 10 C-0.875 9.125 -0.875 9.125 -2 8 C-2.1875 5.0625 -2.1875 5.0625 -2 2 C-1.34 1.34 -0.68 0.68 0 0 Z " fill="#EEEDEE" transform="translate(56,97)"/>
<path d="M0 0 C2.97 0 5.94 0 9 0 C9 0.99 9 1.98 9 3 C7.35 3.33 5.7 3.66 4 4 C3.67 7.63 3.34 11.26 3 15 C2.01 15 1.02 15 0 15 C0 10.05 0 5.1 0 0 Z " fill="#3B3839" transform="translate(41,94)"/>
<path d="M0 0 C-0.33 0.99 -0.66 1.98 -1 3 C-2.65 3 -4.3 3 -6 3 C-6.33 6.63 -6.66 10.26 -7 14 C-7.99 14 -8.98 14 -10 14 C-10 9.38 -10 4.76 -10 0 C-5.65055731 -0.86988854 -4.02871475 -1.03595522 0 0 Z " fill="#211B1D" transform="translate(151,95)"/>
<path d="M0 0 C2.5 0.125 2.5 0.125 3.5 1.125 C3.625 4.625 3.625 4.625 3.5 8.125 C2.5 9.125 2.5 9.125 0 9.25 C-2.5 9.125 -2.5 9.125 -3.5 8.125 C-3.625 4.625 -3.625 4.625 -3.5 1.125 C-2.5 0.125 -2.5 0.125 0 0 Z " fill="#F4F4F4" transform="translate(122.5,96.875)"/>
<path d="M0 0 C0 0.33 0 0.66 0 1 C-2.64 1 -5.28 1 -8 1 C-8 5.95 -8 10.9 -8 16 C-12 12 -12 12 -12.53125 9.78125 C-12.48040148 6.06930838 -12.36929182 3.64626069 -10.5 0.375 C-6.72410379 -1.70174292 -4.17303929 -0.83460786 0 0 Z " fill="#F4F4F4" transform="translate(422,7)"/>
<path d="M0 0 C2 2 2 2 2.1953125 4.8203125 C2.16050781 6.45613281 2.16050781 6.45613281 2.125 8.125 C2.10695312 9.22070312 2.08890625 10.31640625 2.0703125 11.4453125 C2.04710937 12.28835937 2.02390625 13.13140625 2 14 C1.01 14 0.02 14 -1 14 C-1.33 10.37 -1.66 6.74 -2 3 C-3.65 3 -5.3 3 -7 3 C-7 2.01 -7 1.02 -7 0 C-4.29393021 -1.35303489 -2.8671629 -0.7884698 0 0 Z " fill="#343031" transform="translate(200,95)"/>
<path d="M0 0 C1.875 0.25 1.875 0.25 4 1 C5.0625 2.9375 5.0625 2.9375 6 5 C6.99 5.66 7.98 6.32 9 7 C6.67471713 9.32528287 6.15334102 9.29511025 3 9.3125 C2.29875 9.32925781 1.5975 9.34601562 0.875 9.36328125 C0.25625 9.24339844 -0.3625 9.12351562 -1 9 C-1.66 8.01 -2.32 7.02 -3 6 C-2.01 6 -1.02 6 0 6 C0 4.02 0 2.04 0 0 Z " fill="#EAE9E9" transform="translate(417,16)"/>
<path d="M0 0 C2.64 0 5.28 0 8 0 C8 0.66 8 1.32 8 2 C7.35546875 2.22429687 6.7109375 2.44859375 6.046875 2.6796875 C3.75611148 3.82889456 3.75611148 3.82889456 3.390625 6.3828125 C3.34421875 7.28773437 3.2978125 8.19265625 3.25 9.125 C3.19328125 10.03507812 3.1365625 10.94515625 3.078125 11.8828125 C3.03945312 12.93082031 3.03945312 12.93082031 3 14 C2.01 14 1.02 14 0 14 C0 9.38 0 4.76 0 0 Z " fill="#1B1819" transform="translate(222,95)"/>
<path d="M0 0 C0.66 0 1.32 0 2 0 C2 1.65 2 3.3 2 5 C2.928125 5.020625 3.85625 5.04125 4.8125 5.0625 C8 6 8 6 9.06640625 7.625 C9.79974771 9.38218533 10.40775925 11.19037549 11 13 C9.125 12.75 9.125 12.75 7 12 C6.30062468 10.68352881 5.63270867 9.34977849 5 8 C4.01 7.67 3.02 7.34 2 7 C2 8.65 2 10.3 2 12 C1.34 12 0.68 12 0 12 C0 8.04 0 4.08 0 0 Z " fill="#1F1B1C" transform="translate(415,9)"/>
<path d="M0 0 C0.33 0 0.66 0 1 0 C1.03738281 0.97582031 1.07476562 1.95164062 1.11328125 2.95703125 C1.21189453 4.86548828 1.21189453 4.86548828 1.3125 6.8125 C1.37050781 8.07707031 1.42851562 9.34164062 1.48828125 10.64453125 C1.73733762 13.9153782 1.73733762 13.9153782 3.3125 15.90625 C6.00992655 17.65458202 8.85563692 17.70336197 12 18 C11.67 18.66 11.34 19.32 11 20 C7.37 20 3.74 20 0 20 C0 13.4 0 6.8 0 0 Z " fill="#2F2B2C" transform="translate(205,89)"/>
<path d="M0 0 C2 2 2 2 2 5 C2.99 5 3.98 5 5 5 C4.67 5.99 4.34 6.98 4 8 C0.7 7.01 -2.6 6.02 -6 5 C-6 3.68 -6 2.36 -6 1 C-3.92446352 0.4465236 -2.15634036 0 0 0 Z " fill="#383435" transform="translate(320,102)"/>
<path d="M0 0 C4.875 3.75 4.875 3.75 6 6 C6.1328125 7.875 6.1328125 7.875 6.125 10 C6.12757813 10.70125 6.13015625 11.4025 6.1328125 12.125 C6 14 6 14 5 16 C4.01 15.67 3.02 15.34 2 15 C2.03480469 14.07767578 2.03480469 14.07767578 2.0703125 13.13671875 C2.08835937 12.32847656 2.10640625 11.52023437 2.125 10.6875 C2.15980469 9.48673828 2.15980469 9.48673828 2.1953125 8.26171875 C2.15817322 5.71611424 2.15817322 5.71611424 0 3 C0 2.01 0 1.02 0 0 Z " fill="#302C2D" transform="translate(427,4)"/>
<path d="M0 0 C2.5625 0.1875 2.5625 0.1875 4.5625 2.1875 C5.2225 1.8575 5.8825 1.5275 6.5625 1.1875 C6.5625 2.5075 6.5625 3.8275 6.5625 5.1875 C3.2625 5.1875 -0.0375 5.1875 -3.4375 5.1875 C-3.4375 0.26442308 -3.4375 0.26442308 0 0 Z " fill="#555253" transform="translate(270.4375,96.8125)"/>
<path d="M0 0 C3.63 0 7.26 0 11 0 C10.67 1.32 10.34 2.64 10 4 C7.36 4.33 4.72 4.66 2 5 C1.34 3.35 0.68 1.7 0 0 Z " fill="#E7E7E7" transform="translate(266,102)"/>
<path d="M0 0 C3.51903714 -0.31991247 5.42015168 -0.37169764 8.4375 1.5625 C10 4 10 4 10 7.625 C9 11 9 11 6.9375 12.4375 C5.9784375 12.7159375 5.9784375 12.7159375 5 13 C5.33 12.34 5.66 11.68 6 11 C6.14375422 7.62177584 6.07536348 5.22609045 5 2 C3.35 1.67 1.7 1.34 0 1 C0 0.67 0 0.34 0 0 Z " fill="#363233" transform="translate(71,94)"/>
<path d="M0 0 C0.2475 0.639375 0.495 1.27875 0.75 1.9375 C1.82032523 4.15004327 1.82032523 4.15004327 4 4.875 C4.66 4.91625 5.32 4.9575 6 5 C6.66 4.34 7.32 3.68 8 3 C8.99 3.33 9.98 3.66 11 4 C9.9375 6 9.9375 6 8 8 C4.5 8.5 4.5 8.5 1 8 C-0.9375 6 -0.9375 6 -2 4 C-1.34 2.68 -0.68 1.36 0 0 Z " fill="#211C1E" transform="translate(328,101)"/>
<path d="M0 0 C0.66 0.33 1.32 0.66 2 1 C2 5.29 2 9.58 2 14 C1.01 14 0.02 14 -1 14 C-1.02685938 11.85423363 -1.04633088 9.70837355 -1.0625 7.5625 C-1.07410156 6.36753906 -1.08570313 5.17257813 -1.09765625 3.94140625 C-1 1 -1 1 0 0 Z " fill="#2F2A2B" transform="translate(159,95)"/>
<path d="M0 0 C1.32 0.33 2.64 0.66 4 1 C4 4.96 4 8.92 4 13 C3.01 13 2.02 13 1 13 C0.67 8.71 0.34 4.42 0 0 Z " fill="#211E1F" transform="translate(109,96)"/>
<path d="M0 0 C1.9375 1.25 1.9375 1.25 3 3 C2.6875 5.1875 2.6875 5.1875 2 7 C1.34 6.01 0.68 5.02 0 4 C-2.45741537 3.49985047 -2.45741537 3.49985047 -5 4 C-6.81476003 5.39585785 -6.81476003 5.39585785 -8 7 C-8.6875 5.1875 -8.6875 5.1875 -9 3 C-6.77664494 -0.66199657 -3.98910802 -0.4986385 0 0 Z " fill="#252222" transform="translate(174,94)"/>
<path d="M0 0 C3.63 0 7.26 0 11 0 C8.8125 2.5625 8.8125 2.5625 6 5 C3.1875 4.8125 3.1875 4.8125 1 4 C0.67 2.68 0.34 1.36 0 0 Z " fill="#ECEBEC" transform="translate(167,102)"/>
<path d="M0 0 C2.6664882 -0.21620175 4.44004321 -0.30894168 6.8125 1 C8.73618446 4.23988962 8.18282384 7.2825819 8 11 C7.34 10.67 6.68 10.34 6 10 C5.71125 9.01 5.4225 8.02 5.125 7 C4.75375 6.01 4.3825 5.02 4 4 C1.96756452 3.03122943 1.96756452 3.03122943 0 3 C0 2.01 0 1.02 0 0 Z " fill="#161213" transform="translate(56,94)"/>
<path d="M0 0 C2 1 2 1 3 3 C3.07033769 4.87379605 3.0843022 6.75001102 3.0625 8.625 C3.05347656 9.62789062 3.04445312 10.63078125 3.03515625 11.6640625 C3.02355469 12.43492188 3.01195312 13.20578125 3 14 C2.01 14 1.02 14 0 14 C0 9.38 0 4.76 0 0 Z " fill="#1B1617" transform="translate(181,95)"/>
<path d="M0 0 C0.99 0 1.98 0 3 0 C3 3.96 3 7.92 3 12 C2.01 12 1.02 12 0 12 C0 8.04 0 4.08 0 0 Z " fill="#181012" transform="translate(303,97)"/>
<path d="M0 0 C0.33 0 0.66 0 1 0 C1.02578125 0.60328125 1.0515625 1.2065625 1.078125 1.828125 C1.40331983 7.10535339 1.40331983 7.10535339 4.0625 11.5625 C5.0215625 12.2740625 5.0215625 12.2740625 6 13 C5.67 13.99 5.34 14.98 5 16 C-0.91394342 10.23769616 -0.91394342 10.23769616 -1.1328125 7.08984375 C-1.11111111 1.11111111 -1.11111111 1.11111111 0 0 Z " fill="#1E1A1B" transform="translate(409,10)"/>
<path d="M0 0 C0.66 0 1.32 0 2 0 C2.33 0.66 2.66 1.32 3 2 C6.02419525 1.41196203 9.01758453 0.77321882 12 0 C10.25 3.875 10.25 3.875 8 5 C5.0625 5.3125 5.0625 5.3125 2 5 C0.125 3 0.125 3 -1 1 C-0.67 0.67 -0.34 0.34 0 0 Z " fill="#292526" transform="translate(166,104)"/>
<path d="M0 0 C0 0.99 0 1.98 0 3 C-5.625 3.25 -5.625 3.25 -9 1 C-9.33 1.66 -9.66 2.32 -10 3 C-10 2.01 -10 1.02 -10 0 C-6.30581799 -1.231394 -3.7943739 -0.64432764 0 0 Z " fill="#DDDCDC" transform="translate(289,104)"/>
<path d="M0 0 C0.33 0 0.66 0 1 0 C1.66 2.31 2.32 4.62 3 7 C5.97 7.495 5.97 7.495 9 8 C8.67 8.66 8.34 9.32 8 10 C2.375 10.25 2.375 10.25 -1 8 C-0.67 5.36 -0.34 2.72 0 0 Z " fill="#141011" transform="translate(353,99)"/>
<path d="M0 0 C1.32 0.33 2.64 0.66 4 1 C4.66 3.97 5.32 6.94 6 10 C5.01 9.67 4.02 9.34 3 9 C2.05078125 6.93359375 2.05078125 6.93359375 1.3125 4.4375 C1.06113281 3.61121094 0.80976563 2.78492187 0.55078125 1.93359375 C0.36902344 1.29550781 0.18726563 0.65742187 0 0 Z " fill="#221E1F" transform="translate(377,95)"/>
<path d="M0 0 C1.32 0.33 2.64 0.66 4 1 C3.67 1.99 3.34 2.98 3 4 C5.475 4.99 5.475 4.99 8 6 C8 6.33 8 6.66 8 7 C5.66705225 7.04241723 3.33297433 7.04092937 1 7 C0 6 0 6 -0.0625 2.9375 C-0.041875 1.968125 -0.02125 0.99875 0 0 Z " fill="#141011" transform="translate(311,102)"/>
<path d="M0 0 C0.33 0.66 0.66 1.32 1 2 C1.66 2 2.32 2 3 2 C2.67 5.96 2.34 9.92 2 14 C1.34 14 0.68 14 0 14 C0 9.38 0 4.76 0 0 Z " fill="#120D0E" transform="translate(101,95)"/>
<path d="M0 0 C-0.66 1.65 -1.32 3.3 -2 5 C-2.66 5 -3.32 5 -4 5 C-4 6.65 -4 8.3 -4 10 C-4.99 10.495 -4.99 10.495 -6 11 C-6.48951049 4.63636364 -6.48951049 4.63636364 -4.125 1.5625 C-2 0 -2 0 0 0 Z " fill="#2E2A2B" transform="translate(357,94)"/>
<path d="M0 0 C0.33 0.66 0.66 1.32 1 2 C1.66 2 2.32 2 3 2 C2.67 5.96 2.34 9.92 2 14 C1.34 14 0.68 14 0 14 C0 9.38 0 4.76 0 0 Z " fill="#130D0E" transform="translate(249,95)"/>
<path d="M0 0 C3.96 0 7.92 0 12 0 C12 1.65 12 3.3 12 5 C11.34 4.34 10.68 3.68 10 3 C7.56747339 2.53837573 7.56747339 2.53837573 4.875 2.375 C3.96492188 2.30023438 3.05484375 2.22546875 2.1171875 2.1484375 C1.41851562 2.09945312 0.71984375 2.05046875 0 2 C0 1.34 0 0.68 0 0 Z " fill="#444042" transform="translate(311,50)"/>
<path d="M0 0 C1.65 0 3.3 0 5 0 C5 1.32 5 2.64 5 4 C2.03 3.67 -0.94 3.34 -4 3 C-2.68 2.67 -1.36 2.34 0 2 C0 1.34 0 0.68 0 0 Z " fill="#E0DFDF" transform="translate(236,97)"/>
<path d="M0 0 C0.33 0.99 0.66 1.98 1 3 C-1.31 2.67 -3.62 2.34 -6 2 C-6 2.66 -6 3.32 -6 4 C-7.32 4 -8.64 4 -10 4 C-9.67 3.01 -9.34 2.02 -9 1 C-6.04335481 -0.4783226 -3.25770263 -0.06032783 0 0 Z " fill="#1C191A" transform="translate(242,95)"/>
<path d="M0 0 C-0.33 1.32 -0.66 2.64 -1 4 C-2.65 4.33 -4.3 4.66 -6 5 C-6 3.68 -6 2.36 -6 1 C-3.92446352 0.4465236 -2.15634036 0 0 0 Z " fill="#E3E3E3" transform="translate(241,102)"/>
<path d="M0 0 C-0.33 1.32 -0.66 2.64 -1 4 C-3.64 3.67 -6.28 3.34 -9 3 C-5.92807025 0.26939578 -4.09590633 -0.34132553 0 0 Z " fill="#E5E5E5" transform="translate(320,97)"/>
<path d="M0 0 C0.99 0 1.98 0 3 0 C2.3125 2.4375 2.3125 2.4375 1 5 C-1.625 5.8125 -1.625 5.8125 -4 6 C-4 5.01 -4 4.02 -4 3 C-3.01 2.67 -2.02 2.34 -1 2 C-0.67 1.34 -0.34 0.68 0 0 Z " fill="#2F2A2B" transform="translate(382,109)"/>
<path d="M0 0 C0.66 0 1.32 0 2 0 C1.33333333 3.33333333 0.66666667 6.66666667 0 10 C-1.76462683 6.91190305 -2 5.76687864 -2 2 C-1.34 1.34 -0.68 0.68 0 0 Z " fill="#3E3A3B" transform="translate(54,94)"/>
<path d="M0 0 C2.625 0.375 2.625 0.375 5 1 C4.360625 1.226875 3.72125 1.45375 3.0625 1.6875 C0.72806339 2.85250896 0.72806339 2.85250896 0.25 5.625 C0.1675 6.40875 0.085 7.1925 0 8 C-0.66 7.67 -1.32 7.34 -2 7 C-2.125 4.625 -2.125 4.625 -2 2 C-1.34 1.34 -0.68 0.68 0 0 Z " fill="#322E2F" transform="translate(234,101)"/>
<path d="M0 0 C0.99 0 1.98 0 3 0 C2.125 4.75 2.125 4.75 1 7 C0.34 7 -0.32 7 -1 7 C-1.33 7.66 -1.66 8.32 -2 9 C-1.34 6.03 -0.68 3.06 0 0 Z " fill="#201C1D" transform="translate(387,95)"/>
<path d="M0 0 C2.9375 0.375 2.9375 0.375 6 1 C6.33 1.66 6.66 2.32 7 3 C6.67 3.66 6.34 4.32 6 5 C3.69 4.34 1.38 3.68 -1 3 C-0.67 2.01 -0.34 1.02 0 0 Z " fill="#201C1D" transform="translate(357,94)"/>
<path d="M0 0 C0.33 1.32 0.66 2.64 1 4 C-0.65 4.33 -2.3 4.66 -4 5 C-4 3.68 -4 2.36 -4 1 C-2.68 0.67 -1.36 0.34 0 0 Z " fill="#EEEEEE" transform="translate(318,102)"/>
<path d="M0 0 C2.76276177 0.52268466 5.3260876 1.10869587 8 2 C8 3.32 8 4.64 8 6 C7.34 6 6.68 6 6 6 C5.67 5.34 5.34 4.68 5 4 C4.01 3.7834375 4.01 3.7834375 3 3.5625 C2.34 3.376875 1.68 3.19125 1 3 C0.67 2.01 0.34 1.02 0 0 Z " fill="#2D292A" transform="translate(120,94)"/>
<path d="M0 0 C2.00720923 0.28674418 4.0085944 0.61866701 6 1 C5.38125 1.20625 4.7625 1.4125 4.125 1.625 C1.15346355 3.54775888 0.86975341 5.66594527 0 9 C-1.3950848 6.70221327 -2.07438619 5.5207033 -1.6875 2.8125 C-1 1 -1 1 0 0 Z " fill="#0E0A0B" transform="translate(70,95)"/>
<path d="M0 0 C1.65 0 3.3 0 5 0 C5 1.32 5 2.64 5 4 C3.35 4 1.7 4 0 4 C0 2.68 0 1.36 0 0 Z " fill="#E3E2E2" transform="translate(417,10)"/>
<path d="M0 0 C0 1.32 0 2.64 0 4 C-1.98 4 -3.96 4 -6 4 C-6 3.01 -6 2.02 -6 1 C-3.92446352 0.4465236 -2.15634036 0 0 0 Z " fill="#F3F3F3" transform="translate(126,108)"/>
<path d="M0 0 C2.97 0.33 5.94 0.66 9 1 C8.01 1.33 7.02 1.66 6 2 C6 2.66 6 3.32 6 4 C4.02 3.34 2.04 2.68 0 2 C0 1.34 0 0.68 0 0 Z " fill="#D2D1D1" transform="translate(282,97)"/>
<path d="M0 0 C-0.33 0.99 -0.66 1.98 -1 3 C-3.31 3.33 -5.62 3.66 -8 4 C-8 3.34 -8 2.68 -8 2 C-5.09399739 0.74335022 -3.20395416 0 0 0 Z " fill="#191516" transform="translate(276,105)"/>
<path d="M0 0 C0.99 0.495 0.99 0.495 2 1 C2.40729228 3.32156597 2.74438677 5.6568787 3 8 C2.01 8.33 1.02 8.66 0 9 C0 6.03 0 3.06 0 0 Z " fill="#E5E4E4" transform="translate(323,98)"/>
<path d="M0 0 C1.65 0 3.3 0 5 0 C5.33 0.99 5.66 1.98 6 3 C3.69 3 1.38 3 -1 3 C-0.67 2.01 -0.34 1.02 0 0 Z " fill="#F5F5F5" transform="translate(169,97)"/>
<path d="M0 0 C3.375 -0.1875 3.375 -0.1875 7 0 C7.66 0.99 8.32 1.98 9 3 C6.03 2.67 3.06 2.34 0 2 C0 1.34 0 0.68 0 0 Z " fill="#1B1718" transform="translate(282,95)"/>
<path d="M0 0 C4.75 0.75 4.75 0.75 7 3 C6.625 5.125 6.625 5.125 6 7 C1.125 2.25 1.125 2.25 0 0 Z " fill="#141011" transform="translate(170,94)"/>
<path d="M0 0 C-0.66 0 -1.32 0 -2 0 C-2 0.66 -2 1.32 -2 2 C-3.98 2.66 -5.96 3.32 -8 4 C-7.6875 2.0625 -7.6875 2.0625 -7 0 C-3.86650268 -1.04449911 -3.01031744 -0.93423645 0 0 Z " fill="#322F2F" transform="translate(190,95)"/>
<path d="M0 0 C5.53846154 -0.36923077 5.53846154 -0.36923077 7.875 1.5 C8.24625 1.995 8.6175 2.49 9 3 C7.68 3.33 6.36 3.66 5 4 C5 3.34 5 2.68 5 2 C3.35 1.67 1.7 1.34 0 1 C0 0.67 0 0.34 0 0 Z " fill="#262323" transform="translate(71,94)"/>
<path d="M0 0 C0 0.66 0 1.32 0 2 C-0.99 2 -1.98 2 -3 2 C-3.33 2.99 -3.66 3.98 -4 5 C-4.66 5 -5.32 5 -6 5 C-6 3.68 -6 2.36 -6 1 C-4 0 -4 0 0 0 Z " fill="#1B1718" transform="translate(309,89)"/>
<path d="M0 0 C1.65 0 3.3 0 5 0 C5 0.66 5 1.32 5 2 C4.01 2.33 3.02 2.66 2 3 C1.67 3.66 1.34 4.32 1 5 C0.34 5 -0.32 5 -1 5 C-0.67 3.35 -0.34 1.7 0 0 Z " fill="#1F1C1D" transform="translate(87,89)"/>
<path d="M0 0 C2.5 1.8125 2.5 1.8125 5 4 C5 4.99 5 5.98 5 7 C3.0625 6.3125 3.0625 6.3125 1 5 C0.25 2.375 0.25 2.375 0 0 Z " fill="#1E1A1B" transform="translate(427,4)"/>
<path d="M0 0 C1.65 0 3.3 0 5 0 C5 0.99 5 1.98 5 3 C3.02 3 1.04 3 -1 3 C-0.67 2.01 -0.34 1.02 0 0 Z " fill="#F9F9F9" transform="translate(268,97)"/>
<path d="M0 0 C0.33 0.66 0.66 1.32 1 2 C1.66 2.33 2.32 2.66 3 3 C0.09399739 4.25664978 -1.79604584 5 -5 5 C-5 4.01 -5 3.02 -5 2 C-3.35 2 -1.7 2 0 2 C0 1.34 0 0.68 0 0 Z " fill="#4C4A4A" transform="translate(88,92)"/>
</svg>
