<?xml version="1.0" encoding="utf-8"?>
<!-- Generator: Adobe Illustrator 21.0.0, SVG Export Plug-In . SVG Version: 6.00 Build 0)  -->
<svg version="1.1" id="Layer_1" xmlns="http://www.w3.org/2000/svg" xmlns:xlink="http://www.w3.org/1999/xlink" x="0px" y="0px"
	 viewBox="0 0 100 50" style="enable-background:new 0 0 100 50;" xml:space="preserve">
<style type="text/css">
	.st0{fill:#EE4037;}
	.st1{fill:#B43532;}
</style>
<g>
	<path class="st0" d="M88.1,34.2c-1.5,0-2.6-0.4-3.2-1.2c-0.6-0.8-0.9-2-0.9-3.7v-6.2c0-1.6,0.3-2.8,0.9-3.6
		c0.6-0.8,1.7-1.2,3.2-1.2h6.5c1.5,0,2.6,0.4,3.2,1.2c0.6,0.8,0.9,2,0.9,3.6v6.2c0,1.6-0.3,2.9-0.9,3.6s-1.7,1.2-3.2,1.2H88.1
		L88.1,34.2z M94.1,31.5c0.6,0,1-0.2,1.3-0.5c0.3-0.3,0.5-0.8,0.5-1.4v-6.8c0-0.5-0.2-1-0.5-1.3c-0.3-0.4-0.7-0.6-1.3-0.6h-5.2
		c-0.5,0-1,0.2-1.3,0.5c-0.3,0.3-0.5,0.8-0.5,1.4v6.8c0,0.6,0.2,1,0.5,1.4c0.3,0.3,0.7,0.5,1.3,0.5H94.1z"/>
	<path class="st0" d="M53.7,18.3h9.6c1.2,0,2.1,0.2,2.7,0.7s1,1.1,1.2,1.7c0.2,0.7,0.3,1.5,0.3,2.3v1.6c0,1.1-0.3,2.2-0.9,3.1
		c-0.6,0.9-1.7,1.3-3.2,1.4c-1.8,0.1-4.9,0.1-6.7,0.1v-2.6h6.1c0.6,0,1.1-0.2,1.4-0.6s0.4-0.9,0.4-1.5v-1.7c0-1.4-0.6-2.1-1.8-2.1
		h-6.2v4.6v1.2v2.6v0.9v4h-2.9L53.7,18.3L53.7,18.3z"/>
	<polygon class="st0" points="41,18.3 45.4,18.3 51.8,34.2 48.4,34.2 47.1,30.7 39,30.7 40.1,28 46.3,28 43.2,20.6 43,20.6 
		37.7,34.2 34.4,34.2 	"/>
	<polygon class="st0" points="28.8,20.8 22.8,20.8 22.8,18.3 37.5,18.3 37.5,20.8 31.7,20.8 31.7,34.2 28.8,34.2 	"/>
	<path class="st0" d="M73.4,34.2c-1.5,0-2.4-0.5-3-1.3c-0.6-0.8-0.9-2-0.9-3.7v-6.2c0-1.6,0.3-2.8,0.9-3.6c0.6-0.8,1.6-1.2,3.2-1.2
		h8.5v2.7l-7.9-0.1c-0.5,0-1,0.2-1.3,0.5c-0.3,0.3-0.5,0.8-0.5,1.4v7c0,0.6,0.2,1.1,0.5,1.4c0.3,0.3,0.7,0.5,1.3,0.5l7.9-0.2l0,2.7
		L73.4,34.2L73.4,34.2z"/>
	<polygon class="st0" points="11.3,36 11.3,21.9 20.9,17.1 20.9,21.2 15.3,24 15.3,33.9 	"/>
	<polygon class="st1" points="10.7,36 10.7,21.9 1,17.1 1,21.2 6.6,24 6.6,33.9 	"/>
	<polygon class="st0" points="1.2,16.7 4.9,18.6 10.9,15.5 10.9,11.8 	"/>
	<polygon class="st1" points="20.6,16.7 16.8,18.6 10.9,15.5 10.9,11.8 	"/>
	<path class="st0" d="M32.5,39.6h-0.6l-2.5-3v0.2c0.2,0.1,0.2,0.2,0.2,0.2v2.6h-0.4v-3.5h0.7l2.2,2.8v-0.2v-0.3v-2.4h0.4L32.5,39.6
		L32.5,39.6z M35,39.7c-0.5,0-0.8-0.1-1.1-0.4c-0.3-0.3-0.4-0.6-0.4-1c0-0.4,0.1-0.7,0.4-1c0.3-0.3,0.7-0.4,1.1-0.4
		c0.5,0,0.8,0.1,1.1,0.4c0.3,0.3,0.4,0.6,0.4,1c0,0.4-0.1,0.7-0.4,1S35.4,39.7,35,39.7L35,39.7z M35,39.3c0.3,0,0.5-0.1,0.7-0.3
		c0.2-0.2,0.3-0.4,0.3-0.8c0-0.4-0.1-0.6-0.3-0.8c-0.2-0.2-0.4-0.2-0.7-0.2c-0.3,0-0.5,0.1-0.7,0.3s-0.3,0.4-0.3,0.8
		c0,0.4,0.1,0.6,0.3,0.8C34.5,39.3,34.7,39.3,35,39.3L35,39.3z M39.1,39.4v0.3c-0.2,0-0.4,0-0.5,0c-0.7,0-1-0.3-1-0.8v-1.6h-0.6
		v-0.4h0.6l0-0.7l0.6,0v0.7h0.8v0.4h-0.8V39c0,0.3,0.2,0.4,0.5,0.4C38.8,39.5,38.9,39.4,39.1,39.4L39.1,39.4z M42.3,39.6H42V38
		c0-0.2,0-0.3,0-0.4c0-0.1-0.1-0.2-0.2-0.2c-0.1-0.1-0.2-0.1-0.4-0.1c-0.3,0-0.5,0.1-0.7,0.3c-0.2,0.2-0.3,0.4-0.3,0.7v1.4h-0.6
		v-3.5h0.4v1.4c0.2-0.4,0.6-0.5,1-0.5c0.2,0,0.4,0,0.5,0.1c0.2,0.1,0.3,0.1,0.4,0.2s0.1,0.2,0.2,0.3c0,0.1,0,0.3,0,0.5V39.6z
		 M44.3,36.1v0.4h-0.6v-0.4H44.3z M44.3,37.1v2.5h-0.6v-2.5H44.3z M48.1,39.6h-0.4v-1.7c0-0.2-0.1-0.4-0.2-0.5s-0.3-0.1-0.5-0.1
		c-0.3,0-0.5,0.1-0.7,0.3c-0.2,0.2-0.3,0.4-0.3,0.6v1.4h-0.6v-2.5H46v0.5c0.3-0.4,0.6-0.5,1-0.5c0.2,0,0.5,0.1,0.6,0.1
		c0.2,0.1,0.3,0.2,0.4,0.3c0.1,0.1,0.1,0.3,0.1,0.7V39.6L48.1,39.6z M52.2,36.7V37c-0.2,0-0.4,0-0.5,0.1c-0.1,0-0.1,0.1-0.2,0.2
		c0.2,0.2,0.3,0.4,0.3,0.6c0,0.2-0.1,0.4-0.3,0.6c-0.2,0.2-0.5,0.3-0.9,0.3c-0.1,0-0.2,0-0.2,0c-0.1,0-0.2,0-0.2,0
		c-0.1,0-0.1,0-0.2,0.1c-0.1,0-0.1,0.1-0.1,0.2c0,0.1,0.1,0.2,0.2,0.2c0.1,0,0.4,0.1,0.9,0.1c0.4,0,0.7,0,0.8,0.1
		c0.2,0,0.4,0.1,0.6,0.3c0,0.1,0.1,0.1,0.1,0.2c0.1,0.6-0.5,0.8-1.7,0.8c-0.5,0-0.9-0.1-1.2-0.2c-0.3-0.1-0.4-0.3-0.4-0.5
		c0-0.3,0.2-0.4,0.5-0.5c-0.2-0.1-0.3-0.3-0.3-0.4c0-0.2,0.2-0.3,0.5-0.5c-0.3-0.2-0.4-0.4-0.4-0.7c0-0.3,0.1-0.5,0.4-0.6
		c0.3-0.2,0.6-0.3,0.9-0.3c0.3,0,0.5,0,0.7,0.1c0-0.2,0.1-0.3,0.2-0.3C51.7,36.7,51.8,36.7,52.2,36.7C52.1,36.7,52.2,36.7,52.2,36.7
		L52.2,36.7z M50.5,38.4c0.2,0,0.4-0.1,0.5-0.2c0.1-0.1,0.2-0.2,0.2-0.4c0-0.2-0.1-0.3-0.2-0.4c-0.1-0.1-0.3-0.2-0.5-0.2
		c-0.2,0-0.4,0.1-0.5,0.2s-0.2,0.3-0.2,0.4c0,0.2,0.1,0.3,0.2,0.4S50.3,38.4,50.5,38.4z M49.9,39.6c-0.3,0.1-0.4,0.2-0.4,0.4
		c0,0.1,0.1,0.2,0.3,0.3c0.2,0.1,0.5,0.1,0.8,0.1c0.3,0,0.6,0,0.8-0.1c0.2-0.1,0.4-0.2,0.4-0.3c0-0.1,0-0.2-0.1-0.2
		c-0.1-0.1-0.2-0.1-0.3-0.1c-0.1,0-0.3,0-0.6,0C50.4,39.6,50.1,39.6,49.9,39.6L49.9,39.6z M56,39.4v0.3c-0.2,0-0.4,0-0.5,0
		c-0.7,0-1-0.3-1-0.8v-1.6h-0.6v-0.4h0.6l0-0.7l0.6,0v0.7h0.8v0.4h-0.8V39c0,0.3,0.2,0.4,0.5,0.4C55.7,39.5,55.9,39.4,56,39.4
		L56,39.4z M57.8,39.7c-0.5,0-0.8-0.1-1.1-0.4c-0.3-0.3-0.4-0.6-0.4-1c0-0.4,0.2-0.7,0.4-1c0.3-0.3,0.7-0.4,1.1-0.4
		c0.5,0,0.8,0.1,1.1,0.4c0.3,0.3,0.4,0.6,0.4,1c0,0.4-0.1,0.7-0.4,1S58.3,39.7,57.8,39.7L57.8,39.7z M57.9,39.3
		c0.3,0,0.5-0.1,0.7-0.3c0.2-0.2,0.3-0.4,0.3-0.8c0-0.4-0.1-0.6-0.3-0.8c-0.2-0.2-0.4-0.2-0.7-0.2c-0.3,0-0.5,0.1-0.7,0.3
		s-0.3,0.4-0.3,0.8c0,0.4,0.1,0.6,0.3,0.8C57.4,39.3,57.6,39.3,57.9,39.3L57.9,39.3z M61.4,39l0.5-0.1c0.1,0.3,0.5,0.5,1.1,0.5
		c0.2,0,0.4,0,0.6-0.1c0.2-0.1,0.2-0.2,0.2-0.3c0-0.2-0.2-0.3-0.6-0.4l-0.7-0.1c-0.3,0-0.5-0.1-0.7-0.2c-0.2-0.1-0.3-0.3-0.3-0.5
		c0-0.2,0.1-0.4,0.3-0.5c0.2-0.1,0.5-0.2,0.9-0.2c0.7,0,1.2,0.2,1.4,0.7l-0.5,0.1c-0.1-0.3-0.4-0.4-0.9-0.4c-0.2,0-0.4,0-0.5,0.1
		c-0.1,0.1-0.2,0.2-0.2,0.3c0,0.2,0.2,0.3,0.5,0.4l0.7,0.1c0.7,0.1,1,0.3,1,0.8c0,0.2-0.1,0.4-0.4,0.6c-0.3,0.1-0.6,0.2-1,0.2
		C62.1,39.7,61.6,39.5,61.4,39L61.4,39z M67.5,38.9L68,39c-0.1,0.2-0.3,0.4-0.5,0.5c-0.3,0.1-0.6,0.2-0.9,0.2
		c-0.5,0-0.8-0.1-1.1-0.4c-0.3-0.3-0.4-0.6-0.4-1c0-0.4,0.2-0.7,0.4-1c0.3-0.3,0.7-0.4,1.1-0.4c0.4,0,0.8,0.1,1.1,0.3
		c0.3,0.2,0.4,0.6,0.4,1h-2.5c0,0.4,0.1,0.7,0.3,0.8s0.4,0.2,0.7,0.2C67,39.4,67.3,39.2,67.5,38.9z M67.4,38c0-0.1,0-0.3-0.1-0.4
		c-0.1-0.1-0.2-0.2-0.3-0.3c-0.1-0.1-0.3-0.1-0.5-0.1c-0.3,0-0.5,0.1-0.7,0.2c-0.2,0.1-0.3,0.3-0.3,0.6L67.4,38L67.4,38z M71.8,39.6
		h-0.5c0-0.1,0-0.2-0.1-0.5c-0.2,0.4-0.6,0.5-1.2,0.5c-0.4,0-0.7-0.1-0.9-0.2c-0.2-0.2-0.3-0.3-0.3-0.6c0-0.3,0.1-0.5,0.4-0.6
		C69.5,38,70,38,70.7,38c0.1,0,0.2,0,0.4,0c0-0.2,0-0.3-0.1-0.4c0-0.1-0.1-0.2-0.3-0.2c-0.1-0.1-0.3-0.1-0.5-0.1
		c-0.5,0-0.8,0.2-0.9,0.5l-0.5-0.1c0.1-0.5,0.6-0.7,1.5-0.7c0.5,0,0.8,0.1,1,0.2s0.3,0.4,0.3,0.8v1.1C71.7,39.2,71.7,39.4,71.8,39.6
		L71.8,39.6z M71.1,38.3c-0.2,0-0.4,0-0.5,0c-0.4,0-0.7,0.1-1,0.2c-0.2,0.1-0.3,0.3-0.3,0.5c0,0.1,0.1,0.2,0.2,0.3
		c0.1,0.1,0.3,0.1,0.5,0.1c0.3,0,0.6-0.1,0.8-0.3s0.3-0.4,0.3-0.6C71.1,38.4,71.1,38.4,71.1,38.3L71.1,38.3z M73.4,39.6h-0.6v-2.5
		h0.6v0.6c0.2-0.3,0.3-0.5,0.5-0.5C74,37,74.2,37,74.4,37c0.1,0,0.1,0,0.2,0v0.2h-0.1c-0.3,0-0.5,0.1-0.7,0.3
		c-0.2,0.2-0.3,0.4-0.3,0.7V39.6L73.4,39.6z M77.2,38.7l0.5,0.1c-0.1,0.3-0.2,0.5-0.4,0.7c-0.2,0.2-0.5,0.2-0.9,0.2
		c-0.5,0-0.8-0.1-1.1-0.4c-0.3-0.3-0.4-0.6-0.4-1c0-0.4,0.1-0.7,0.4-1c0.3-0.3,0.6-0.4,1.1-0.4c0.4,0,0.7,0.1,0.9,0.3
		c0.2,0.2,0.4,0.4,0.4,0.7l-0.5,0.1c-0.1-0.4-0.4-0.6-0.8-0.6c-0.3,0-0.5,0.1-0.7,0.3c-0.2,0.2-0.2,0.4-0.2,0.7
		c0,0.3,0.1,0.6,0.2,0.8c0.2,0.2,0.4,0.3,0.7,0.3C76.8,39.4,77.1,39.1,77.2,38.7L77.2,38.7z M81.3,39.6h-0.6V38c0-0.2,0-0.3,0-0.4
		s-0.1-0.2-0.2-0.2c-0.1-0.1-0.2-0.1-0.4-0.1c-0.3,0-0.5,0.1-0.7,0.3c-0.2,0.2-0.3,0.4-0.3,0.7v1.4h-0.6v-3.5h0.6v1.4
		c0.2-0.4,0.6-0.5,1-0.5c0.2,0,0.4,0,0.5,0.1c0.2,0.1,0.3,0.1,0.4,0.2s0.1,0.2,0.2,0.3s0,0.3,0,0.5V39.6z M88.5,39.6h-0.4V38
		c0-0.2,0-0.3,0-0.4c0-0.1-0.1-0.2-0.2-0.2c-0.1-0.1-0.3-0.1-0.4-0.1c-0.2,0-0.4,0.1-0.6,0.2s-0.3,0.3-0.3,0.6v1.4H86v-1.7
		c0-0.2-0.1-0.4-0.2-0.5c-0.1-0.1-0.3-0.1-0.4-0.1c-0.2,0-0.4,0.1-0.5,0.2c-0.2,0.1-0.2,0.3-0.2,0.6v1.5H84v-2.5h0.4v0.5
		c0.3-0.4,0.6-0.6,1-0.6c0.2,0,0.4,0.1,0.6,0.2c0.2,0.1,0.3,0.3,0.3,0.4c0.2-0.4,0.6-0.6,1.1-0.6c0.2,0,0.4,0.1,0.6,0.1
		c0.2,0.1,0.3,0.2,0.3,0.3c0.1,0.1,0.1,0.3,0.1,0.5L88.5,39.6L88.5,39.6z M91,39.7c-0.5,0-0.8-0.1-1.1-0.4c-0.3-0.3-0.4-0.6-0.4-1
		c0-0.4,0.1-0.7,0.4-1c0.3-0.3,0.7-0.4,1.1-0.4c0.5,0,0.8,0.1,1.1,0.4c0.3,0.3,0.4,0.6,0.4,1c0,0.4-0.1,0.7-0.4,1
		C91.8,39.5,91.4,39.7,91,39.7L91,39.7z M91,39.3c0.3,0,0.5-0.1,0.7-0.3c0.2-0.2,0.3-0.4,0.3-0.8c0-0.4-0.1-0.6-0.3-0.8
		c-0.2-0.2-0.4-0.2-0.7-0.2c-0.3,0-0.5,0.1-0.7,0.3c-0.2,0.2-0.3,0.4-0.3,0.8c0,0.4,0.1,0.6,0.3,0.8C90.5,39.3,90.7,39.3,91,39.3
		L91,39.3z M94.1,39.6h-0.6v-2.5h0.6v0.6c0.2-0.3,0.3-0.5,0.5-0.5C94.7,37,94.9,37,95,37c0.1,0,0.1,0,0.2,0v0.2h-0.1
		c-0.3,0-0.5,0.1-0.7,0.3c-0.2,0.2-0.3,0.4-0.3,0.7V39.6L94.1,39.6z M98.2,38.9l0.5,0.1c-0.1,0.2-0.3,0.4-0.5,0.5
		c-0.3,0.1-0.6,0.2-0.9,0.2c-0.5,0-0.8-0.1-1.1-0.4c-0.3-0.3-0.4-0.6-0.4-1c0-0.4,0.2-0.7,0.4-1c0.3-0.3,0.7-0.4,1.1-0.4
		s0.8,0.1,1.1,0.3c0.3,0.2,0.4,0.6,0.4,1h-2.5c0,0.4,0.1,0.7,0.3,0.8c0.2,0.1,0.4,0.2,0.7,0.2C97.7,39.4,98,39.2,98.2,38.9z
		 M98.1,38c0-0.1,0-0.3-0.1-0.4c-0.1-0.1-0.2-0.2-0.3-0.3c-0.1-0.1-0.3-0.1-0.5-0.1c-0.3,0-0.5,0.1-0.7,0.2
		c-0.2,0.1-0.3,0.3-0.3,0.6L98.1,38L98.1,38z"/>
</g>
</svg>
