<?xml version="1.0" encoding="UTF-8"?>
<svg version="1.1" xmlns="http://www.w3.org/2000/svg" width="264" height="38">
<path d="M0 0 C3.17900138 1.78024077 6.00379833 3.84707354 8.75 6.25 C9.56404297 5.50943359 9.56404297 5.50943359 10.39453125 4.75390625 C11.46767578 3.79291016 11.46767578 3.79291016 12.5625 2.8125 C13.27019531 2.17441406 13.97789062 1.53632812 14.70703125 0.87890625 C19.13835615 -2.65429161 24.35441797 -2.10282115 29.75 -1.75 C32.8125 -0.875 32.8125 -0.875 34.75 0.25 C35.08 0.91 35.41 1.57 35.75 2.25 C36.86375 1.5384375 36.86375 1.5384375 38 0.8125 C42.98302585 -2.01876469 48.10203365 -2.45945091 53.75 -1.75 C56.64190665 -0.65537748 59.06181346 0.68596419 61.75 2.25 C61.75 1.26 61.75 0.27 61.75 -0.75 C76.93 -0.75 92.11 -0.75 107.75 -0.75 C108.08 -0.09 108.41 0.57 108.75 1.25 C109.719375 0.755 110.68875 0.26 111.6875 -0.25 C117.07934049 -2.5020137 121.85552106 -2.74604128 127.40625 -0.8359375 C132.85065325 1.64606986 136.06470817 3.87941634 138.75 9.25 C140.55211131 14.65633392 140.48284031 20.20576124 138.5625 25.5625 C134.82956792 31.09753722 131.16754053 34.21777883 124.75 36.25 C118.26011726 37.20886556 113.11651016 36.03467856 107.75 32.25 C103.63333939 28.62441312 101.66466264 24.6465096 100.75 19.25 C100.86930622 15.43220087 101.02587259 11.69825483 102.75 8.25 C101.76 8.25 100.77 8.25 99.75 8.25 C99.75 17.16 99.75 26.07 99.75 35.25 C96.12 35.25 92.49 35.25 88.75 35.25 C88.75 26.34 88.75 17.43 88.75 8.25 C85.78 8.25 82.81 8.25 79.75 8.25 C79.75 17.16 79.75 26.07 79.75 35.25 C76.45 35.25 73.15 35.25 69.75 35.25 C69.75 26.34 69.75 17.43 69.75 8.25 C68.76 8.25 67.77 8.25 66.75 8.25 C67.08 9.24 67.41 10.23 67.75 11.25 C68.41475679 18.70399418 68.39433645 24.22491487 63.75 30.25 C58.38802049 35.3370062 53.58464088 36.69467228 46.33203125 36.5859375 C42.21313096 36.05004427 39.30302727 34.35549764 35.75 32.25 C35.3375 32.724375 34.925 33.19875 34.5 33.6875 C30.97654371 36.83344311 26.50507732 36.53137593 21.98828125 36.46484375 C16.08591386 35.89829889 12.01118444 32.00390058 7.75 28.25 C7.30269531 28.65992187 6.85539062 29.06984375 6.39453125 29.4921875 C0.82268874 34.45813669 -3.32208793 36.7645118 -10.91015625 36.5625 C-16.30342115 35.84219751 -20.56735504 33.32681548 -24.1875 29.3125 C-26.12895833 26.42972854 -26.94836913 24.66848324 -27.25 21.25 C-27.91 21.25 -28.57 21.25 -29.25 21.25 C-29.3325 21.889375 -29.415 22.52875 -29.5 23.1875 C-30.54520372 27.45541517 -32.39091826 31.28107667 -34.25 35.25 C-37.22 35.25 -40.19 35.25 -43.25 35.25 C-45.56 29.64 -47.87 24.03 -50.25 18.25 C-50.62125 20.8178125 -50.62125 20.8178125 -51 23.4375 C-51.8507781 28.03406499 -52.59000958 31.09834158 -56.25 34.25 C-61.49317249 36.93552737 -67.49071126 36.94858791 -73.25 36.25 C-76.20699681 35.18232454 -78.53968869 33.88641438 -81.25 32.25 C-81.58 33.24 -81.91 34.23 -82.25 35.25 C-86.0519773 35.80859456 -89.46309736 35.98356513 -93.25 35.25 C-96.41494958 32.73838904 -98.3355629 29.66853506 -100.4375 26.25 C-101.00791016 25.39148438 -101.57832031 24.53296875 -102.16601562 23.6484375 C-103.5614106 21.53775603 -104.91050835 19.39659394 -106.25 17.25 C-106.58 23.19 -106.91 29.13 -107.25 35.25 C-110.55 35.25 -113.85 35.25 -117.25 35.25 C-117.25 23.37 -117.25 11.49 -117.25 -0.75 C-107.25 -0.75 -107.25 -0.75 -104.2265625 1.8828125 C-103.40912632 3.02354338 -102.62526666 4.18901147 -101.875 5.375 C-101.27751953 6.22964844 -101.27751953 6.22964844 -100.66796875 7.1015625 C-99.49270625 8.79702316 -98.3709931 10.51821226 -97.25 12.25 C-95.27 15.22 -95.27 15.22 -93.25 18.25 C-92.92 11.98 -92.59 5.71 -92.25 -0.75 C-85.98 -0.75 -79.71 -0.75 -73.25 -0.75 C-73.20101562 0.94769531 -73.15203125 2.64539063 -73.1015625 4.39453125 C-73.02653556 6.61720423 -72.9509877 8.83985966 -72.875 11.0625 C-72.8440625 12.18205078 -72.813125 13.30160156 -72.78125 14.45507812 C-72.72324219 16.06479492 -72.72324219 16.06479492 -72.6640625 17.70703125 C-72.6326416 18.69678955 -72.6012207 19.68654785 -72.56884766 20.70629883 C-72.41226567 23.49075094 -72.41226567 23.49075094 -70.25 26.25 C-67.94 26.25 -65.63 26.25 -63.25 26.25 C-62.92 17.34 -62.59 8.43 -62.25 -0.75 C-56.97 -0.75 -51.69 -0.75 -46.25 -0.75 C-43.94 5.52 -41.63 11.79 -39.25 18.25 C-37.64877443 15.84816164 -36.71414439 14.09821846 -35.7421875 11.45703125 C-35.47792969 10.74482422 -35.21367188 10.03261719 -34.94140625 9.29882812 C-34.67199219 8.56083984 -34.40257813 7.82285156 -34.125 7.0625 C-33.70927734 5.93811523 -33.70927734 5.93811523 -33.28515625 4.79101562 C-32.60329598 2.94529041 -31.92618441 1.09781213 -31.25 -0.75 C-27.62 -0.75 -23.99 -0.75 -20.25 -0.75 C-20.25 -0.09 -20.25 0.57 -20.25 1.25 C-19.280625 0.755 -18.31125 0.26 -17.3125 -0.25 C-11.39397078 -2.74389638 -5.8203951 -2.7731826 0 0 Z M-16.25 11.25 C-17.8570124 14.46402479 -17.71746516 17.76404554 -17.25 21.25 C-15.2062792 25.09219511 -13.98088712 26.02408944 -9.8125 27.3125 C-5.51668421 27.23713481 -4.19780329 26.28450339 -1.25 23.25 C0.3570124 20.03597521 0.21746516 16.73595446 -0.25 13.25 C-2.2937208 9.40780489 -3.51911288 8.47591056 -7.6875 7.1875 C-11.98331579 7.26286519 -13.30219671 8.21549661 -16.25 11.25 Z M42.0234375 10.765625 C39.90842546 13.23097646 39.68583762 15.04188092 39.75 18.25 C41.27054964 23.06801204 41.27054964 23.06801204 44.5625 26.75 C47.64810428 27.45528098 49.71499506 27.13520977 52.75 26.25 C55.91229446 24.02784713 56.64711057 22.62040194 57.6875 18.875 C57.75954896 14.69616045 57.07455736 12.69675746 54.75 9.25 C50.00111689 5.87982489 46.20159329 6.99043855 42.0234375 10.765625 Z M113.75 10.25 C111.39430806 14.02071508 111.53633214 16.82634803 112.15234375 21.1171875 C112.66960565 23.50507899 112.66960565 23.50507899 114.875 25.875 C118.72325296 27.71546881 120.69711542 27.50270978 124.75 26.25 C127.2650608 24.12187163 128.48916282 22.58107633 129.12890625 19.31640625 C129.34532353 15.62335006 128.94082295 13.59494918 127.125 10.3125 C122.46772821 6.26802713 118.48105205 6.43887474 113.75 10.25 Z M19.3125 9.8125 C17.23141097 13.05899889 16.81750043 15.40247539 16.75 19.25 C18.11428393 22.17346557 19.47750909 23.97750909 21.75 26.25 C24.43839385 26.51991906 27.04141936 26.33737357 29.75 26.25 C30.92794853 22.71615441 30.88264317 19.84722447 30.875 16.125 C30.87757813 14.86429688 30.88015625 13.60359375 30.8828125 12.3046875 C31.10010022 9.37485868 31.10010022 9.37485868 29.75 8.25 C24.21408851 7.6969 24.21408851 7.6969 19.3125 9.8125 Z " fill="#2A2928" transform="translate(117.25,1.75)"/>
<path d="M0 0 C1.98 0 3.96 0 6 0 C6 2.64 6 5.28 6 8 C4 8 2 8 0 8 C0 5.36 0 2.72 0 0 Z " fill="#292827" transform="translate(258,1)"/>
</svg>
