<?xml version="1.0" encoding="UTF-8"?>
<svg version="1.1" xmlns="http://www.w3.org/2000/svg" width="190" height="106">
<path d="M0 0 C3.18559952 1.39633107 5.23943845 3.04557493 7.625 5.5625 C10.04521959 8.14015389 10.04521959 8.14015389 13 10 C13 10.99 13 11.98 13 13 C13.598125 13.103125 14.19625 13.20625 14.8125 13.3125 C17.31258286 14.09824033 18.37535082 14.96918853 20 17 C20 17.66 20 18.32 20 19 C20.61875 19.2475 21.2375 19.495 21.875 19.75 C24.37480203 21.22047178 24.83316022 22.41403076 26 25 C24.21427748 26.83947337 22.42197551 28.67157741 20.625 30.5 C20.11710937 31.02464844 19.60921875 31.54929687 19.0859375 32.08984375 C17.76167396 33.43153181 16.38394135 34.71995815 15 36 C14.34 36 13.68 36 13 36 C12.76539063 36.56203125 12.53078125 37.1240625 12.2890625 37.703125 C10.69337 40.54635891 8.71075457 42.48098127 6.375 44.75 C5.14910156 45.94882813 5.14910156 45.94882813 3.8984375 47.171875 C3.27195312 47.77515625 2.64546875 48.3784375 2 49 C-2.17443363 45.49925018 -6.3145494 42.02049157 -10 38 C-10 37.34 -10 36.68 -10 36 C-10.598125 35.896875 -11.19625 35.79375 -11.8125 35.6875 C-14.31258286 34.90175967 -15.37535082 34.03081147 -17 32 C-17 31.34 -17 30.68 -17 30 C-17.928125 29.566875 -17.928125 29.566875 -18.875 29.125 C-21 28 -21 28 -23 26 C-22.77821157 22.00780828 -20.35495705 19.95345261 -17.625 17.25 C-16.83351563 16.45078125 -16.04203125 15.6515625 -15.2265625 14.828125 C-13 13 -13 13 -10 13 C-9.896875 12.401875 -9.79375 11.80375 -9.6875 11.1875 C-8.90175967 8.68741714 -8.03081147 7.62464918 -6 6 C-5.34 6 -4.68 6 -4 6 C-3.566875 5.071875 -3.566875 5.071875 -3.125 4.125 C-2 2 -2 2 0 0 Z " fill="#D9C8C3" transform="translate(72,12)"/>
<path d="M0 0 C61.71 0 123.42 0 187 0 C187 0.99 187 1.98 187 3 C125.29 3 63.58 3 0 3 C0 2.01 0 1.02 0 0 Z " fill="#2A5D47" transform="translate(2,92)"/>
<path d="M0 0 C61.71 0 123.42 0 187 0 C187 0.66 187 1.32 187 2 C125.29 2 63.58 2 0 2 C0 1.34 0 0.68 0 0 Z " fill="#C8A499" transform="translate(2,89)"/>
<path d="M0 0 C12 0 12 0 15 2 C15.1875 5.4375 15.1875 5.4375 15 9 C15 9.99 15 10.98 15 12 C15.33 12.33 15.66 12.66 16 13 C16.52307119 16.83585542 16.27113549 18.56992302 14.1875 21.875 C11 24 11 24 0 24 C0 16.08 0 8.16 0 0 Z M7 4 C7 5.65 7 7.3 7 9 C7.66 8.67 8.32 8.34 9 8 C8.67 6.68 8.34 5.36 8 4 C7.67 4 7.34 4 7 4 Z M7 14 C7 15.65 7 17.3 7 19 C7.99 18.34 8.98 17.68 10 17 C9.67 16.01 9.34 15.02 9 14 C8.34 14 7.68 14 7 14 Z " fill="#225B42" transform="translate(109,62)"/>
<path d="M0 0 C2.10353495 -0.0810206 4.20795952 -0.13919907 6.3125 -0.1875 C7.48425781 -0.22230469 8.65601563 -0.25710937 9.86328125 -0.29296875 C13 0 13 0 14.8984375 1.26171875 C16.22056542 3.34805536 16.37296883 4.54403521 16.3125 7 C16.30863281 7.680625 16.30476563 8.36125 16.30078125 9.0625 C16 11 16 11 14 14 C10.375 14.6875 10.375 14.6875 7 15 C7 17.97 7 20.94 7 24 C5.00045254 24.04254356 2.99958364 24.04080783 1 24 C-0 23 -0 23 -0.11352539 20.77514648 C-0.10828857 19.81680908 -0.10305176 18.85847168 -0.09765625 17.87109375 C-0.09443359 16.83662109 -0.09121094 15.80214844 -0.08789062 14.73632812 C-0.07951172 13.64771484 -0.07113281 12.55910156 -0.0625 11.4375 C-0.05798828 10.34501953 -0.05347656 9.25253906 -0.04882812 8.12695312 C-0.03699826 5.41791505 -0.02051543 2.70898401 0 0 Z M7 5 C7 6.65 7 8.3 7 10 C7.99 9.67 8.98 9.34 10 9 C9.67 7.68 9.34 6.36 9 5 C8.34 5 7.68 5 7 5 Z " fill="#30654E" transform="translate(1,62)"/>
<path d="M0 0 C28.71 0 57.42 0 87 0 C87 0.99 87 1.98 87 3 C58.29 3 29.58 3 0 3 C0 2.01 0 1.02 0 0 Z " fill="#376852" transform="translate(102,33)"/>
<path d="M0 0 C1.98 0 3.96 0 6 0 C6.33 2.64 6.66 5.28 7 8 C7.66 7.01 8.32 6.02 9 5 C12.125 4.8125 12.125 4.8125 15 5 C14.566875 5.8353125 14.566875 5.8353125 14.125 6.6875 C13.75375 7.450625 13.3825 8.21375 13 9 C12.54625 9.7425 12.0925 10.485 11.625 11.25 C10.75862818 15.062036 12.15444752 16.9396558 14.0546875 20.23046875 C15 22 15 22 15 24 C13.02 24 11.04 24 9 24 C8.34 22.35 7.68 20.7 7 19 C6.67 20.65 6.34 22.3 6 24 C4.33388095 24.042721 2.66617115 24.04063832 1 24 C0 23 0 23 -0.11352539 20.77514648 C-0.10828857 19.81680908 -0.10305176 18.85847168 -0.09765625 17.87109375 C-0.09443359 16.83662109 -0.09121094 15.80214844 -0.08789062 14.73632812 C-0.07951172 13.64771484 -0.07113281 12.55910156 -0.0625 11.4375 C-0.05798828 10.34501953 -0.05347656 9.25253906 -0.04882812 8.12695312 C-0.03699826 5.41791505 -0.02051543 2.70898401 0 0 Z " fill="#336650" transform="translate(161,62)"/>
<path d="M0 0 C4.34799055 0 7.79250016 0.11421056 12 1 C14.40312827 6.55723413 14.43634266 12.04341538 14 18 C13.67 18.33 13.34 18.66 13 19 C11.35 19 9.7 19 8 19 C8 14.38 8 9.76 8 5 C7.34 5 6.68 5 6 5 C6 9.62 6 14.24 6 19 C4.02 19 2.04 19 0 19 C0 12.73 0 6.46 0 0 Z " fill="#336650" transform="translate(43,67)"/>
<path d="M0 0 C2.375 1.5625 2.375 1.5625 4 4 C4.25 7.75 4.25 7.75 4 11 C1.36 11 -1.28 11 -4 11 C-4 12.32 -4 13.64 -4 15 C-3.34 15 -2.68 15 -2 15 C-2 14.01 -2 13.02 -2 12 C-0.02 12 1.96 12 4 12 C3.6875 14.375 3.6875 14.375 3 17 C-0.70415293 19.46943529 -2.62144505 19.46913089 -7 19 C-9.19533413 16.81987604 -9.93338629 15.40808399 -10.43359375 12.34375 C-10.44404618 4.73438406 -10.44404618 4.73438406 -8.375 1.3125 C-5.26794769 -0.40455522 -3.50031342 -0.58338557 0 0 Z M-4 4 C-4 4.99 -4 5.98 -4 7 C-3.01 6.67 -2.02 6.34 -1 6 C-1.33 5.34 -1.66 4.68 -2 4 C-2.66 4 -3.32 4 -4 4 Z " fill="#346650" transform="translate(84,67)"/>
<path d="M0 0 C2.55949546 1.85342775 2.97918798 2.93756393 4 6 C4.25079495 10.5143091 4.13708771 13.96327876 2 18 C-1.0832635 19.54163175 -3.60878099 19.29747535 -7 19 C-9.20172046 16.82364498 -9.93321887 15.40910961 -10.43359375 12.34375 C-10.44404618 4.73438406 -10.44404618 4.73438406 -8.375 1.3125 C-5.31029126 -0.38115483 -3.45181843 -0.51410062 0 0 Z M-4 5 C-4 8.3 -4 11.6 -4 15 C-3.34 14.67 -2.68 14.34 -2 14 C-2 11.03 -2 8.06 -2 5 C-2.66 5 -3.32 5 -4 5 Z " fill="#2D624B" transform="translate(37,67)"/>
<path d="M0 0 C3.5625 0.3125 3.5625 0.3125 5.5 1.3125 C7.23528693 4.57892246 6.74232715 7.65601452 6.5625 11.3125 C3.9225 11.3125 1.2825 11.3125 -1.4375 11.3125 C-0.4475 12.7975 -0.4475 12.7975 0.5625 14.3125 C0.8925 13.6525 1.2225 12.9925 1.5625 12.3125 C3.2125 12.3125 4.8625 12.3125 6.5625 12.3125 C5.8125 17.0625 5.8125 17.0625 3.5625 19.3125 C-0.77393601 19.62787716 -2.76403229 19.76147847 -6.4375 17.3125 C-7.58506721 12.96098676 -7.80009433 8.65130983 -6.625 4.3125 C-4.6424213 0.97342009 -3.98302145 0.36209286 0 0 Z M-0.4375 4.3125 C-0.7675 5.3025 -1.0975 6.2925 -1.4375 7.3125 C-0.4475 7.3125 0.5425 7.3125 1.5625 7.3125 C1.2325 6.3225 0.9025 5.3325 0.5625 4.3125 C0.2325 4.3125 -0.0975 4.3125 -0.4375 4.3125 Z " fill="#2E624B" transform="translate(65.4375,66.6875)"/>
<path d="M0 0 C4 3 4 3 4.93359375 4.984375 C5 7 5 7 3.78515625 8.703125 C2.19010417 10.13541667 0.59505208 11.56770833 -1 13 C1.31 11.02 3.62 9.04 6 7 C7.32 7.66 8.64 8.32 10 9 C10 12 10 12 8.03125 14.26171875 C7.1959375 15.06222656 6.360625 15.86273438 5.5 16.6875 C4.6646875 17.49574219 3.829375 18.30398437 2.96875 19.13671875 C2.3190625 19.75160156 1.669375 20.36648437 1 21 C-0.08839774 20.11032656 -1.17044608 19.21288426 -2.25 18.3125 C-2.85328125 17.81363281 -3.4565625 17.31476562 -4.078125 16.80078125 C-6 15 -6 15 -10 10 C-6.7 6.7 -3.4 3.4 0 0 Z " fill="#F5F1F0" transform="translate(60,26)"/>
<path d="M0 0 C1.9375 1.1875 1.9375 1.1875 3 3 C3.1875 5.6875 3.1875 5.6875 3 8 C1.35 8 -0.3 8 -2 8 C-2 7.01 -2 6.02 -2 5 C-2.66 5 -3.32 5 -4 5 C-3.67 7.64 -3.34 10.28 -3 13 C-2.67 12.34 -2.34 11.68 -2 11 C-0.35 11 1.3 11 3 11 C3.21917317 13.70313576 3.32851983 15.43958382 1.9375 17.8125 C-1.09375543 19.67036623 -3.53422859 19.37133265 -7 19 C-8.6953125 17.8828125 -8.6953125 17.8828125 -10 16 C-10.3984375 12.96875 -10.3984375 12.96875 -10.375 9.5 C-10.38660156 7.78296875 -10.38660156 7.78296875 -10.3984375 6.03125 C-10 3 -10 3 -8.6953125 1.1171875 C-5.83391859 -0.76843153 -3.30770463 -0.35439692 0 0 Z " fill="#30634D" transform="translate(156,67)"/>
<path d="M0 0 C1.9375 1.3125 1.9375 1.3125 3 3 C3 3.99 3 4.98 3 6 C-0.71599191 6.20086443 -1.77208445 6.1519437 -5 4 C-5 4.66 -5 5.32 -5 6 C-3.576875 6.433125 -3.576875 6.433125 -2.125 6.875 C1 8 1 8 3 10 C3.3267107 13.07108055 3.48138276 15.15050101 1.9375 17.875 C-1.1069286 19.64273274 -3.5631012 19.36823916 -7 19 C-8.9375 17.75 -8.9375 17.75 -10 16 C-10 14.68 -10 13.36 -10 12 C-9.01 11.67 -8.02 11.34 -7 11 C-7.495 10.608125 -7.99 10.21625 -8.5 9.8125 C-10 8 -10 8 -10.375 5.5 C-10 3 -10 3 -8.9375 1.1875 C-5.90624457 -0.67036623 -3.46577141 -0.37133265 0 0 Z M-5 12 C-4.67 12.99 -4.34 13.98 -4 15 C-3.34 14.34 -2.68 13.68 -2 13 C-2.99 12.67 -3.98 12.34 -5 12 Z " fill="#235B42" transform="translate(186,67)"/>
<path d="M0 0 C28.71 0 57.42 0 87 0 C87 0.66 87 1.32 87 2 C58.29 2 29.58 2 0 2 C0 1.34 0 0.68 0 0 Z " fill="#C29D91" transform="translate(102,38)"/>
<path d="M0 0 C1.98 0 3.96 0 6 0 C6 8.25 6 16.5 6 25 C4.02 25 2.04 25 0 25 C0 16.75 0 8.5 0 0 Z " fill="#18533A" transform="translate(19,61)"/>
<path d="M0 0 C1.65 0 3.3 0 5 0 C6.27414816 4.8943469 6.14757083 9.73175245 6.125 14.75 C6.12886719 15.62527344 6.13273438 16.50054687 6.13671875 17.40234375 C6.13542969 18.23378906 6.13414062 19.06523438 6.1328125 19.921875 C6.13168457 20.68081055 6.13055664 21.43974609 6.12939453 22.22167969 C6 24 6 24 5 25 C3.35 25 1.7 25 0 25 C0 16.75 0 8.5 0 0 Z " fill="#0D4B30" transform="translate(138,61)"/>
<path d="M0 0 C3.68069887 1.53643852 5.98775204 3.78150945 8.75 6.625 C9.54921875 7.44226562 10.3484375 8.25953125 11.171875 9.1015625 C12.07679687 10.04128906 12.07679687 10.04128906 13 11 C11.35 12.98 9.7 14.96 8 17 C3.81576108 13.49102731 -0.19588166 9.91939465 -4 6 C-2.84826645 3.53199953 -1.95216435 1.95216435 0 0 Z " fill="#A55F4A" transform="translate(66,44)"/>
<path d="M0 0 C3.18559952 1.39633107 5.23943845 3.04557493 7.625 5.5625 C10.04521959 8.14015389 10.04521959 8.14015389 13 10 C11.84826645 12.46800047 10.95216435 14.04783565 9 16 C4.93891248 15.80041664 2.93973606 13.24590088 0.25 10.4375 C-0.94882813 9.19806641 -0.94882813 9.19806641 -2.171875 7.93359375 C-2.77515625 7.29550781 -3.3784375 6.65742188 -4 6 C-2.84826645 3.53199953 -1.95216435 1.95216435 0 0 Z " fill="#A7634E" transform="translate(72,12)"/>
<path d="M0 0 C3 0 6 0 9 0 C9 1.98 9 3.96 9 6 C8.01 6.495 8.01 6.495 7 7 C6.53101037 9.8159849 6.53101037 9.8159849 6.375 13.0625 C6.30023438 14.16722656 6.22546875 15.27195312 6.1484375 16.41015625 C6.09945312 17.26480469 6.05046875 18.11945313 6 19 C4.02 19 2.04 19 0 19 C0 12.73 0 6.46 0 0 Z " fill="#346750" transform="translate(127,67)"/>
<path d="M0 0 C3 0 6 0 9 0 C9 2.31 9 4.62 9 7 C8.01 6.67 7.02 6.34 6 6 C6 10.29 6 14.58 6 19 C4.02 19 2.04 19 0 19 C0 12.73 0 6.46 0 0 Z " fill="#33664F" transform="translate(90,67)"/>
<path d="M0 0 C0.99 0 1.98 0 3 0 C3 0.66 3 1.32 3 2 C3.53625 2.20625 4.0725 2.4125 4.625 2.625 C8.0017654 4.57996944 10.30474839 7.18223695 13 10 C11.48601545 13.78496138 10.9855604 14.0072198 7 16 C3.37 12.37 -0.26 8.74 -4 5 C-2.68 3.35 -1.36 1.7 0 0 Z " fill="#A55F4A" transform="translate(72,38)"/>
<path d="M0 0 C14.19 0 28.38 0 43 0 C43 0.99 43 1.98 43 3 C28.81 3 14.62 3 0 3 C0 2.01 0 1.02 0 0 Z " fill="#356651" transform="translate(2,33)"/>
<path d="M0 0 C4.06108752 0.19958336 6.06026394 2.75409912 8.75 5.5625 C9.94882813 6.80193359 9.94882813 6.80193359 11.171875 8.06640625 C11.77515625 8.70449219 12.3784375 9.34257812 13 10 C11.63016497 13.16115776 11.0109362 13.9927092 8 16 C-0.15517241 9.36206897 -0.15517241 9.36206897 -3 6 C-2.91236229 2.93268023 -2.18647619 2.18647619 0 0 Z " fill="#A55E49" transform="translate(65,19)"/>
<path d="M0 0 C1.65 1.32 3.3 2.64 5 4 C3.59155282 7.21524305 1.89655214 9.32183868 -0.625 11.75 C-1.25664063 12.36359375 -1.88828125 12.9771875 -2.5390625 13.609375 C-3.02117187 14.06828125 -3.50328125 14.5271875 -4 15 C-7.16115776 13.63016497 -7.9927092 13.0109362 -10 10 C-6.7 6.7 -3.4 3.4 0 0 Z " fill="#F6F1F0" transform="translate(92,32)"/>
<path d="M0 0 C3.24271506 0.5590888 4.93057424 1.4132178 7 4 C7 4.66 7 5.32 7 6 C7.928125 6.37125 7.928125 6.37125 8.875 6.75 C11.35068687 8.20628639 11.95125002 9.37812506 13 12 C11.02 10.68 9.04 9.36 7 8 C4.03 10.97 1.06 13.94 -2 17 C-0.02 19.97 -0.02 19.97 2 23 C-1.52286386 22.39698727 -3.54501603 21.0542456 -6.25 18.75 C-6.95640625 18.16734375 -7.6628125 17.5846875 -8.390625 16.984375 C-10.40279724 14.50334709 -10.32210684 13.11369948 -10 10 C-8.68 11.32 -7.36 12.64 -6 14 C-1.70761377 12.34908222 0.8793915 9.26245434 4 6 C3.34 4.68 2.68 3.36 2 2 C0.68 2.33 -0.64 2.66 -2 3 C-1.34 2.01 -0.68 1.02 0 0 Z " fill="#D1BCB6" transform="translate(85,25)"/>
<path d="M0 0 C2.43929888 5.03105395 2.75728737 9.51177006 1.125 14.875 C0 17 0 17 -2 18 C-4.3329866 18.04022391 -6.66706666 18.04320247 -9 18 C-9 17.34 -9 16.68 -9 16 C-7.68 15.67 -6.36 15.34 -5 15 C-4.95101562 14.00097656 -4.90203125 13.00195312 -4.8515625 11.97265625 C-4.73941406 10.03712891 -4.73941406 10.03712891 -4.625 8.0625 C-4.55539063 6.77472656 -4.48578125 5.48695312 -4.4140625 4.16015625 C-4.27742188 3.11730469 -4.14078125 2.07445313 -4 1 C-2 0 -2 0 0 0 Z " fill="#265D45" transform="translate(39,68)"/>
<path d="M0 0 C1.98 0 3.96 0 6 0 C6.83725216 3.64138242 7.13509204 7.01594496 7.125 10.75 C7.12757812 11.71421875 7.13015625 12.6784375 7.1328125 13.671875 C7 16 7 16 6 17 C4.35 17 2.7 17 1 17 C1 12.38 1 7.76 1 3 C0.34 2.67 -0.32 2.34 -1 2 C-0.67 1.34 -0.34 0.68 0 0 Z " fill="#1C553C" transform="translate(50,69)"/>
<path d="M0 0 C14.19 0 28.38 0 43 0 C43 0.66 43 1.32 43 2 C28.81 2 14.62 2 0 2 C0 1.34 0 0.68 0 0 Z " fill="#C29C90" transform="translate(2,38)"/>
<path d="M0 0 C1.32 0.66 2.64 1.32 4 2 C4 5 4 5 2.03125 7.26171875 C1.1959375 8.06222656 0.360625 8.86273438 -0.5 9.6875 C-1.3353125 10.49574219 -2.170625 11.30398437 -3.03125 12.13671875 C-4.00578125 13.05904297 -4.00578125 13.05904297 -5 14 C-6.65 12.35 -8.3 10.7 -10 9 C-9.34 9 -8.68 9 -8 9 C-8 8.34 -8 7.68 -8 7 C-6.25 5.2734375 -6.25 5.2734375 -4 3.375 C-3.2575 2.74335937 -2.515 2.11171875 -1.75 1.4609375 C-1.1725 0.97882812 -0.595 0.49671875 0 0 Z " fill="#FEFEFE" transform="translate(66,33)"/>
<path d="M0 0 C1.32 0.99 2.64 1.98 4 3 C2.59155282 6.21524305 0.89655214 8.32183868 -1.625 10.75 C-2.57246094 11.67039062 -2.57246094 11.67039062 -3.5390625 12.609375 C-4.02117187 13.06828125 -4.50328125 13.5271875 -5 14 C-6.9375 13.1875 -6.9375 13.1875 -9 12 C-9.33 11.01 -9.66 10.02 -10 9 C-9.0925 8.2575 -8.185 7.515 -7.25 6.75 C-4.6930577 4.62325416 -2.30889807 2.39770184 0 0 Z " fill="#FEFEFE" transform="translate(86,26)"/>
<path d="M0 0 C2.64 0 5.28 0 8 0 C8 0.33 8 0.66 8 1 C6.02 1 4.04 1 2 1 C2 7.93 2 14.86 2 22 C4.97 22 7.94 22 11 22 C11 22.66 11 23.32 11 24 C7.37 24 3.74 24 0 24 C0 16.08 0 8.16 0 0 Z " fill="#497561" transform="translate(109,62)"/>
<path d="M0 0 C4.83381252 0.66896513 6.9079051 3.89212724 10 7.3828125 C11.8400688 9.24413104 11.8400688 9.24413104 14.0625 8.8671875 C16.25412445 7.95075065 16.25412445 7.95075065 19 6 C17.72936492 10.96702804 15.95657311 13.71893937 12 17 C11.01 17 10.02 17 9 17 C9 17.99 9 18.98 9 20 C8.01 20 7.02 20 6 20 C6 19.01 6 18.02 6 17 C8.5 14.8125 8.5 14.8125 11 13 C9.6094742 9.84350645 7.97966857 7.76010494 5.5 5.375 C4.8915625 4.78460937 4.283125 4.19421875 3.65625 3.5859375 C3.1096875 3.06257813 2.563125 2.53921875 2 2 C1.34 1.34 0.68 0.68 0 0 Z " fill="#E4D8D4" transform="translate(66,18)"/>
<path d="M0 0 C1.98 0 3.96 0 6 0 C6 8.25 6 16.5 6 25 C4.02 25 2.04 25 0 25 C0 24.67 0 24.34 0 24 C1.65 24 3.3 24 5 24 C5 18.39 5 12.78 5 7 C3.35 7 1.7 7 0 7 C0 4.69 0 2.38 0 0 Z " fill="#ACBCB5" transform="translate(19,61)"/>
<path d="M0 0 C2.1875 -0.3125 2.1875 -0.3125 5 0 C7.8125 2.375 7.8125 2.375 10 5 C10 5.66 10 6.32 10 7 C3.56461405 7.36426713 3.56461405 7.36426713 1.0625 5.75 C0 4 0 4 0 0 Z " fill="#376953" transform="translate(176,79)"/>
<path d="M0 0 C1.65 0 3.3 0 5 0 C5 2.64 5 5.28 5 8 C2.36 8 -0.28 8 -3 8 C-2 5 -2 5 0 3 C0 2.01 0 1.02 0 0 Z " fill="#135035" transform="translate(82,69)"/>
<path d="M0 0 C0.33 0 0.66 0 1 0 C1.02684312 2.81256281 1.04676188 5.62487241 1.0625 8.4375 C1.07087891 9.23994141 1.07925781 10.04238281 1.08789062 10.86914062 C1.0965143 12.91295221 1.0522815 14.95683902 1 17 C0 18 0 18 -2.5625 18.0625 C-3.366875 18.041875 -4.17125 18.02125 -5 18 C-5 17.34 -5 16.68 -5 16 C-3.68 16 -2.36 16 -1 16 C-1.01160156 15.01257813 -1.02320313 14.02515625 -1.03515625 13.0078125 C-1.04417969 11.72648437 -1.05320313 10.44515625 -1.0625 9.125 C-1.07410156 7.84882812 -1.08570313 6.57265625 -1.09765625 5.2578125 C-1 2 -1 2 0 0 Z " fill="#6F9181" transform="translate(143,68)"/>
<path d="M0 0 C2.97 0.495 2.97 0.495 6 1 C6 3.31 6 5.62 6 8 C3.36 8 0.72 8 -2 8 C-1.2265625 7.4121875 -1.2265625 7.4121875 -0.4375 6.8125 C0.036875 6.214375 0.51125 5.61625 1 5 C0.76956136 2.34533951 0.76956136 2.34533951 0 0 Z " fill="#19543A" transform="translate(66,69)"/>
<path d="M0 0 C2.52557477 0.24441046 3.7852602 0.82360659 5.75 2.4375 C7 4 7 4 7 6 C7.61875 6.2475 8.2375 6.495 8.875 6.75 C11.35068687 8.20628639 11.95125002 9.37812506 13 12 C11.02 10.68 9.04 9.36 7 8 C6.01 8.66 5.02 9.32 4 10 C3.34 9.34 2.68 8.68 2 8 C2.66 6.68 3.32 5.36 4 4 C1.18490007 1.7226499 1.18490007 1.7226499 -2 2 C-1.34 1.34 -0.68 0.68 0 0 Z " fill="#CCB4AD" transform="translate(85,25)"/>
<path d="M0 0 C6.460199 -0.36567164 6.460199 -0.36567164 8.9375 1.3125 C10 3 10 3 10 6 C6.28400809 6.20086443 5.22791555 6.1519437 2 4 C2 3.01 2 2.02 2 1 C1.34 0.67 0.68 0.34 0 0 Z " fill="#356650" transform="translate(179,67)"/>
<path d="M0 0 C1.65 0 3.3 0 5 0 C6.125 4.75 6.125 4.75 5 7 C3.35 7 1.7 7 0 7 C0 4.69 0 2.38 0 0 Z " fill="#6A8C7C" transform="translate(138,61)"/>
<path d="M0 0 C2.99324263 1.0975223 3.84610901 1.67682892 5.25 4.625 C5.4975 5.40875 5.745 6.1925 6 7 C5.34 7 4.68 7 4 7 C3.7525 7.5775 3.505 8.155 3.25 8.75 C1.83316683 11.3002997 0.12372463 13.01785701 -2 15 C-2.66 14.67 -3.32 14.34 -4 14 C-3.55527344 13.55269531 -3.11054687 13.10539062 -2.65234375 12.64453125 C1.02195092 9.00676503 1.02195092 9.00676503 1.9375 4.1875 C1.33165117 2.77385274 0.68781558 1.37563117 0 0 Z " fill="#D6C4BE" transform="translate(62,25)"/>
<path d="M0 0 C1.65 0 3.3 0 5 0 C5 1.65 5 3.3 5 5 C3.02 5.33 1.04 5.66 -1 6 C-0.67 4.02 -0.34 2.04 0 0 Z " fill="#1C553C" transform="translate(154,78)"/>
<path d="M0 0 C1.65 0 3.3 0 5 0 C4.625 2.4375 4.625 2.4375 4 5 C3.01 5.495 3.01 5.495 2 6 C1.01 5.34 0.02 4.68 -1 4 C-0.67 2.68 -0.34 1.36 0 0 Z " fill="#1B543B" transform="translate(67,79)"/>
<path d="M0 0 C1.98 0 3.96 0 6 0 C4.63016497 3.16115776 4.0109362 3.9927092 1 6 C0.34 5.67 -0.32 5.34 -1 5 C-0.67 3.35 -0.34 1.7 0 0 Z " fill="#497561" transform="translate(170,67)"/>
<path d="M0 0 C1.32 0 2.64 0 4 0 C5.484375 1.53125 5.484375 1.53125 6.75 3.5 C7.39195313 4.47453125 7.39195313 4.47453125 8.046875 5.46875 C8.36140625 5.9740625 8.6759375 6.479375 9 7 C4.20719998 6.19095897 2.86479887 3.74015409 0 0 Z " fill="#DFD1CD" transform="translate(78,41)"/>
<path d="M0 0 C1.65 0 3.3 0 5 0 C5 1.32 5 2.64 5 4 C3.35 4 1.7 4 0 4 C0 2.68 0 1.36 0 0 Z " fill="#134C32" transform="translate(19,62)"/>
<path d="M0 0 C0.99 0.66 1.98 1.32 3 2 C3 2.99 3 3.98 3 5 C1.68 5 0.36 5 -1 5 C-1.33 3.68 -1.66 2.36 -2 1 C-1.34 0.67 -0.68 0.34 0 0 Z " fill="#1F583F" transform="translate(156,68)"/>
<path d="M0 0 C0.66 0.33 1.32 0.66 2 1 C1.2884375 1.6496875 1.2884375 1.6496875 0.5625 2.3125 C-1.23686957 4.02309613 -1.23686957 4.02309613 -2 7 C-2.99 7 -3.98 7 -5 7 C-5 6.01 -5 5.02 -5 4 C-2.5 1.8125 -2.5 1.8125 0 0 Z " fill="#F6F2F1" transform="translate(77,31)"/>
</svg>
