<?xml version="1.0" encoding="UTF-8"?>
<svg version="1.1" xmlns="http://www.w3.org/2000/svg" width="367" height="137">
<path d="M0 0 C121.11 0 242.22 0 367 0 C367 45.21 367 90.42 367 137 C245.89 137 124.78 137 0 137 C0 91.79 0 46.58 0 0 Z " fill="#FCFBFB" transform="translate(0,0)"/>
<path d="M0 0 C1.00353516 0.31602173 1.00353516 0.31602173 2.02734375 0.63842773 C7.75080771 2.44129291 13.47326133 4.24734383 19.1953125 6.0546875 C20.060354 6.32788818 20.92539551 6.60108887 21.81665039 6.88256836 C23.91944238 7.54668442 26.02222547 8.21082867 28.125 8.875 C28.22678049 15.84915644 28.29662496 22.82311989 28.34472656 29.79785156 C28.36478826 32.16836709 28.39204426 34.53883345 28.42675781 36.90917969 C28.47551418 40.32499351 28.49802399 43.74015055 28.515625 47.15625 C28.53627014 48.20864868 28.55691528 49.26104736 28.57818604 50.34533691 C28.58206077 63.17588815 22.10196341 69.8827026 13.34765625 78.65625 C9.82102999 81.88674734 9.82102999 81.88674734 7.2734375 81.84375 C4.06165536 80.39552824 2.22314224 77.87285299 0.0625 75.1875 C-0.64507446 74.33031372 -0.64507446 74.33031372 -1.36694336 73.45581055 C-5.44013477 68.49242918 -9.41258999 63.4450672 -13.34594727 58.37036133 C-15.10982167 56.0959693 -16.83733962 53.91266038 -18.875 51.875 C-19.0625 49.3125 -19.0625 49.3125 -18.875 46.875 C-17.875 45.875 -17.875 45.875 -15.83374023 45.76147461 C-14.52191772 45.76932983 -14.52191772 45.76932983 -13.18359375 45.77734375 C-12.23935547 45.78056641 -11.29511719 45.78378906 -10.32226562 45.78710938 C-9.32904297 45.79548828 -8.33582031 45.80386719 -7.3125 45.8125 C-6.31541016 45.81701172 -5.31832031 45.82152344 -4.29101562 45.82617188 C-1.81895151 45.83799993 0.65299518 45.85448151 3.125 45.875 C3.15514038 40.20751762 3.15514038 40.20751762 0.90429688 35.16259766 C-0.69692431 33.68637699 -2.33871225 32.43242921 -4.125 31.1875 C-4.69863281 30.73439453 -5.27226563 30.28128906 -5.86328125 29.81445312 C-7.75784981 28.34598998 -7.75784981 28.34598998 -10.875 26.875 C-13.34542085 27.56084701 -13.34542085 27.56084701 -15.875 28.875 C-16.74495605 29.25591797 -17.61491211 29.63683594 -18.51123047 30.02929688 C-22.39358779 32.36002066 -25.28421766 34.53744011 -26.43908691 39.10693359 C-27.32552168 45.83570599 -27.12379491 52.60469903 -27 59.375 C-26.99805659 61.45833405 -27.00061509 63.54167747 -27.0078125 65.625 C-27.01561209 70.70992148 -26.96193564 75.79085155 -26.875 80.875 C-31.62391567 81.09183417 -33.75302313 80.74110636 -37.3659668 77.47070312 C-37.86394775 76.98537109 -38.36192871 76.50003906 -38.875 76 C-39.39682861 75.50693359 -39.91865723 75.01386719 -40.45629883 74.50585938 C-46.68926138 68.40820556 -51.9271573 61.23138863 -52.06787109 52.26757812 C-52.08393402 51.33651245 -52.09999695 50.40544678 -52.11654663 49.44616699 C-52.16100355 45.20842279 -52.2020214 40.97083266 -52.22509766 36.73291016 C-52.2417 34.49419796 -52.26904564 32.25553967 -52.30712891 30.01708984 C-52.36170485 26.79236315 -52.38373778 23.56887533 -52.3984375 20.34375 C-52.42110687 19.34057739 -52.44377625 18.33740479 -52.46713257 17.30383301 C-52.45927132 14.73567642 -52.39598331 12.38941019 -51.875 9.875 C-49.76318359 7.86206055 -49.76318359 7.86206055 -46.875 6.875 C-45.82602539 6.48997314 -44.77705078 6.10494629 -43.69628906 5.70825195 C-37.20534659 3.709359 -37.20534659 3.709359 -34.17480469 2.8034668 C-32.14061567 2.19219251 -30.11347703 1.56066348 -28.0859375 0.92773438 C-17.82613675 -2.20892561 -10.21155648 -3.25239875 0 0 Z " fill="#ED1A22" transform="translate(76.875,29.125)"/>
<path d="M0 0 C1.69441775 0.51252805 3.39125829 1.01708318 5.08984375 1.515625 C17.28484632 5.09494877 17.28484632 5.09494877 23 7 C23.09933715 12.83491118 23.17168936 18.66932337 23.21972656 24.50488281 C23.23976497 26.48739199 23.26700353 28.46984263 23.30175781 30.45214844 C23.35061954 33.31199641 23.37304673 36.17105881 23.390625 39.03125 C23.41127014 39.90865845 23.43191528 40.78606689 23.45318604 41.69006348 C23.45591501 49.27989983 21.0363073 55.11585471 16.0625 60.875 C15.59972656 61.42929688 15.13695312 61.98359375 14.66015625 62.5546875 C12.61355716 64.33643259 10.52155433 65.04275992 8 66 C5.68035646 63.2350777 3.37055475 60.46210031 1.0625 57.6875 C0.40314453 56.90181641 -0.25621094 56.11613281 -0.93554688 55.30664062 C-1.56396484 54.54931641 -2.19238281 53.79199219 -2.83984375 53.01171875 C-3.42113037 52.31522217 -4.00241699 51.61872559 -4.60131836 50.90112305 C-6 49 -6 49 -7 46 C-5.92878906 45.93941406 -4.85757813 45.87882812 -3.75390625 45.81640625 C-2.35675609 45.73201463 -0.95962143 45.64736594 0.4375 45.5625 C1.14455078 45.52318359 1.85160156 45.48386719 2.58007812 45.44335938 C6.08690419 45.52375562 6.08690419 45.52375562 9 44 C10.24002857 37.98552989 11.06877183 31.90804967 9 26 C4.67347524 20.2712913 -2.30009177 14.67392137 -9 12 C-16.82014258 12.78922351 -24.2308584 17.0952424 -29.36474609 22.94042969 C-35.44962846 34.32528275 -32.67809655 51.49567639 -32 64 C-33.07465189 63.18239741 -34.1339583 62.34463044 -35.1875 61.5 C-35.77917969 61.0359375 -36.37085938 60.571875 -36.98046875 60.09375 C-42.15706991 54.72690624 -44.56978064 50.05058156 -44.56648254 42.53759766 C-44.54067612 41.63831543 -44.51486969 40.7390332 -44.48828125 39.8125 C-44.48120651 38.86938965 -44.47413177 37.9262793 -44.46684265 36.95458984 C-44.4390545 33.96888872 -44.37634651 30.98512558 -44.3125 28 C-44.28739694 25.96487101 -44.26458731 23.92971235 -44.24414062 21.89453125 C-44.18927904 16.92895103 -44.10311612 11.96480304 -44 7 C-42.17927979 6.39490601 -42.17927979 6.39490601 -40.32177734 5.77758789 C-38.70148892 5.23846948 -37.08120945 4.69932416 -35.4609375 4.16015625 C-34.26585571 3.76310486 -34.26585571 3.76310486 -33.04663086 3.35803223 C-29.33410145 2.1221033 -25.62707365 0.87564096 -21.93505859 -0.42041016 C-13.48059067 -3.33750714 -8.32759749 -2.86581008 0 0 Z " fill="#FEF9F9" transform="translate(76,36)"/>
<path d="M0 0 C5.13722479 1.81313816 7.59980377 4.10729231 10 9 C10.70349 13.92443002 10.55253527 16.70425012 7.8125 20.875 C4.68690733 24.72931232 1.94884002 25.75121191 -2.9375 26.375 C-6.95422287 25.88315638 -8.91865639 24.6020235 -12 22 C-14.910372 17.634442 -15.6506249 14.20499921 -15 9 C-11.24199701 2.02085158 -8.06828399 -0.83465007 0 0 Z " fill="#0A0A0A" transform="translate(163,42)"/>
<path d="M0 0 C4.50720712 0.06438867 7.58079206 0.519482 11.3125 3.25 C14.27386463 7.59333479 14.86940438 11.05222575 14.3125 16.25 C12.58761943 20.87994259 10.69301389 23.87722164 6.3125 26.25 C2.61687658 26.6248418 -0.99162576 26.62826901 -4.6875 26.25 C-6.40317792 24.53432208 -5.81765825 22.27627265 -5.8203125 19.9375 C-5.82160156 18.86242187 -5.82289063 17.78734375 -5.82421875 16.6796875 C-5.81841797 14.98199219 -5.81841797 14.98199219 -5.8125 13.25 C-5.81636719 12.11820313 -5.82023437 10.98640625 -5.82421875 9.8203125 C-5.82292969 8.74523437 -5.82164062 7.67015625 -5.8203125 6.5625 C-5.81918457 5.56863281 -5.81805664 4.57476562 -5.81689453 3.55078125 C-5.58627161 -0.54995533 -3.65118079 0.06549203 0 0 Z " fill="#0E0E0E" transform="translate(327.6875,41.75)"/>
<path d="M0 0 C4.23160079 0.03632275 6.90742162 0.44654716 10.25 3.25 C11.78214888 6.31429776 11.47938548 8.8665642 11.25 12.25 C9.75 15.1875 9.75 15.1875 8.25 17.25 C8.765625 17.9925 9.28125 18.735 9.8125 19.5 C11.25 22.25 11.25 22.25 10.9375 24.5625 C10.710625 25.119375 10.48375 25.67625 10.25 26.25 C6.42475764 24.799046 5.05909034 22.86818068 3.25 19.25 C3.25 18.59 3.25 17.93 3.25 17.25 C1.93 17.25 0.61 17.25 -0.75 17.25 C-0.75 19.89 -0.75 22.53 -0.75 25.25 C-2.6875 25.8125 -2.6875 25.8125 -4.75 26.25 C-6.46567792 24.53432208 -5.88015825 22.27627265 -5.8828125 19.9375 C-5.88410156 18.86242187 -5.88539062 17.78734375 -5.88671875 16.6796875 C-5.88091797 14.98199219 -5.88091797 14.98199219 -5.875 13.25 C-5.87886719 12.11820313 -5.88273437 10.98640625 -5.88671875 9.8203125 C-5.88542969 8.74523437 -5.88414063 7.67015625 -5.8828125 6.5625 C-5.88168457 5.56863281 -5.88055664 4.57476562 -5.87939453 3.55078125 C-5.64746724 -0.57314847 -3.66644699 0.06508486 0 0 Z " fill="#131313" transform="translate(131.75,41.75)"/>
<path d="M0 0 C0.99 0.33 1.98 0.66 3 1 C3 4.3 3 7.6 3 11 C6.3 11 9.6 11 13 11 C13 7.7 13 4.4 13 1 C14.32 0.67 15.64 0.34 17 0 C17 8.25 17 16.5 17 25 C15.68 25 14.36 25 13 25 C13 21.7 13 18.4 13 15 C9.7 15 6.4 15 3 15 C3 18.3 3 21.6 3 25 C1.68 25 0.36 25 -1 25 C-1.02886984 21.02084841 -1.04675406 17.04172347 -1.0625 13.0625 C-1.07087891 11.92619141 -1.07925781 10.78988281 -1.08789062 9.61914062 C-1.09111328 8.53955078 -1.09433594 7.45996094 -1.09765625 6.34765625 C-1.10289307 5.34742432 -1.10812988 4.34719238 -1.11352539 3.31665039 C-1 1 -1 1 0 0 Z " fill="#030303" transform="translate(249,42)"/>
<path d="M0 0 C1.39456452 0.00667256 2.78911118 0.01863093 4.18359375 0.03515625 C4.89451172 0.03966797 5.60542969 0.04417969 6.33789062 0.04882812 C8.09899388 0.06064761 9.86005411 0.07858362 11.62109375 0.09765625 C11.62109375 1.41765625 11.62109375 2.73765625 11.62109375 4.09765625 C7.66109375 4.09765625 3.70109375 4.09765625 -0.37890625 4.09765625 C-0.37890625 6.40765625 -0.37890625 8.71765625 -0.37890625 11.09765625 C2.92109375 11.09765625 6.22109375 11.09765625 9.62109375 11.09765625 C9.62109375 12.41765625 9.62109375 13.73765625 9.62109375 15.09765625 C6.32109375 15.09765625 3.02109375 15.09765625 -0.37890625 15.09765625 C-0.37890625 17.40765625 -0.37890625 19.71765625 -0.37890625 22.09765625 C3.58109375 22.09765625 7.54109375 22.09765625 11.62109375 22.09765625 C11.62109375 23.41765625 11.62109375 24.73765625 11.62109375 26.09765625 C9.14185574 26.1245072 6.66290535 26.14442172 4.18359375 26.16015625 C3.47654297 26.16853516 2.76949219 26.17691406 2.04101562 26.18554688 C0.23415816 26.19419213 -1.57278228 26.14985636 -3.37890625 26.09765625 C-5.09458417 24.38197833 -4.5090645 22.1239289 -4.51171875 19.78515625 C-4.51300781 18.71007812 -4.51429688 17.635 -4.515625 16.52734375 C-4.50982422 14.82964844 -4.50982422 14.82964844 -4.50390625 13.09765625 C-4.50777344 11.96585938 -4.51164062 10.8340625 -4.515625 9.66796875 C-4.51433594 8.59289062 -4.51304687 7.5178125 -4.51171875 6.41015625 C-4.51059082 5.41628906 -4.50946289 4.42242187 -4.50830078 3.3984375 C-4.30059753 -0.29476141 -3.82536231 0.1105596 0 0 Z " fill="#090909" transform="translate(285.37890625,41.90234375)"/>
<path d="M0 0 C0.99 0.33 1.98 0.66 3 1 C3.33 3.64 3.66 6.28 4 9 C6.97 6.03 9.94 3.06 13 0 C13.99 0.33 14.98 0.66 16 1 C15.43040847 4.62613199 14.07625466 6.25517741 11.4375 8.75 C10.79683594 9.36359375 10.15617188 9.9771875 9.49609375 10.609375 C9.00238281 11.06828125 8.50867188 11.5271875 8 12 C9.65518459 15.74636902 11.79736961 17.80194852 14.85546875 20.4375 C16 22 16 22 15.67578125 24.1875 C15.34126953 25.0846875 15.34126953 25.0846875 15 26 C11.78475695 24.59155282 9.67816132 22.89655214 7.25 20.375 C6.63640625 19.74335937 6.0228125 19.11171875 5.390625 18.4609375 C4.93171875 17.97882812 4.4728125 17.49671875 4 17 C3.67 19.64 3.34 22.28 3 25 C1.68 25 0.36 25 -1 25 C-1.02886984 21.02084841 -1.04675406 17.04172347 -1.0625 13.0625 C-1.07087891 11.92619141 -1.07925781 10.78988281 -1.08789062 9.61914062 C-1.09111328 8.53955078 -1.09433594 7.45996094 -1.09765625 6.34765625 C-1.10289307 5.34742432 -1.10812988 4.34719238 -1.11352539 3.31665039 C-1 1 -1 1 0 0 Z " fill="#050505" transform="translate(205,42)"/>
<path d="M0 0 C2.89686146 3.11412607 4 4.84571709 4 9.125 C2.83482862 12.47486771 1.86303006 13.91076185 -1 16 C-3.9375 17 -3.9375 17 -7 17 C-9.74716387 15.22960551 -11.53145922 13.93708156 -13 11 C-13.43023798 7.12785818 -13.31669086 5.47503629 -11.125 2.1875 C-7.4110692 -1.63566406 -5.10503454 -1.32026755 0 0 Z " fill="#F3F3F3" transform="translate(165,47)"/>
<path d="M0 0 C0.99 0.66 1.98 1.32 3 2 C3 2.99 3 3.98 3 5 C0.36 5 -2.28 5 -5 5 C-4.96044102 6.92309422 -4.96044102 6.92309422 -4 9 C-2.03533587 10.06775224 -0.03144641 11.06553465 2 12 C3.9375 13.25 3.9375 13.25 5 15 C5 19.20840055 4.6488244 21.27702425 1.8125 24.4375 C-1.56275179 26.31263988 -3.2007634 26.71235686 -7 26 C-9.875 23.5 -9.875 23.5 -12 21 C-11.505 19.515 -11.505 19.515 -11 18 C-9.68 18.33 -8.36 18.66 -7 19 C-7 19.66 -7 20.32 -7 21 C-5.02 20.67 -3.04 20.34 -1 20 C-1 18.68 -1 17.36 -1 16 C-2.71183486 14.45918397 -2.71183486 14.45918397 -4.9375 13.3125 C-5.66839844 12.89613281 -6.39929688 12.47976562 -7.15234375 12.05078125 C-7.76207031 11.70402344 -8.37179688 11.35726562 -9 11 C-10 10 -10 10 -10.3125 7.1875 C-10 4 -10 4 -8.375 1.625 C-5.33636094 -0.45406883 -3.61550392 -0.46155369 0 0 Z " fill="#111111" transform="translate(238,42)"/>
<path d="M0 0 C2.4375 1 2.4375 1 4 2 C4 2.99 4 3.98 4 5 C2.98679688 4.93039063 2.98679688 4.93039063 1.953125 4.859375 C-3.58889387 4.53946558 -3.58889387 4.53946558 -8.5625 6.625 C-10.31932261 9.52757648 -10.85878849 11.6109237 -11 15 C-10.19230572 17.64336311 -9.56688041 18.65019633 -7.21484375 20.1015625 C-4.71351421 21.11621117 -2.93568703 21.2039908 -0.25 21.125 C0.94882813 21.09792969 0.94882813 21.09792969 2.171875 21.0703125 C2.77515625 21.04710938 3.3784375 21.02390625 4 21 C3.625 22.9375 3.625 22.9375 3 25 C-0.73139291 26.86569645 -5.04330839 25.91595853 -9 25 C-12.2426714 22.5004408 -14.72801839 19.93157954 -16 16 C-16.46931049 11.7762056 -16.28387834 9.54672865 -14.3125 5.75 C-9.99668574 0.61768033 -6.70746907 -0.60976992 0 0 Z " fill="#0D0D0D" transform="translate(194,42)"/>
<path d="M0 0 C7 0 7 0 9.4375 1.375 C11.86489633 5.45302584 11.88178639 9.38403996 11 14 C8.875 16.625 8.875 16.625 6 18 C4.02 18 2.04 18 0 18 C0 12.06 0 6.12 0 0 Z " fill="#ECECEC" transform="translate(326,46)"/>
<path d="M0 0 C0.99 0.33 1.98 0.66 3 1 C3 7.93 3 14.86 3 22 C5.97 22 8.94 22 12 22 C12 23.32 12 24.64 12 26 C10.02090602 26.02686553 8.04171029 26.04633375 6.0625 26.0625 C4.96035156 26.07410156 3.85820312 26.08570312 2.72265625 26.09765625 C0 26 0 26 -1 25 C-1.09946453 23.23140807 -1.13080217 21.45888549 -1.1328125 19.6875 C-1.13410156 18.61242187 -1.13539063 17.53734375 -1.13671875 16.4296875 C-1.13091797 14.73199219 -1.13091797 14.73199219 -1.125 13 C-1.12886719 11.86820313 -1.13273437 10.73640625 -1.13671875 9.5703125 C-1.13542969 8.49523437 -1.13414062 7.42015625 -1.1328125 6.3125 C-1.13168457 5.31863281 -1.13055664 4.32476562 -1.12939453 3.30078125 C-1 1 -1 1 0 0 Z " fill="#000000" transform="translate(304,42)"/>
<path d="M0 0 C2.9375 0.875 2.9375 0.875 4.9375 3.875 C4.75 6.9375 4.75 6.9375 3.9375 9.875 C0.9375 11.875 0.9375 11.875 -2.125 11.6875 C-5.0625 10.875 -5.0625 10.875 -7.0625 7.875 C-6.8550099 5.10846538 -6.35971306 3.34428377 -4.875 1 C-3.0625 -0.125 -3.0625 -0.125 0 0 Z " fill="#9D9D9D" transform="translate(337.0625,26.125)"/>
<path d="M0 0 C0.99 0.33 1.98 0.66 3 1 C3 8.92 3 16.84 3 25 C1.68 25 0.36 25 -1 25 C-1.02886984 21.02084841 -1.04675406 17.04172347 -1.0625 13.0625 C-1.07087891 11.92619141 -1.07925781 10.78988281 -1.08789062 9.61914062 C-1.09111328 8.53955078 -1.09433594 7.45996094 -1.09765625 6.34765625 C-1.10289307 5.34742432 -1.10812988 4.34719238 -1.11352539 3.31665039 C-1 1 -1 1 0 0 Z " fill="#000000" transform="translate(273,42)"/>
<path d="M0 0 C2.97 0 5.94 0 9 0 C9 2.31 9 4.62 9 7 C9.99 7.33 10.98 7.66 12 8 C6.06 8.495 6.06 8.495 0 9 C0 6.03 0 3.06 0 0 Z " fill="#909090" transform="translate(231,78)"/>
<path d="M0 0 C2.31 0.33 4.62 0.66 7 1 C7.625 3.3125 7.625 3.3125 8 6 C7.01 7.485 7.01 7.485 6 9 C2.875 9.1875 2.875 9.1875 0 9 C0 6.03 0 3.06 0 0 Z " fill="#F1F1F1" transform="translate(131,46)"/>
<path d="M0 0 C2.5625 0.1875 2.5625 0.1875 4.5625 2.1875 C4.00694444 6.74305556 4.00694444 6.74305556 2.5625 8.1875 C0.125 8.375 0.125 8.375 -2.4375 8.1875 C-3.0975 7.5275 -3.7575 6.8675 -4.4375 6.1875 C-3.71780303 0.28598485 -3.71780303 0.28598485 0 0 Z " fill="#3E3E3E" transform="translate(248.4375,77.8125)"/>
<path d="M0 0 C2.625 0.375 2.625 0.375 5 1 C5.625 3.375 5.625 3.375 6 6 C4 8 4 8 1.4375 8.1875 C-1 8 -1 8 -2 7 C-2.1875 4.5625 -2.1875 4.5625 -2 2 C-1.34 1.34 -0.68 0.68 0 0 Z " fill="#8E8E8E" transform="translate(165,78)"/>
<path d="M0 0 C1.66611905 -0.042721 3.33382885 -0.04063832 5 0 C6 1 6 1 6.125 4 C6 7 6 7 5 8 C3.33382885 8.04063832 1.66611905 8.042721 0 8 C0 5.36 0 2.72 0 0 Z " fill="#161616" transform="translate(333,78)"/>
<path d="M0 0 C1.66611905 -0.042721 3.33382885 -0.04063832 5 0 C6 1 6 1 6.125 4 C6 7 6 7 5 8 C3.33382885 8.04063832 1.66611905 8.042721 0 8 C0 5.36 0 2.72 0 0 Z " fill="#131313" transform="translate(206,78)"/>
<path d="M0 0 C1.65 0 3.3 0 5 0 C7.125 4.625 7.125 4.625 6 8 C4 8 4 8 2.375 6.5 C1.92125 6.005 1.4675 5.51 1 5 C0.67 5.99 0.34 6.98 0 8 C0 5.36 0 2.72 0 0 Z " fill="#6D6D6D" transform="translate(126,78)"/>
<path d="M0 0 C1.32 0 2.64 0 4 0 C4.33 2.64 4.66 5.28 5 8 C3.02 8 1.04 8 -1 8 C-0.67 5.36 -0.34 2.72 0 0 Z " fill="#4C4C4C" transform="translate(194,78)"/>
<path d="M0 0 C1.98 0 3.96 0 6 0 C4.68 0.33 3.36 0.66 2 1 C2 1.66 2 2.32 2 3 C2.99 3 3.98 3 5 3 C5 3.66 5 4.32 5 5 C4.01 5 3.02 5 2 5 C2 5.66 2 6.32 2 7 C3.32 7 4.64 7 6 7 C6 7.66 6 8.32 6 9 C4.33388095 9.042721 2.66617115 9.04063832 1 9 C0 8 0 8 -0.09765625 6.15234375 C-0.06510417 4.1015625 -0.03255208 2.05078125 0 0 Z " fill="#606060" transform="translate(214,78)"/>
<path d="M0 0 C1.98 0 3.96 0 6 0 C4.68 0.33 3.36 0.66 2 1 C2 1.66 2 2.32 2 3 C2.99 3 3.98 3 5 3 C5 3.66 5 4.32 5 5 C4.01 5 3.02 5 2 5 C2 5.66 2 6.32 2 7 C3.32 7 4.64 7 6 7 C6 7.66 6 8.32 6 9 C4.33388095 9.042721 2.66617115 9.04063832 1 9 C0 8 0 8 -0.09765625 6.15234375 C-0.06510417 4.1015625 -0.03255208 2.05078125 0 0 Z " fill="#616161" transform="translate(262,78)"/>
<path d="M0 0 C1.65 0 3.3 0 5 0 C5.33 1.32 5.66 2.64 6 4 C4.68 4.33 3.36 4.66 2 5 C2 5.99 2 6.98 2 8 C1.34 8 0.68 8 0 8 C0 5.36 0 2.72 0 0 Z " fill="#6D6D6D" transform="translate(289,78)"/>
<path d="M0 0 C2.475 0.495 2.475 0.495 5 1 C5 3.31 5 5.62 5 8 C4.34 7.67 3.68 7.34 3 7 C3 6.34 3 5.68 3 5 C2.34 5 1.68 5 1 5 C0.67 5.99 0.34 6.98 0 8 C0 5.36 0 2.72 0 0 Z " fill="#515151" transform="translate(270,78)"/>
<path d="M0 0 C1.32 0 2.64 0 4 0 C5.125 3.75 5.125 3.75 4 6 C2.35 5.67 0.7 5.34 -1 5 C-0.67 3.35 -0.34 1.7 0 0 Z " fill="#7D7D7D" transform="translate(150,96)"/>
<path d="M0 0 C0.66 0 1.32 0 2 0 C4.125 4.625 4.125 4.625 3 8 C1.02 8 -0.96 8 -3 8 C-2.01 5.36 -1.02 2.72 0 0 Z " fill="#4B4B4B" transform="translate(144,78)"/>
<path d="M0 0 C2.475 0.495 2.475 0.495 5 1 C4.67 2.65 4.34 4.3 4 6 C2.68 6 1.36 6 0 6 C0 4.02 0 2.04 0 0 Z " fill="#6F6F6F" transform="translate(219,96)"/>
<path d="M0 0 C2.475 0.495 2.475 0.495 5 1 C4.67 2.65 4.34 4.3 4 6 C2.68 6 1.36 6 0 6 C0 4.02 0 2.04 0 0 Z " fill="#6F6F6F" transform="translate(166,96)"/>
<path d="M0 0 C2.475 0.495 2.475 0.495 5 1 C5 2.32 5 3.64 5 5 C3.68 5 2.36 5 1 5 C0.67 5.99 0.34 6.98 0 8 C0 5.36 0 2.72 0 0 Z " fill="#585858" transform="translate(255,78)"/>
<path d="M0 0 C1.98 0.495 1.98 0.495 4 1 C3.67 2.65 3.34 4.3 3 6 C1.68 5.67 0.36 5.34 -1 5 C-0.67 3.35 -0.34 1.7 0 0 Z " fill="#FCFCFC" transform="translate(247,79)"/>
<path d="M0 0 C1.32 0.33 2.64 0.66 4 1 C3.67 2.65 3.34 4.3 3 6 C2.01 6 1.02 6 0 6 C0 4.02 0 2.04 0 0 Z " fill="#F4F4F4" transform="translate(334,79)"/>
<path d="M0 0 C1.32 0.33 2.64 0.66 4 1 C3.67 2.65 3.34 4.3 3 6 C2.01 6 1.02 6 0 6 C0 4.02 0 2.04 0 0 Z " fill="#F6F6F6" transform="translate(207,79)"/>
<path d="M0 0 C1.32 0 2.64 0 4 0 C4 1.98 4 3.96 4 6 C3.67 5.34 3.34 4.68 3 4 C2.34 4 1.68 4 1 4 C0.67 4.66 0.34 5.32 0 6 C0 4.02 0 2.04 0 0 Z " fill="#555555" transform="translate(234,96)"/>
<path d="M0 0 C0.99 0.99 1.98 1.98 3 3 C2.67 3.99 2.34 4.98 2 6 C0.68 5.67 -0.64 5.34 -2 5 C-1.34 3.35 -0.68 1.7 0 0 Z " fill="#484848" transform="translate(181,96)"/>
</svg>
