<?xml version="1.0" encoding="UTF-8"?>
<svg version="1.1" xmlns="http://www.w3.org/2000/svg" width="200" height="100">
<path d="M0 0 C66 0 132 0 200 0 C200 33 200 66 200 100 C134 100 68 100 0 100 C0 67 0 34 0 0 Z " fill="#1B2D3F" transform="translate(0,0)"/>
<path d="M0 0 C0.62427746 12.65895954 0.62427746 12.65895954 -1.6875 17.625 C-6.27962085 22.34123223 -6.27962085 22.34123223 -9 24 C-13.38623405 24 -15.89234577 21.94409348 -19 19 C-22.11174851 14.84852646 -22.331256 11.81479742 -22.1875 6.6875 C-22.14689453 4.80611328 -22.14689453 4.80611328 -22.10546875 2.88671875 C-22.07066406 1.93410156 -22.03585938 0.98148438 -22 0 C-13.69656911 -3.33266954 -8.481853 -2.88264375 0 0 Z " fill="#717175" transform="translate(111,17)"/>
<path d="M0 0 C10.92376682 -0.60020697 10.92376682 -0.60020697 15.25 1.8125 C17.83020203 6.5121537 17.87398375 10.75609751 17 16 C15.19881522 19.00197464 14.09667268 20.45166366 11 22 C7.37 22 3.74 22 0 22 C0 14.74 0 7.48 0 0 Z " fill="#EAECED" transform="translate(93,47)"/>
<path d="M0 0 C12.59717314 -0.27385159 12.59717314 -0.27385159 16 2 C17.50662097 5.01324195 17.17770373 7.68286377 17 11 C16.34 11.66 15.68 12.32 15 13 C15.38766305 16.58588324 16.58566252 19.69987921 18 23 C16.35 23 14.7 23 13 23 C12.4225 21.865625 11.845 20.73125 11.25 19.5625 C9.64507365 16.62689703 9.64507365 16.62689703 6.75 15.0625 C6.1725 15.041875 5.595 15.02125 5 15 C5 17.64 5 20.28 5 23 C3.35 23 1.7 23 0 23 C0 15.41 0 7.82 0 0 Z " fill="#EEEFF0" transform="translate(130,46)"/>
<path d="M0 0 C5.28 0 10.56 0 16 0 C16 1.32 16 2.64 16 4 C12.37 4 8.74 4 5 4 C5 5.98 5 7.96 5 10 C7.97 10 10.94 10 14 10 C14 10.99 14 11.98 14 13 C11.03 13 8.06 13 5 13 C5 14.98 5 16.96 5 19 C8.63 19 12.26 19 16 19 C16 20.65 16 22.3 16 24 C10.72 24 5.44 24 0 24 C0 16.08 0 8.16 0 0 Z " fill="#E2E4E6" transform="translate(58,46)"/>
<path d="M0 0 C3.13019831 0.62603966 4.85456449 2.07786839 6.97265625 4.39453125 C6.97265625 5.38453125 6.97265625 6.37453125 6.97265625 7.39453125 C5.32265625 7.39453125 3.67265625 7.39453125 1.97265625 7.39453125 C1.64265625 6.73453125 1.31265625 6.07453125 0.97265625 5.39453125 C-0.67734375 5.39453125 -2.32734375 5.39453125 -4.02734375 5.39453125 C-4.02734375 6.38453125 -4.02734375 7.37453125 -4.02734375 8.39453125 C-3.31707031 8.74386719 -2.60679688 9.09320313 -1.875 9.453125 C-0.95589844 9.90816406 -0.03679688 10.36320312 0.91015625 10.83203125 C1.82667969 11.28449219 2.74320313 11.73695312 3.6875 12.203125 C5.97265625 13.39453125 5.97265625 13.39453125 6.97265625 14.39453125 C7.34765625 17.20703125 7.34765625 17.20703125 6.97265625 20.39453125 C4.28549275 23.48884074 2.58108197 24.29497068 -1.46484375 24.95703125 C-6.18725862 24.2113868 -7.75183311 22.82982289 -11.02734375 19.39453125 C-11.02734375 18.40453125 -11.02734375 17.41453125 -11.02734375 16.39453125 C-8.65234375 16.20703125 -8.65234375 16.20703125 -6.02734375 16.39453125 C-5.36734375 17.38453125 -4.70734375 18.37453125 -4.02734375 19.39453125 C-1.44354198 19.64484102 -1.44354198 19.64484102 0.97265625 19.39453125 C1.0155538 17.46343544 1.0155538 17.46343544 -0.02734375 15.39453125 C-2.33103111 14.32800933 -4.66752562 13.3303212 -7.02734375 12.39453125 C-9.49787881 10.64124831 -9.92792345 9.94844433 -10.46484375 6.95703125 C-10.02734375 4.39453125 -10.02734375 4.39453125 -8.52734375 2.08203125 C-5.63985966 0.13297949 -3.46847589 -0.17504458 0 0 Z " fill="#EDEEEF" transform="translate(22.02734375,45.60546875)"/>
<path d="M0 0 C1.65 0 3.3 0 5 0 C5 3.3 5 6.6 5 10 C7.64 10 10.28 10 13 10 C13 7.03 13 4.06 13 1 C14.32 1 15.64 1 17 1 C17 8.26 17 15.52 17 23 C15.68 23 14.36 23 13 23 C13 19.7 13 16.4 13 13 C10.36 13 7.72 13 5 13 C5 16.63 5 20.26 5 24 C3.35 24 1.7 24 0 24 C0 16.08 0 8.16 0 0 Z " fill="#F3F4F5" transform="translate(31,46)"/>
<path d="M0 0 C4.95 0 9.9 0 15 0 C15 0.99 15 1.98 15 3 C11.37 3 7.74 3 4 3 C4 4.98 4 6.96 4 9 C6.97 9 9.94 9 13 9 C13 9.99 13 10.98 13 12 C10.03 12 7.06 12 4 12 C4 14.31 4 16.62 4 19 C7.63 19 11.26 19 15 19 C15 19.99 15 20.98 15 22 C10.05 22 5.1 22 0 22 C0 14.74 0 7.48 0 0 Z " fill="#FEFEFE" transform="translate(113,47)"/>
<path d="M0 0 C2.83268842 2.36057369 2.98743809 3.88066188 3.375 7.5625 C3 11 3 11 1.9375 12.9375 C-1.07884711 14.59162584 -3.63666608 14.30575763 -7 14 C-9.41486943 11.58513057 -9.2961925 10.87292211 -9.3125 7.5625 C-9.32925781 6.78003906 -9.34601563 5.99757813 -9.36328125 5.19140625 C-8.48401136 -0.11257666 -4.80711879 -0.70103816 0 0 Z " fill="#E8E9EB" transform="translate(186,55)"/>
<path d="M0 0 C4.455 0.99 4.455 0.99 9 2 C9.10853983 4.22808159 9.18583307 6.45769932 9.25 8.6875 C9.29640625 9.92886719 9.3428125 11.17023437 9.390625 12.44921875 C8.93568408 16.58463173 7.92924595 18.11320689 5 21 C2.25 22.3125 2.25 22.3125 0 23 C-0.1875 20.625 -0.1875 20.625 0 18 C0.99 17.34 1.98 16.68 3 16 C2.45276317 12.62537285 1.9451 10.91765 0 8 C0 5 0 5 1 4 C0.67 2.68 0.34 1.36 0 0 Z " fill="#B71730" transform="translate(100,16)"/>
<path d="M0 0 C0.62427746 12.65895954 0.62427746 12.65895954 -1.6875 17.625 C-6.27962085 22.34123223 -6.27962085 22.34123223 -9 24 C-13.38623405 24 -15.89234577 21.94409348 -19 19 C-22.11174851 14.84852646 -22.331256 11.81479742 -22.1875 6.6875 C-22.14689453 4.80611328 -22.14689453 4.80611328 -22.10546875 2.88671875 C-22.07066406 1.93410156 -22.03585938 0.98148438 -22 0 C-13.69656911 -3.33266954 -8.481853 -2.88264375 0 0 Z M-20 1 C-20.94276102 9.52514984 -20.94276102 9.52514984 -18.6171875 17.5234375 C-16.01077162 20.28781798 -14.22499692 21.91250022 -10.375 22.1875 C-6.88245001 20.44122501 -3.78107854 18.56215709 -2 15 C-1.92883618 12.62597499 -1.91590915 10.24999323 -1.9375 7.875 C-1.94652344 6.59367187 -1.95554687 5.31234375 -1.96484375 3.9921875 C-1.97644531 3.00476563 -1.98804687 2.01734375 -2 1 C-9.00944567 -1.42301826 -12.87395339 -1.23562247 -20 1 Z " fill="#CFCFD1" transform="translate(111,17)"/>
<path d="M0 0 C1.65 0 3.3 0 5 0 C5 7.92 5 15.84 5 24 C3.35 24 1.7 24 0 24 C0 16.08 0 8.16 0 0 Z " fill="#E6E8EA" transform="translate(51,46)"/>
<path d="M0 0 C1.32 0 2.64 0 4 0 C4 6.27 4 12.54 4 19 C7.3 19 10.6 19 14 19 C14 19.99 14 20.98 14 22 C9.38 22 4.76 22 0 22 C0 14.74 0 7.48 0 0 Z " fill="#FEFEFE" transform="translate(76,47)"/>
<path d="M0 0 C0 7.26 0 14.52 0 22 C-0.66 21.34 -1.32 20.68 -2 20 C-1.979375 18.9275 -1.95875 17.855 -1.9375 16.75 C-2.61162825 12.88346134 -2.61162825 12.88346134 -5.5078125 11.20703125 C-8.30190822 9.70279302 -11.10633071 8.30143611 -14 7 C-13.67 5.68 -13.34 4.36 -13 3 C-11.35 3 -9.7 3 -8 3 C-7.67 3.99 -7.34 4.98 -7 6 C-5.35 6 -3.7 6 -2 6 C-2.33 4.35 -2.66 2.7 -3 1 C-1 0 -1 0 0 0 Z " fill="#132235" transform="translate(31,47)"/>
<path d="M0 0 C0.99 0 1.98 0 3 0 C5.1875 3 5.1875 3 7 6 C7.33 4.02 7.66 2.04 8 0 C8.99 0 9.98 0 11 0 C11 4.62 11 9.24 11 14 C7 13 7 13 5.25 10.5625 C4 8 4 8 4 6 C3.34 6 2.68 6 2 6 C2 8.64 2 11.28 2 14 C1.34 14 0.68 14 0 14 C0 9.38 0 4.76 0 0 Z " fill="#EAECED" transform="translate(153,55)"/>
<path d="M0 0 C1.65 0 3.3 0 5 0 C7 2 7 2 7.265625 4.3125 C7.26046875 5.199375 7.2553125 6.08625 7.25 7 C7.25515625 7.886875 7.2603125 8.77375 7.265625 9.6875 C7 12 7 12 5 14 C3.35 14 1.7 14 0 14 C0 9.38 0 4.76 0 0 Z " fill="#101E31" transform="translate(98,51)"/>
<path d="M0 0 C0.33 0 0.66 0 1 0 C1 7.59 1 15.18 1 23 C0.34 22.01 -0.32 21.02 -1 20 C-3.42521494 19.41810734 -3.42521494 19.41810734 -6.125 19.3125 C-7.03507812 19.24675781 -7.94515625 19.18101563 -8.8828125 19.11328125 C-9.58148438 19.07589844 -10.28015625 19.03851563 -11 19 C-11 17.35 -11 15.7 -11 14 C-8.03 14 -5.06 14 -2 14 C-2 12.35 -2 10.7 -2 9 C-1.34 9 -0.68 9 0 9 C0 6.03 0 3.06 0 0 Z " fill="#0E1D2F" transform="translate(129,46)"/>
<path d="M0 0 C2.97 0 5.94 0 9 0 C9 0.66 9 1.32 9 2 C7.02 2 5.04 2 3 2 C3 3.32 3 4.64 3 6 C4.65 6 6.3 6 8 6 C8 6.66 8 7.32 8 8 C6.35 8 4.7 8 3 8 C3 9.32 3 10.64 3 12 C4.98 12 6.96 12 9 12 C9 12.66 9 13.32 9 14 C6.03 14 3.06 14 0 14 C0 9.38 0 4.76 0 0 Z " fill="#F5F6F6" transform="translate(166,55)"/>
<path d="M0 0 C0.08119503 2.24940295 0.13927819 4.49964871 0.1875 6.75 C0.23970703 8.62945313 0.23970703 8.62945313 0.29296875 10.546875 C0 14 0 14 -3 18 C-2.67 12.39 -2.34 6.78 -2 1 C-4.5678125 0.7215625 -4.5678125 0.7215625 -7.1875 0.4375 C-8.15042969 0.33308594 -9.11335938 0.22867187 -10.10546875 0.12109375 C-12.99497744 -0.12248668 -12.99497744 -0.12248668 -15.73828125 0.59765625 C-16.85783203 0.79681641 -16.85783203 0.79681641 -18 1 C-18.66 0.34 -19.32 -0.32 -20 -1 C-12.58986433 -3.5708634 -7.39479919 -2.53061852 0 0 Z " fill="#B8B0B4" transform="translate(111,17)"/>
<path d="M0 0 C2.0625 0.4375 2.0625 0.4375 4 1 C3.67 1.99 3.34 2.98 3 4 C3 3.34 3 2.68 3 2 C2.34 2 1.68 2 1 2 C1.30035156 2.53109375 1.60070312 3.0621875 1.91015625 3.609375 C2.48056641 4.66898438 2.48056641 4.66898438 3.0625 5.75 C3.44535156 6.44609375 3.82820313 7.1421875 4.22265625 7.859375 C5.1312406 10.36140628 4.88336837 11.5332355 4 14 C2.02 14 0.04 14 -2 14 C-2 12.68 -2 11.36 -2 10 C-1.34 10 -0.68 10 0 10 C0 10.99 0 11.98 0 13 C0.66 13 1.32 13 2 13 C1.69964844 12.46890625 1.39929688 11.9378125 1.08984375 11.390625 C0.51943359 10.33101562 0.51943359 10.33101562 -0.0625 9.25 C-0.44535156 8.55390625 -0.82820313 7.8578125 -1.22265625 7.140625 C-2.13839484 4.61889261 -1.94180896 3.47561212 -1 1 C-0.67 0.67 -0.34 0.34 0 0 Z " fill="#D1D0D3" transform="translate(99,19)"/>
<path d="M0 0 C3.69230769 0.69230769 3.69230769 0.69230769 5 2 C5.1875 4.9375 5.1875 4.9375 5 8 C4.34 8.66 3.68 9.32 3 10 C0.875 9.625 0.875 9.625 -1 9 C-1.09765625 2.84765625 -1.09765625 2.84765625 -1 1 C-0.67 0.67 -0.34 0.34 0 0 Z " fill="#1E2C3C" transform="translate(181,57)"/>
<path d="M0 0 C3.3 0.33 6.6 0.66 10 1 C8.7508258 4.45925163 7.32472205 7.14693203 5 10 C4.34 9.67 3.68 9.34 3 9 C3.33 7.02 3.66 5.04 4 3 C3.01 3 2.02 3 1 3 C1.33 4.65 1.66 6.3 2 8 C1.01 7.67 0.02 7.34 -1 7 C-0.67 4.69 -0.34 2.38 0 0 Z " fill="#889099" transform="translate(120,77)"/>
<path d="M0 0 C1.99954746 -0.04254356 4.00041636 -0.04080783 6 0 C7 1 7 1 7.125 3.5 C7 6 7 6 6 7 C4.00041636 7.04080783 1.99954746 7.04254356 0 7 C0 4.69 0 2.38 0 0 Z " fill="#182839" transform="translate(135,50)"/>
<path d="M0 0 C0.33 0 0.66 0 1 0 C1.04241723 2.33294775 1.04092937 4.66702567 1 7 C0 8 0 8 -3.5625 8.0625 C-4.696875 8.041875 -5.83125 8.02125 -7 8 C-7 6.68 -7 5.36 -7 4 C-5.35 4 -3.7 4 -2 4 C-2 3.34 -2 2.68 -2 2 C-3.65 2 -5.3 2 -7 2 C-7 1.67 -7 1.34 -7 1 C-5.5459375 1.0309375 -5.5459375 1.0309375 -4.0625 1.0625 C-1.12534105 1.35618499 -1.12534105 1.35618499 0 0 Z " fill="#2D3D4D" transform="translate(176,59)"/>
<path d="M0 0 C0.99 0 1.98 0 3 0 C3.99 1.98 4.98 3.96 6 6 C4.68 6 3.36 6 2 6 C2 8.64 2 11.28 2 14 C1.34 14 0.68 14 0 14 C0 9.38 0 4.76 0 0 Z " fill="#F7F8F8" transform="translate(153,55)"/>
<path d="M0 0 C0 7.26 0 14.52 0 22 C-2.76050338 19.23949662 -2.46674524 16.79944016 -3 13 C-3.66 12.01 -4.32 11.02 -5 10 C-4.01 10.33 -3.02 10.66 -2 11 C-1.91995518 7.4780279 -1.95994298 4.38018531 -3 1 C-1 0 -1 0 0 0 Z " fill="#08182C" transform="translate(31,47)"/>
<path d="M0 0 C0.66 0 1.32 0 2 0 C2 0.66 2 1.32 2 2 C3.65 2 5.3 2 7 2 C7 3.32 7 4.64 7 6 C6.34 6.66 5.68 7.32 5 8 C5 7.34 5 6.68 5 6 C2.83125748 6.50603992 1.00032373 6.99983813 -1 8 C-0.67 5.36 -0.34 2.72 0 0 Z " fill="#88919A" transform="translate(135,76)"/>
<path d="M0 0 C0.33 0 0.66 0 1 0 C1 7.59 1 15.18 1 23 C0.67 23 0.34 23 0 23 C0 20.03 0 17.06 0 14 C-0.66 14 -1.32 14 -2 14 C-2 12.35 -2 10.7 -2 9 C-1.34 9 -0.68 9 0 9 C0 6.03 0 3.06 0 0 Z " fill="#051427" transform="translate(129,46)"/>
<path d="M0 0 C3.63 0 7.26 0 11 0 C10.67 0.99 10.34 1.98 10 3 C7.69 3.33 5.38 3.66 3 4 C3 3.01 3 2.02 3 1 C2.34 1 1.68 1 1 1 C0.67 1.66 0.34 2.32 0 3 C0 2.01 0 1.02 0 0 Z " fill="#FEFEFE" transform="translate(131,47)"/>
<path d="M0 0 C0.33 0.99 0.66 1.98 1 3 C2.98 3 4.96 3 7 3 C7 3.33 7 3.66 7 4 C1.85910079 4.90249856 -2.69726374 4.97986395 -7.9375 4.5625 C-8.96327148 4.48418945 -8.96327148 4.48418945 -10.00976562 4.40429688 C-11.67371169 4.27630102 -13.3369473 4.13912281 -15 4 C-15 3.67 -15 3.34 -15 3 C-10.05 3 -5.1 3 0 3 C0 2.01 0 1.02 0 0 Z " fill="#616D79" transform="translate(128,66)"/>
<path d="M0 0 C0.33 0 0.66 0 1 0 C1.433125 1.6396875 1.433125 1.6396875 1.875 3.3125 C2.81893204 7.04013845 2.81893204 7.04013845 5 10 C0.125 9.125 0.125 9.125 -1 8 C-1.125 4.5 -1.125 4.5 -1 1 C-0.67 0.67 -0.34 0.34 0 0 Z " fill="#F5F6F7" transform="translate(178,59)"/>
<path d="M0 0 C0.66 0 1.32 0 2 0 C2 0.66 2 1.32 2 2 C2.99 2.33 3.98 2.66 5 3 C5 4.65 5 6.3 5 8 C4.34 7.67 3.68 7.34 3 7 C3.33 6.01 3.66 5.02 4 4 C3.01 4 2.02 4 1 4 C0.67 5.32 0.34 6.64 0 8 C-0.98120464 4.94736336 -0.98120464 3.05263664 0 0 Z " fill="#BBC1C6" transform="translate(144,76)"/>
<path d="M0 0 C0.66 0.33 1.32 0.66 2 1 C1.625 3.4375 1.625 3.4375 1 6 C0.01 6.495 0.01 6.495 -1 7 C-1.33 5.68 -1.66 4.36 -2 3 C-2.99 4.32 -3.98 5.64 -5 7 C-5 5.68 -5 4.36 -5 3 C-2.625 1.1875 -2.625 1.1875 0 0 Z " fill="#9CA4AC" transform="translate(72,77)"/>
<path d="M0 0 C1.875 0.25 1.875 0.25 4 1 C5.3125 2.8125 5.3125 2.8125 6 5 C5.625 7.25 5.625 7.25 5 9 C4.01 7.02 3.02 5.04 2 3 C1.67 4.65 1.34 6.3 1 8 C0.67 8 0.34 8 0 8 C0 5.36 0 2.72 0 0 Z " fill="#152436" transform="translate(136,61)"/>
<path d="M0 0 C2 1 2 1 3.125 4.0625 C3.41375 5.031875 3.7025 6.00125 4 7 C3.34 7.66 2.68 8.32 2 9 C0.68 9 -0.64 9 -2 9 C-2 8.34 -2 7.68 -2 7 C-1.01 7 -0.02 7 1 7 C1.33 6.34 1.66 5.68 2 5 C1.01 4.67 0.02 4.34 -1 4 C-0.67 2.68 -0.34 1.36 0 0 Z " fill="#B1B8BD" transform="translate(114,76)"/>
<path d="M0 0 C0 2.31 0 4.62 0 7 C-2.31 6.34 -4.62 5.68 -7 5 C-6.34 4.34 -5.68 3.68 -5 3 C-5.33 2.34 -5.66 1.68 -6 1 C-1.125 0 -1.125 0 0 0 Z " fill="#263748" transform="translate(30,52)"/>
<path d="M0 0 C2.86724686 0.57344937 3.8614515 0.8614515 6 3 C6 3.99 6 4.98 6 6 C4.35 6 2.7 6 1 6 C0.67 4.02 0.34 2.04 0 0 Z " fill="#F3F4F5" transform="translate(23,47)"/>
<path d="M0 0 C2.31 0.33 4.62 0.66 7 1 C6.67 1.66 6.34 2.32 6 3 C5.34 3 4.68 3 4 3 C4 4.65 4 6.3 4 8 C3.34 7.67 2.68 7.34 2 7 C2.33 6.01 2.66 5.02 3 4 C2.01 3.67 1.02 3.34 0 3 C0 2.01 0 1.02 0 0 Z " fill="#B82740" transform="translate(100,16)"/>
<path d="M0 0 C0 0.99 0 1.98 0 3 C-1.65 2.67 -3.3 2.34 -5 2 C-2 0 -2 0 0 0 Z M-9 2 C-7.68 2.33 -6.36 2.66 -5 3 C-5.99 3 -6.98 3 -8 3 C-8 6.63 -8 10.26 -8 14 C-8.33 14 -8.66 14 -9 14 C-9 10.04 -9 6.08 -9 2 Z " fill="#62686C" transform="translate(100,16)"/>
<path d="M0 0 C0.99 0.33 1.98 0.66 3 1 C2.34 1 1.68 1 1 1 C0.67 3.31 0.34 5.62 0 8 C-0.103125 7.360625 -0.20625 6.72125 -0.3125 6.0625 C-0.539375 5.381875 -0.76625 4.70125 -1 4 C-1.99 3.67 -2.98 3.34 -4 3 C-4 2.34 -4 1.68 -4 1 C-2.68 1.33 -1.36 1.66 0 2 C0 1.34 0 0.68 0 0 Z " fill="#0F1B2B" transform="translate(58,76)"/>
<path d="M0 0 C0.66 0.33 1.32 0.66 2 1 C1.34 3.97 0.68 6.94 0 10 C-0.33 10 -0.66 10 -1 10 C-1.59732819 7.23735711 -2 4.83967231 -2 2 C-1.34 1.34 -0.68 0.68 0 0 Z " fill="#DBDEE1" transform="translate(180,55)"/>
</svg>
