<?xml version="1.0" encoding="UTF-8"?>
<svg version="1.1" xmlns="http://www.w3.org/2000/svg" width="138" height="46">
<path d="M0 0 C1.66611905 -0.042721 3.33382885 -0.04063832 5 0 C6 1 6 1 6.0625 3.5625 C6.041875 4.366875 6.02125 5.17125 6 6 C4.35 6.33 2.7 6.66 1 7 C1 10.3 1 13.6 1 17 C-0.32 17 -1.64 17 -3 17 C-3.99 15.515 -3.99 15.515 -5 14 C-5.33 14.99 -5.66 15.98 -6 17 C-7.72722728 17.22384382 -9.45696007 17.42839969 -11.1875 17.625 C-12.63189453 17.79902344 -12.63189453 17.79902344 -14.10546875 17.9765625 C-17.24075323 18.00194942 -19.19486535 17.34359283 -22 16 C-22.495 16.495 -22.495 16.495 -23 17 C-27.43087104 17.28235733 -31.87370944 17.23185471 -36.3125 17.25 C-37.56224609 17.270625 -38.81199219 17.29125 -40.09960938 17.3125 C-41.30037109 17.31765625 -42.50113281 17.3228125 -43.73828125 17.328125 C-45.39404175 17.34214355 -45.39404175 17.34214355 -47.08325195 17.35644531 C-50.29665793 16.9637465 -51.64748662 16.16364108 -54 14 C-54 14.99 -54 15.98 -54 17 C-61.38461538 17.36923077 -61.38461538 17.36923077 -64.5 15.5 C-64.995 15.005 -65.49 14.51 -66 14 C-66 14.99 -66 15.98 -66 17 C-70.62 17 -75.24 17 -80 17 C-80.33 14.36 -80.66 11.72 -81 9 C-81.99 9 -82.98 9 -84 9 C-84 11.64 -84 14.28 -84 17 C-85.32 17 -86.64 17 -88 17 C-88 14.36 -88 11.72 -88 9 C-88.99 9 -89.98 9 -91 9 C-90.67 7.68 -90.34 6.36 -90 5 C-78.66666667 5 -67.33333333 5 -56 5 C-55.32839844 4.96519531 -54.65679687 4.93039063 -53.96484375 4.89453125 C-48.56281978 4.67595225 -48.56281978 4.67595225 -45.9375 6.1875 C-44.61864484 8.73728665 -45.2024884 10.31746098 -46 13 C-45.566875 12.4225 -45.13375 11.845 -44.6875 11.25 C-43.125 9.16666667 -41.5625 7.08333333 -40 5 C-38.125 5.3125 -38.125 5.3125 -36 6 C-35.34 6.99 -34.68 7.98 -34 9 C-33.505 8.34 -33.01 7.68 -32.5 7 C-28.87783785 4.10227028 -26.5697102 4.70517999 -22 5 C-21.34 5 -20.68 5 -20 5 C-8.1 5 -8.1 5 -5 6 C-4.01 6.99 -4.01 6.99 -3 8 C-2.01 5.36 -1.02 2.72 0 0 Z M-70 9 C-70 9.33 -70 9.66 -70 10 C-67.36 10 -64.72 10 -62 10 C-62 9.67 -62 9.34 -62 9 C-64.64 9 -67.28 9 -70 9 Z M-58 9 C-58 9.33 -58 9.66 -58 10 C-55.36 10 -52.72 10 -50 10 C-50 9.67 -50 9.34 -50 9 C-52.64 9 -55.28 9 -58 9 Z M-29 10 C-29 10.99 -29 11.98 -29 13 C-26.69 13 -24.38 13 -22 13 C-22 11.35 -22 9.7 -22 8 C-24.35287614 8 -26.79373224 9.24893012 -29 10 Z M-18 9 C-18 10.32 -18 11.64 -18 13 C-16.35 12.67 -14.7 12.34 -13 12 C-13.33 11.01 -13.66 10.02 -14 9 C-15.32 9 -16.64 9 -18 9 Z " fill="#1A7E41" transform="translate(125,27)"/>
<path d="M0 0 C0.08138426 2.87557703 0.14067851 5.74882262 0.1875 8.625 C0.21263672 9.43324219 0.23777344 10.24148438 0.26367188 11.07421875 C0.32544248 16.13940857 -0.07888395 19.66690325 -3 24 C-5.0859375 25.79296875 -5.0859375 25.79296875 -7.375 27.1875 C-8.16648438 27.6928125 -8.95796875 28.198125 -9.7734375 28.71875 C-12 30 -12 30 -15 31.1875 C-17.666661 33.60416153 -17.47475023 35.15688909 -17.8125 38.6875 C-17.89743679 40.45739906 -17.96691359 42.228373 -18 44 C-22.92253557 43.4393251 -26.48225861 41.21602868 -30.625 38.6875 C-31.29273438 38.29626953 -31.96046875 37.90503906 -32.6484375 37.50195312 C-37.34504086 34.6699013 -40.21462882 32.35611354 -42 27 C-42.08106686 25.44578271 -42.10756898 23.88832973 -42.09765625 22.33203125 C-42.09443359 21.43935547 -42.09121094 20.54667969 -42.08789062 19.62695312 C-42.07951172 18.69818359 -42.07113281 17.76941406 -42.0625 16.8125 C-42.05798828 15.87212891 -42.05347656 14.93175781 -42.04882812 13.96289062 C-42.03704626 11.64186288 -42.02059558 9.32096356 -42 7 C-37.95698825 8.48518799 -34.38853744 10.42877998 -30.6875 12.625 C-29.61886719 13.25664062 -28.55023438 13.88828125 -27.44921875 14.5390625 C-26.23685547 15.26222656 -26.23685547 15.26222656 -25 16 C-24.59394531 15.27296875 -24.59394531 15.27296875 -24.1796875 14.53125 C-20.89079214 9.4108141 -17.13183918 6.47745736 -11.9375 3.5 C-11.33599121 3.15001953 -10.73448242 2.80003906 -10.11474609 2.43945312 C-6.61137489 0.52344158 -3.99812942 -0.42324243 0 0 Z M-12.5625 11.875 C-13.36816406 12.40867187 -14.17382812 12.94234375 -15.00390625 13.4921875 C-17.11091591 14.85171658 -17.11091591 14.85171658 -18 17 C-18.0689472 18.37342831 -18.08467708 19.75002102 -18.0625 21.125 C-18.041875 22.40375 -18.02125 23.6825 -18 25 C-13.49710965 23.74337944 -10.4566666 22.16038089 -7 19 C-5.85647084 16.71294169 -5.89665561 15.40735238 -5.9375 12.875 C-5.958125 11.59625 -5.97875 10.3175 -6 9 C-8.83878361 9 -10.22227157 10.30483069 -12.5625 11.875 Z M-36 18 C-36.61563673 23.87090301 -36.61563673 23.87090301 -33.8125 28.8125 C-29.37934824 32.56972635 -29.37934824 32.56972635 -24 34 C-23.38436327 28.12909699 -23.38436327 28.12909699 -26.1875 23.1875 C-30.62065176 19.43027365 -30.62065176 19.43027365 -36 18 Z " fill="#1A7E41" transform="translate(49,0)"/>
</svg>
